Hoogli-Semibold_b007.ufo
<glyph name="dollar" format="1">
  <advance width="580"/>
  <unicode hex="0024"/>
  <outline>
    <contour>
      <point x="291" y="-21" type="curve" smooth="yes"/>
      <point x="468" y="-21"/>
      <point x="529" y="60"/>
      <point x="529" y="137" type="curve" smooth="yes"/>
      <point x="529" y="214"/>
      <point x="481" y="281"/>
      <point x="297" y="314" type="curve" smooth="yes"/>
      <point x="179" y="334"/>
      <point x="143" y="372"/>
      <point x="143" y="412" type="curve" smooth="yes"/>
      <point x="143" y="453"/>
      <point x="198" y="483"/>
      <point x="267" y="483" type="curve" smooth="yes"/>
      <point x="344" y="483"/>
      <point x="382" y="472"/>
      <point x="435" y="454" type="curve" smooth="yes"/>
      <point x="454" y="449"/>
      <point x="476" y="458"/>
      <point x="483" y="475" type="curve" smooth="yes"/>
      <point x="488" y="493"/>
      <point x="479" y="514"/>
      <point x="460" y="520" type="curve" smooth="yes"/>
      <point x="399" y="541"/>
      <point x="355" y="553"/>
      <point x="267" y="553" type="curve" smooth="yes"/>
      <point x="129" y="553"/>
      <point x="62" y="479"/>
      <point x="62" y="412" type="curve" smooth="yes"/>
      <point x="62" y="353"/>
      <point x="82" y="278"/>
      <point x="286" y="246" type="curve" smooth="yes"/>
      <point x="396" y="226"/>
      <point x="448" y="190"/>
      <point x="448" y="137" type="curve" smooth="yes"/>
      <point x="448" y="87"/>
      <point x="389" y="50"/>
      <point x="291" y="50" type="curve" smooth="yes"/>
      <point x="224" y="50"/>
      <point x="161" y="62"/>
      <point x="104" y="89" type="curve" smooth="yes"/>
      <point x="86" y="97"/>
      <point x="63" y="90"/>
      <point x="55" y="73" type="curve" smooth="yes"/>
      <point x="46" y="57"/>
      <point x="53" y="34"/>
      <point x="72" y="26" type="curve" smooth="yes"/>
      <point x="140" y="-6"/>
      <point x="213" y="-21"/>
    </contour>
    <contour>
      <point x="287" y="-120" type="curve" smooth="yes"/>
      <point x="307" y="-120"/>
      <point x="327" y="-103"/>
      <point x="327" y="-84" type="curve" smooth="yes"/>
      <point x="327" y="610" type="line" smooth="yes"/>
      <point x="327" y="629"/>
      <point x="307" y="645"/>
      <point x="287" y="645" type="curve" smooth="yes"/>
      <point x="266" y="645"/>
      <point x="246" y="629"/>
      <point x="246" y="610" type="curve" smooth="yes"/>
      <point x="246" y="-84" type="line" smooth="yes"/>
      <point x="246" y="-103"/>
      <point x="266" y="-120"/>
    </contour>
  </outline>
</glyph>
<glyph name="percent" format="1">
  <advance width="832"/>
  <unicode hex="0025"/>
  <outline>
    <contour>
      <point x="250" y="-7" type="curve" smooth="yes"/>
      <point x="267" y="-17"/>
      <point x="292" y="-12"/>
      <point x="302" y="4" type="curve" smooth="yes"/>
      <point x="600" y="493" type="line" smooth="yes"/>
      <point x="610" y="509"/>
      <point x="602" y="532"/>
      <point x="585" y="541" type="curve" smooth="yes"/>
      <point x="568" y="551"/>
      <point x="543" y="546"/>
      <point x="533" y="529" type="curve" smooth="yes"/>
      <point x="235" y="41" type="line" smooth="yes"/>
      <point x="225" y="26"/>
      <point x="233" y="2"/>
    </contour>
    <contour>
      <point x="202" y="209" type="curve" smooth="yes"/>
      <point x="293" y="209"/>
      <point x="356" y="280"/>
      <point x="356" y="382" type="curve" smooth="yes"/>
      <point x="356" y="489"/>
      <point x="281" y="554"/>
      <point x="202" y="554" type="curve" smooth="yes"/>
      <point x="118" y="554"/>
      <point x="47" y="489"/>
      <point x="47" y="381" type="curve" smooth="yes"/>
      <point x="47" y="281"/>
      <point x="119" y="209"/>
    </contour>
    <contour>
      <point x="202" y="280" type="curve" smooth="yes"/>
      <point x="152" y="280"/>
      <point x="128" y="333"/>
      <point x="128" y="381" type="curve" smooth="yes"/>
      <point x="128" y="433"/>
      <point x="151" y="484"/>
      <point x="202" y="484" type="curve" smooth="yes"/>
      <point x="249" y="484"/>
      <point x="275" y="433"/>
      <point x="275" y="382" type="curve" smooth="yes"/>
      <point x="275" y="334"/>
      <point x="256" y="280"/>
    </contour>
    <contour>
      <point x="632" y="-23" type="curve" smooth="yes"/>
      <point x="722" y="-23"/>
      <point x="785" y="50"/>
      <point x="785" y="150" type="curve" smooth="yes"/>
      <point x="785" y="257"/>
      <point x="711" y="321"/>
      <point x="632" y="321" type="curve" smooth="yes"/>
      <point x="546" y="321"/>
      <point x="476" y="257"/>
      <point x="476" y="149" type="curve" smooth="yes"/>
      <point x="476" y="51"/>
      <point x="547" y="-23"/>
    </contour>
    <contour>
      <point x="632" y="48" type="curve" smooth="yes"/>
      <point x="582" y="48"/>
      <point x="557" y="101"/>
      <point x="557" y="149" type="curve" smooth="yes"/>
      <point x="557" y="201"/>
      <point x="581" y="252"/>
      <point x="632" y="252" type="curve" smooth="yes"/>
      <point x="679" y="252"/>
      <point x="704" y="201"/>
      <point x="704" y="150" type="curve" smooth="yes"/>
      <point x="704" y="102"/>
      <point x="685" y="48"/>
    </contour>
  </outline>
</glyph>
<glyph name="asterisk" format="1">
  <advance width="430"/>
  <unicode hex="002A"/>
  <outline>
    <contour>
      <point x="356" y="446" type="line" smooth="yes"/>
      <point x="373" y="456"/>
      <point x="379" y="477"/>
      <point x="369" y="493" type="curve" smooth="yes"/>
      <point x="359" y="509"/>
      <point x="336" y="515"/>
      <point x="319" y="505" type="curve" smooth="yes"/>
      <point x="74" y="368" type="line" smooth="yes"/>
      <point x="51" y="355"/>
      <point x="47" y="342"/>
      <point x="62" y="321" type="curve" smooth="yes"/>
      <point x="71" y="305"/>
      <point x="94" y="300"/>
      <point x="111" y="309" type="curve" smooth="yes"/>
    </contour>
    <contour>
      <point x="319" y="309" type="line" smooth="yes"/>
      <point x="336" y="300"/>
      <point x="359" y="305"/>
      <point x="369" y="321" type="curve" smooth="yes"/>
      <point x="379" y="337"/>
      <point x="373" y="358"/>
      <point x="356" y="368" type="curve" smooth="yes"/>
      <point x="111" y="505" type="line" smooth="yes"/>
      <point x="94" y="515"/>
      <point x="71" y="509"/>
      <point x="62" y="493" type="curve" smooth="yes"/>
      <point x="51" y="477"/>
      <point x="57" y="456"/>
      <point x="74" y="446" type="curve" smooth="yes"/>
    </contour>
    <contour>
      <point x="215" y="251" type="curve" smooth="yes"/>
      <point x="234" y="251"/>
      <point x="251" y="266"/>
      <point x="251" y="285" type="curve" smooth="yes"/>
      <point x="251" y="534" type="line" smooth="yes"/>
      <point x="251" y="553"/>
      <point x="234" y="568"/>
      <point x="215" y="568" type="curve" smooth="yes"/>
      <point x="195" y="568"/>
      <point x="178" y="553"/>
      <point x="178" y="534" type="curve" smooth="yes"/>
      <point x="178" y="285" type="line" smooth="yes"/>
      <point x="178" y="266"/>
      <point x="195" y="251"/>
    </contour>
  </outline>
</glyph>
<glyph name="plus" format="1">
  <advance width="534"/>
  <unicode hex="002B"/>
  <outline>
    <contour>
      <point x="444" y="231" type="line" smooth="yes"/>
      <point x="464" y="231"/>
      <point x="480" y="247"/>
      <point x="480" y="265" type="curve" smooth="yes"/>
      <point x="480" y="285"/>
      <point x="464" y="301"/>
      <point x="444" y="301" type="curve" smooth="yes"/>
      <point x="90" y="301" type="line" smooth="yes"/>
      <point x="69" y="301"/>
      <point x="53" y="285"/>
      <point x="53" y="265" type="curve" smooth="yes"/>
      <point x="53" y="247"/>
      <point x="69" y="231"/>
      <point x="90" y="231" type="curve" smooth="yes"/>
    </contour>
    <contour>
      <point x="267" y="66" type="curve" smooth="yes"/>
      <point x="287" y="66"/>
      <point x="307" y="82"/>
      <point x="307" y="100" type="curve" smooth="yes"/>
      <point x="307" y="429" type="line" smooth="yes"/>
      <point x="307" y="449"/>
      <point x="287" y="465"/>
      <point x="267" y="465" type="curve" smooth="yes"/>
      <point x="246" y="465"/>
      <point x="226" y="449"/>
      <point x="226" y="429" type="curve" smooth="yes"/>
      <point x="226" y="100" type="line" smooth="yes"/>
      <point x="226" y="82"/>
      <point x="246" y="66"/>
    </contour>
  </outline>
</glyph>
<glyph name="comma" format="1">
  <advance width="219"/>
  <unicode hex="002C"/>
  <outline>
    <contour>
      <point x="45" y="-114" type="curve" smooth="yes"/>
      <point x="61" y="-125"/>
      <point x="85" y="-123"/>
      <point x="97" y="-107" type="curve" smooth="yes"/>
      <point x="128" y="-67"/>
      <point x="151" y="-13"/>
      <point x="151" y="41" type="curve" smooth="yes"/>
      <point x="151" y="65"/>
      <point x="147" y="89"/>
      <point x="142" y="102" type="curve" smooth="yes"/>
      <point x="136" y="120"/>
      <point x="112" y="129"/>
      <point x="93" y="123" type="curve" smooth="yes"/>
      <point x="74" y="118"/>
      <point x="61" y="96"/>
      <point x="67" y="79" type="curve" smooth="yes"/>
      <point x="70" y="69"/>
      <point x="70" y="56"/>
      <point x="70" y="41" type="curve" smooth="yes"/>
      <point x="70" y="3"/>
      <point x="59" y="-36"/>
      <point x="36" y="-65" type="curve" smooth="yes"/>
      <point x="24" y="-80"/>
      <point x="29" y="-103"/>
    </contour>
  </outline>
</glyph>
<glyph name="period" format="1">
  <advance width="213"/>
  <unicode hex="002E"/>
  <outline>
    <contour>
      <point x="109" y="-6" type="curve" smooth="yes"/>
      <point x="140" y="-6"/>
      <point x="170" y="7"/>
      <point x="170" y="58" type="curve" smooth="yes"/>
      <point x="170" y="98"/>
      <point x="139" y="121"/>
      <point x="108" y="121" type="curve" smooth="yes"/>
      <point x="72" y="121"/>
      <point x="46" y="99"/>
      <point x="46" y="58" type="curve" smooth="yes"/>
      <point x="46" y="9"/>
      <point x="80" y="-6"/>
    </contour>
  </outline>
</glyph>
<glyph name="slash" format="1">
  <advance width="392"/>
  <unicode hex="002F"/>
  <outline>
    <contour>
      <point x="50" y="-110" type="curve" smooth="yes"/>
      <point x="68" y="-117"/>
      <point x="93" y="-108"/>
      <point x="100" y="-91" type="curve" smooth="yes"/>
      <point x="361" y="594" type="line" smooth="yes"/>
      <point x="367" y="612"/>
      <point x="355" y="633"/>
      <point x="336" y="640" type="curve" smooth="yes"/>
      <point x="318" y="646"/>
      <point x="293" y="638"/>
      <point x="286" y="619" type="curve" smooth="yes"/>
      <point x="25" y="-65" type="line" smooth="yes"/>
      <point x="19" y="-82"/>
      <point x="32" y="-103"/>
    </contour>
  </outline>
</glyph>
<glyph name="one" format="1">
  <advance width="321"/>
  <unicode hex="0031"/>
  <outline>
    <contour>
      <point x="204" y="-12" type="curve" smooth="yes"/>
      <point x="224" y="-12"/>
      <point x="244" y="4"/>
      <point x="244" y="24" type="curve" smooth="yes"/>
      <point x="244" y="505" type="line" smooth="yes"/>
      <point x="244" y="523"/>
      <point x="224" y="539"/>
      <point x="204" y="539" type="curve" smooth="yes"/>
      <point x="183" y="539"/>
      <point x="163" y="523"/>
      <point x="163" y="505" type="curve" smooth="yes"/>
      <point x="163" y="24" type="line" smooth="yes"/>
      <point x="163" y="4"/>
      <point x="183" y="-12"/>
    </contour>
    <contour>
      <point x="221" y="480" type="line" smooth="yes"/>
      <point x="239" y="490"/>
      <point x="245" y="511"/>
      <point x="236" y="528" type="curve" smooth="yes"/>
      <point x="226" y="545"/>
      <point x="204" y="551"/>
      <point x="186" y="542" type="curve" smooth="yes"/>
      <point x="50" y="471" type="line" smooth="yes"/>
      <point x="32" y="462"/>
      <point x="26" y="440"/>
      <point x="35" y="423" type="curve" smooth="yes"/>
      <point x="45" y="407"/>
      <point x="68" y="400"/>
      <point x="85" y="409" type="curve" smooth="yes"/>
    </contour>
  </outline>
</glyph>
<glyph name="four" format="1">
  <advance width="535"/>
  <unicode hex="0034"/>
  <outline>
    <contour>
      <point x="29" y="121" type="curve" smooth="yes"/>
      <point x="44" y="109"/>
      <point x="69" y="110"/>
      <point x="82" y="125" type="curve" smooth="yes"/>
      <point x="396" y="489" type="line" smooth="yes"/>
      <point x="408" y="504"/>
      <point x="405" y="527"/>
      <point x="390" y="539" type="curve" smooth="yes"/>
      <point x="375" y="551"/>
      <point x="350" y="549"/>
      <point x="338" y="535" type="curve" smooth="yes"/>
      <point x="24" y="171" type="line" smooth="yes"/>
      <point x="11" y="156"/>
      <point x="14" y="132"/>
    </contour>
    <contour>
      <point x="488" y="113" type="line" smooth="yes"/>
      <point x="508" y="113"/>
      <point x="524" y="129"/>
      <point x="524" y="148" type="curve" smooth="yes"/>
      <point x="524" y="167"/>
      <point x="508" y="183"/>
      <point x="488" y="183" type="curve" smooth="yes"/>
      <point x="64" y="183" type="line" smooth="yes"/>
      <point x="43" y="183"/>
      <point x="27" y="167"/>
      <point x="27" y="148" type="curve" smooth="yes"/>
      <point x="27" y="129"/>
      <point x="43" y="113"/>
      <point x="64" y="113" type="curve" smooth="yes"/>
    </contour>
    <contour>
      <point x="374" y="-12" type="curve" smooth="yes"/>
      <point x="394" y="-12"/>
      <point x="414" y="4"/>
      <point x="414" y="24" type="curve" smooth="yes"/>
      <point x="414" y="521" type="line" smooth="yes"/>
      <point x="414" y="540"/>
      <point x="394" y="556"/>
      <point x="374" y="556" type="curve" smooth="yes"/>
      <point x="353" y="556"/>
      <point x="333" y="540"/>
      <point x="333" y="521" type="curve" smooth="yes"/>
      <point x="333" y="24" type="line" smooth="yes"/>
      <point x="333" y="4"/>
      <point x="353" y="-12"/>
    </contour>
  </outline>
</glyph>
<glyph name="seven" format="1">
  <advance width="466"/>
  <unicode hex="0037"/>
  <outline>
    <contour>
      <point x="191" y="-12" type="curve" smooth="yes"/>
      <point x="211" y="-12"/>
      <point x="231" y="4"/>
      <point x="231" y="24" type="curve" smooth="yes"/>
      <point x="231" y="79" type="line" smooth="yes"/>
      <point x="231" y="132"/>
      <point x="250" y="186"/>
      <point x="275" y="229" type="curve" smooth="yes"/>
      <point x="306" y="281"/>
      <point x="415" y="422"/>
      <point x="455" y="493" type="curve" smooth="yes"/>
      <point x="464" y="509"/>
      <point x="456" y="532"/>
      <point x="438" y="541" type="curve" smooth="yes"/>
      <point x="421" y="550"/>
      <point x="396" y="544"/>
      <point x="386" y="528" type="curve" smooth="yes"/>
      <point x="346" y="456"/>
      <point x="239" y="317"/>
      <point x="208" y="266" type="curve" smooth="yes"/>
      <point x="177" y="212"/>
      <point x="150" y="145"/>
      <point x="150" y="79" type="curve" smooth="yes"/>
      <point x="150" y="24" type="line" smooth="yes"/>
      <point x="150" y="4"/>
      <point x="170" y="-12"/>
    </contour>
    <contour>
      <point x="413" y="476" type="line" smooth="yes"/>
      <point x="433" y="476"/>
      <point x="449" y="492"/>
      <point x="449" y="511" type="curve" smooth="yes"/>
      <point x="449" y="530"/>
      <point x="433" y="546"/>
      <point x="413" y="546" type="curve" smooth="yes"/>
      <point x="53" y="546" type="line" smooth="yes"/>
      <point x="32" y="546"/>
      <point x="16" y="530"/>
      <point x="16" y="511" type="curve" smooth="yes"/>
      <point x="16" y="492"/>
      <point x="32" y="476"/>
      <point x="53" y="476" type="curve" smooth="yes"/>
    </contour>
  </outline>
</glyph>
<glyph name="eight" format="1">
  <advance width="563"/>
  <unicode hex="0038"/>
  <outline>
    <contour>
      <point x="283" y="-20" type="curve" smooth="yes"/>
      <point x="458" y="-20"/>
      <point x="515" y="62"/>
      <point x="515" y="151" type="curve" smooth="yes"/>
      <point x="515" y="249"/>
      <point x="430" y="321"/>
      <point x="283" y="321" type="curve" smooth="yes"/>
      <point x="127" y="321"/>
      <point x="48" y="249"/>
      <point x="48" y="150" type="curve" smooth="yes"/>
      <point x="48" y="63"/>
      <point x="118" y="-20"/>
    </contour>
    <contour>
      <point x="283" y="51" type="curve" smooth="yes"/>
      <point x="187" y="51"/>
      <point x="129" y="92"/>
      <point x="129" y="150" type="curve" smooth="yes"/>
      <point x="129" y="215"/>
      <point x="190" y="252"/>
      <point x="283" y="252" type="curve" smooth="yes"/>
      <point x="370" y="252"/>
      <point x="434" y="215"/>
      <point x="434" y="151" type="curve" smooth="yes"/>
      <point x="434" y="92"/>
      <point x="385" y="51"/>
    </contour>
    <contour>
      <point x="283" y="252" type="curve" smooth="yes"/>
      <point x="425" y="252"/>
      <point x="488" y="324"/>
      <point x="488" y="405" type="curve" smooth="yes"/>
      <point x="488" y="490"/>
      <point x="415" y="554"/>
      <point x="283" y="554" type="curve" smooth="yes"/>
      <point x="144" y="554"/>
      <point x="75" y="490"/>
      <point x="75" y="405" type="curve" smooth="yes"/>
      <point x="75" y="324"/>
      <point x="133" y="252"/>
    </contour>
    <contour>
      <point x="283" y="321" type="curve" smooth="yes"/>
      <point x="202" y="321"/>
      <point x="156" y="355"/>
      <point x="156" y="405" type="curve" smooth="yes"/>
      <point x="156" y="457"/>
      <point x="209" y="484"/>
      <point x="283" y="484" type="curve" smooth="yes"/>
      <point x="353" y="484"/>
      <point x="407" y="457"/>
      <point x="407" y="405" type="curve" smooth="yes"/>
      <point x="407" y="355"/>
      <point x="360" y="321"/>
    </contour>
  </outline>
</glyph>
<glyph name="nine" format="1">
  <advance width="540"/>
  <unicode hex="0039"/>
  <outline>
    <contour>
      <point x="234" y="-15" type="curve" smooth="yes"/>
      <point x="400" y="-15"/>
      <point x="492" y="81"/>
      <point x="492" y="269" type="curve" smooth="yes"/>
      <point x="492" y="461"/>
      <point x="388" y="555"/>
      <point x="253" y="555" type="curve" smooth="yes"/>
      <point x="108" y="555"/>
      <point x="39" y="461"/>
      <point x="39" y="369" type="curve" smooth="yes"/>
      <point x="39" y="253"/>
      <point x="113" y="188"/>
      <point x="243" y="188" type="curve" smooth="yes"/>
      <point x="354" y="188"/>
      <point x="424" y="240"/>
      <point x="478" y="326" type="curve" smooth="yes"/>
      <point x="488" y="342"/>
      <point x="481" y="364"/>
      <point x="464" y="374" type="curve" smooth="yes"/>
      <point x="446" y="384"/>
      <point x="422" y="379"/>
      <point x="411" y="363" type="curve" smooth="yes"/>
      <point x="373" y="302"/>
      <point x="325" y="257"/>
      <point x="243" y="257" type="curve" smooth="yes"/>
      <point x="164" y="257"/>
      <point x="120" y="298"/>
      <point x="120" y="369" type="curve" smooth="yes"/>
      <point x="120" y="427"/>
      <point x="163" y="485"/>
      <point x="253" y="485" type="curve" smooth="yes"/>
      <point x="355" y="485"/>
      <point x="411" y="397"/>
      <point x="411" y="269" type="curve" smooth="yes"/>
      <point x="411" y="139"/>
      <point x="359" y="55"/>
      <point x="234" y="55" type="curve" smooth="yes"/>
      <point x="202" y="55"/>
      <point x="181" y="60"/>
      <point x="157" y="67" type="curve" smooth="yes"/>
      <point x="138" y="72"/>
      <point x="117" y="59"/>
      <point x="112" y="41" type="curve" smooth="yes"/>
      <point x="107" y="24"/>
      <point x="119" y="3"/>
      <point x="138" y="-1" type="curve" smooth="yes"/>
      <point x="168" y="-8"/>
      <point x="195" y="-15"/>
    </contour>
  </outline>
</glyph>
<glyph name="semicolon" format="1">
  <advance width="219"/>
  <unicode hex="003B"/>
  <outline>
    <contour>
      <point x="45" y="-122" type="curve" smooth="yes"/>
      <point x="61" y="-132"/>
      <point x="86" y="-129"/>
      <point x="97" y="-114" type="curve" smooth="yes"/>
      <point x="129" y="-72"/>
      <point x="151" y="-19"/>
      <point x="151" y="34" type="curve" smooth="yes"/>
      <point x="151" y="59"/>
      <point x="147" y="81"/>
      <point x="142" y="95" type="curve" smooth="yes"/>
      <point x="137" y="114"/>
      <point x="113" y="123"/>
      <point x="94" y="118" type="curve" smooth="yes"/>
      <point x="75" y="113"/>
      <point x="61" y="92"/>
      <point x="67" y="73" type="curve" smooth="yes"/>
      <point x="70" y="64"/>
      <point x="70" y="49"/>
      <point x="70" y="34" type="curve" smooth="yes"/>
      <point x="70" y="-4"/>
      <point x="58" y="-42"/>
      <point x="36" y="-72" type="curve" smooth="yes"/>
      <point x="24" y="-87"/>
      <point x="29" y="-110"/>
    </contour>
    <contour>
      <point x="109" y="261" type="curve" smooth="yes"/>
      <point x="139" y="261"/>
      <point x="170" y="276"/>
      <point x="170" y="326" type="curve" smooth="yes"/>
      <point x="170" y="364"/>
      <point x="139" y="390"/>
      <point x="108" y="390" type="curve" smooth="yes"/>
      <point x="72" y="390"/>
      <point x="46" y="365"/>
      <point x="46" y="326" type="curve" smooth="yes"/>
      <point x="46" y="278"/>
      <point x="81" y="261"/>
    </contour>
  </outline>
</glyph>
<glyph name="less" format="1">
  <advance width="534"/>
  <unicode hex="003C"/>
  <outline>
    <contour>
      <point x="415" y="86" type="line" smooth="yes"/>
      <point x="432" y="78"/>
      <point x="455" y="86"/>
      <point x="463" y="103" type="curve" smooth="yes"/>
      <point x="471" y="122"/>
      <point x="463" y="142"/>
      <point x="445" y="150" type="curve" smooth="yes"/>
      <point x="107" y="296" type="line" smooth="yes"/>
      <point x="89" y="305"/>
      <point x="66" y="296"/>
      <point x="58" y="279" type="curve" smooth="yes"/>
      <point x="50" y="261"/>
      <point x="58" y="241"/>
      <point x="77" y="233" type="curve" smooth="yes"/>
    </contour>
    <contour>
      <point x="439" y="378" type="line" smooth="yes"/>
      <point x="457" y="385"/>
      <point x="465" y="406"/>
      <point x="457" y="423" type="curve" smooth="yes"/>
      <point x="449" y="441"/>
      <point x="427" y="450"/>
      <point x="409" y="441" type="curve" smooth="yes"/>
      <point x="83" y="300" type="line" smooth="yes"/>
      <point x="64" y="292"/>
      <point x="56" y="272"/>
      <point x="64" y="255" type="curve" smooth="yes"/>
      <point x="72" y="236"/>
      <point x="94" y="229"/>
      <point x="113" y="236" type="curve" smooth="yes"/>
    </contour>
  </outline>
</glyph>
<glyph name="equal" format="1">
  <advance width="534"/>
  <unicode hex="003D"/>
  <outline>
    <contour>
      <point x="444" y="325" type="line" smooth="yes"/>
      <point x="464" y="325"/>
      <point x="480" y="341"/>
      <point x="480" y="359" type="curve" smooth="yes"/>
      <point x="480" y="379"/>
      <point x="464" y="395"/>
      <point x="444" y="395" type="curve" smooth="yes"/>
      <point x="90" y="395" type="line" smooth="yes"/>
      <point x="69" y="395"/>
      <point x="53" y="379"/>
      <point x="53" y="359" type="curve" smooth="yes"/>
      <point x="53" y="341"/>
      <point x="69" y="325"/>
      <point x="90" y="325" type="curve" smooth="yes"/>
    </contour>
    <contour>
      <point x="444" y="126" type="line" smooth="yes"/>
      <point x="464" y="126"/>
      <point x="480" y="141"/>
      <point x="480" y="160" type="curve" smooth="yes"/>
      <point x="480" y="180"/>
      <point x="464" y="195"/>
      <point x="444" y="195" type="curve" smooth="yes"/>
      <point x="90" y="195" type="line" smooth="yes"/>
      <point x="69" y="195"/>
      <point x="53" y="180"/>
      <point x="53" y="160" type="curve" smooth="yes"/>
      <point x="53" y="141"/>
      <point x="69" y="126"/>
      <point x="90" y="126" type="curve" smooth="yes"/>
    </contour>
  </outline>
</glyph>
<glyph name="greater" format="1">
  <advance width="518"/>
  <unicode hex="003E"/>
  <outline>
    <contour>
      <point x="454" y="233" type="line" smooth="yes"/>
      <point x="472" y="241"/>
      <point x="480" y="261"/>
      <point x="472" y="279" type="curve" smooth="yes"/>
      <point x="464" y="296"/>
      <point x="441" y="305"/>
      <point x="424" y="296" type="curve" smooth="yes"/>
      <point x="86" y="150" type="line" smooth="yes"/>
      <point x="67" y="142"/>
      <point x="59" y="122"/>
      <point x="67" y="103" type="curve" smooth="yes"/>
      <point x="75" y="86"/>
      <point x="98" y="78"/>
      <point x="116" y="86" type="curve" smooth="yes"/>
    </contour>
    <contour>
      <point x="418" y="236" type="line" smooth="yes"/>
      <point x="435" y="229"/>
      <point x="458" y="236"/>
      <point x="466" y="255" type="curve" smooth="yes"/>
      <point x="474" y="272"/>
      <point x="466" y="292"/>
      <point x="448" y="300" type="curve" smooth="yes"/>
      <point x="123" y="441" type="line" smooth="yes"/>
      <point x="105" y="450"/>
      <point x="82" y="441"/>
      <point x="74" y="423" type="curve" smooth="yes"/>
      <point x="66" y="406"/>
      <point x="74" y="385"/>
      <point x="93" y="378" type="curve" smooth="yes"/>
    </contour>
  </outline>
</glyph>
<glyph name="question" format="1">
  <advance width="367"/>
  <unicode hex="003F"/>
  <outline>
    <contour>
      <point x="153" y="171" type="curve" smooth="yes"/>
      <point x="172" y="170"/>
      <point x="194" y="186"/>
      <point x="195" y="204" type="curve" smooth="yes"/>
      <point x="197" y="240"/>
      <point x="207" y="255"/>
      <point x="247" y="275" type="curve" smooth="yes"/>
      <point x="313" y="307"/>
      <point x="362" y="354"/>
      <point x="362" y="417" type="curve" smooth="yes"/>
      <point x="362" y="489"/>
      <point x="306" y="555"/>
      <point x="193" y="555" type="curve" smooth="yes"/>
      <point x="125" y="555"/>
      <point x="83" y="541"/>
      <point x="41" y="516" type="curve" smooth="yes"/>
      <point x="24" y="505"/>
      <point x="19" y="483"/>
      <point x="30" y="467" type="curve" smooth="yes"/>
      <point x="40" y="451"/>
      <point x="63" y="446"/>
      <point x="80" y="455" type="curve" smooth="yes"/>
      <point x="112" y="474"/>
      <point x="142" y="485"/>
      <point x="193" y="485" type="curve" smooth="yes"/>
      <point x="247" y="485"/>
      <point x="281" y="455"/>
      <point x="281" y="417" type="curve" smooth="yes"/>
      <point x="281" y="381"/>
      <point x="251" y="354"/>
      <point x="214" y="337" type="curve" smooth="yes"/>
      <point x="140" y="300"/>
      <point x="118" y="275"/>
      <point x="114" y="209" type="curve" smooth="yes"/>
      <point x="113" y="190"/>
      <point x="133" y="172"/>
    </contour>
    <contour>
      <point x="161" y="-17" type="curve" smooth="yes"/>
      <point x="194" y="-17"/>
      <point x="222" y="-3"/>
      <point x="222" y="47" type="curve" smooth="yes"/>
      <point x="222" y="87"/>
      <point x="193" y="111"/>
      <point x="160" y="111" type="curve" smooth="yes"/>
      <point x="124" y="111"/>
      <point x="98" y="89"/>
      <point x="98" y="47" type="curve" smooth="yes"/>
      <point x="98" y="-1"/>
      <point x="134" y="-17"/>
    </contour>
  </outline>
</glyph>
<glyph name="at" format="1">
  <advance width="675"/>
  <unicode hex="0040"/>
  <outline>
    <contour>
      <point x="345" y="-22" type="curve" smooth="yes"/>
      <point x="415" y="-22"/>
      <point x="475" y="-5"/>
      <point x="520" y="13" type="curve" smooth="yes"/>
      <point x="538" y="20"/>
      <point x="547" y="41"/>
      <point x="538" y="59" type="curve" smooth="yes"/>
      <point x="531" y="76"/>
      <point x="509" y="84"/>
      <point x="491" y="76" type="curve" smooth="yes"/>
      <point x="454" y="59"/>
      <point x="404" y="47"/>
      <point x="345" y="47" type="curve" smooth="yes"/>
      <point x="203" y="47"/>
      <point x="105" y="140"/>
      <point x="105" y="262" type="curve" smooth="yes"/>
      <point x="105" y="385"/>
      <point x="205" y="487"/>
      <point x="342" y="487" type="curve" smooth="yes"/>
      <point x="487" y="487"/>
      <point x="573" y="387"/>
      <point x="573" y="276" type="curve" smooth="yes"/>
      <point x="573" y="229"/>
      <point x="556" y="187"/>
      <point x="518" y="187" type="curve" smooth="yes"/>
      <point x="487" y="187"/>
      <point x="468" y="215"/>
      <point x="468" y="252" type="curve" smooth="yes"/>
      <point x="468" y="383" type="line" smooth="yes"/>
      <point x="468" y="401"/>
      <point x="451" y="417"/>
      <point x="432" y="417" type="curve" smooth="yes"/>
      <point x="412" y="417"/>
      <point x="395" y="401"/>
      <point x="395" y="383" type="curve" smooth="yes"/>
      <point x="395" y="252" type="line" smooth="yes"/>
      <point x="395" y="164"/>
      <point x="454" y="119"/>
      <point x="518" y="119" type="curve" smooth="yes"/>
      <point x="586" y="119"/>
      <point x="646" y="168"/>
      <point x="646" y="276" type="curve" smooth="yes"/>
      <point x="646" y="421"/>
      <point x="534" y="556"/>
      <point x="342" y="556" type="curve" smooth="yes"/>
      <point x="162" y="556"/>
      <point x="32" y="422"/>
      <point x="32" y="262" type="curve" smooth="yes"/>
      <point x="32" y="103"/>
      <point x="158" y="-22"/>
    </contour>
    <contour>
      <point x="318" y="120" type="curve" smooth="yes"/>
      <point x="370" y="120"/>
      <point x="425" y="148"/>
      <point x="462" y="209" type="curve" smooth="yes"/>
      <point x="472" y="226"/>
      <point x="466" y="248"/>
      <point x="449" y="255" type="curve" smooth="yes"/>
      <point x="432" y="266"/>
      <point x="409" y="260"/>
      <point x="400" y="244" type="curve" smooth="yes"/>
      <point x="378" y="209"/>
      <point x="349" y="188"/>
      <point x="318" y="188" type="curve" smooth="yes"/>
      <point x="283" y="188"/>
      <point x="256" y="217"/>
      <point x="256" y="259" type="curve" smooth="yes"/>
      <point x="256" y="313"/>
      <point x="291" y="349"/>
      <point x="337" y="349" type="curve" smooth="yes"/>
      <point x="366" y="349"/>
      <point x="390" y="340"/>
      <point x="411" y="326" type="curve" smooth="yes"/>
      <point x="427" y="316"/>
      <point x="451" y="321"/>
      <point x="462" y="336" type="curve" smooth="yes"/>
      <point x="473" y="351"/>
      <point x="468" y="374"/>
      <point x="452" y="384" type="curve" smooth="yes"/>
      <point x="419" y="405"/>
      <point x="383" y="417"/>
      <point x="337" y="417" type="curve" smooth="yes"/>
      <point x="256" y="417"/>
      <point x="183" y="359"/>
      <point x="183" y="259" type="curve" smooth="yes"/>
      <point x="183" y="168"/>
      <point x="250" y="120"/>
    </contour>
  </outline>
</glyph>
<glyph name="B" format="1">
  <advance width="531"/>
  <unicode hex="0042"/>
  <outline>
    <contour>
      <point x="281" y="-12" type="line" smooth="yes"/>
      <point x="364" y="-12"/>
      <point x="413" y="11"/>
      <point x="447" y="42" type="curve" smooth="yes"/>
      <point x="478" y="72"/>
      <point x="496" y="112"/>
      <point x="496" y="151" type="curve" smooth="yes"/>
      <point x="496" y="194"/>
      <point x="478" y="230"/>
      <point x="443" y="264" type="curve" smooth="yes"/>
      <point x="408" y="297"/>
      <point x="349" y="319"/>
      <point x="284" y="319" type="curve" smooth="yes"/>
      <point x="128" y="319" type="line" smooth="yes"/>
      <point x="107" y="319"/>
      <point x="91" y="304"/>
      <point x="91" y="285" type="curve" smooth="yes"/>
      <point x="91" y="265"/>
      <point x="107" y="250"/>
      <point x="128" y="250" type="curve" smooth="yes"/>
      <point x="284" y="250" type="line" smooth="yes"/>
      <point x="328" y="250"/>
      <point x="367" y="235"/>
      <point x="390" y="214" type="curve" smooth="yes"/>
      <point x="409" y="196"/>
      <point x="415" y="174"/>
      <point x="415" y="151" type="curve" smooth="yes"/>
      <point x="415" y="130"/>
      <point x="411" y="109"/>
      <point x="394" y="92" type="curve" smooth="yes"/>
      <point x="372" y="72"/>
      <point x="337" y="58"/>
      <point x="281" y="58" type="curve" smooth="yes"/>
      <point x="118" y="58" type="line"/>
      <point x="158" y="24" type="line"/>
      <point x="158" y="511" type="line"/>
      <point x="118" y="476" type="line"/>
      <point x="264" y="476" type="line" smooth="yes"/>
      <point x="303" y="476"/>
      <point x="331" y="464"/>
      <point x="347" y="449" type="curve" smooth="yes"/>
      <point x="359" y="436"/>
      <point x="365" y="416"/>
      <point x="365" y="400" type="curve" smooth="yes"/>
      <point x="365" y="381"/>
      <point x="360" y="361"/>
      <point x="347" y="350" type="curve" smooth="yes"/>
      <point x="333" y="336"/>
      <point x="305" y="322"/>
      <point x="273" y="319" type="curve" smooth="yes"/>
      <point x="253" y="318"/>
      <point x="237" y="301"/>
      <point x="239" y="283" type="curve" smooth="yes"/>
      <point x="240" y="264"/>
      <point x="258" y="248"/>
      <point x="278" y="250" type="curve" smooth="yes"/>
      <point x="332" y="254"/>
      <point x="376" y="276"/>
      <point x="400" y="298" type="curve" smooth="yes"/>
      <point x="425" y="323"/>
      <point x="446" y="359"/>
      <point x="446" y="400" type="curve" smooth="yes"/>
      <point x="446" y="435"/>
      <point x="426" y="474"/>
      <point x="400" y="499" type="curve" smooth="yes"/>
      <point x="372" y="525"/>
      <point x="330" y="546"/>
      <point x="264" y="546" type="curve" smooth="yes"/>
      <point x="118" y="546" type="line" smooth="yes"/>
      <point x="95" y="546"/>
      <point x="77" y="530"/>
      <point x="77" y="511" type="curve" smooth="yes"/>
      <point x="77" y="24" type="line" smooth="yes"/>
      <point x="77" y="4"/>
      <point x="95" y="-12"/>
      <point x="118" y="-12" type="curve" smooth="yes"/>
    </contour>
  </outline>
</glyph>
<glyph name="C" format="1">
  <advance width="571"/>
  <unicode hex="0043"/>
  <outline>
    <contour>
      <point x="346" y="-22" type="curve" smooth="yes"/>
      <point x="407" y="-22"/>
      <point x="461" y="-8"/>
      <point x="504" y="13" type="curve" smooth="yes"/>
      <point x="522" y="22"/>
      <point x="529" y="44"/>
      <point x="520" y="60" type="curve" smooth="yes"/>
      <point x="511" y="77"/>
      <point x="488" y="85"/>
      <point x="471" y="76" type="curve" smooth="yes"/>
      <point x="436" y="58"/>
      <point x="394" y="49"/>
      <point x="346" y="49" type="curve" smooth="yes"/>
      <point x="200" y="49"/>
      <point x="119" y="144"/>
      <point x="119" y="263" type="curve" smooth="yes"/>
      <point x="119" y="394"/>
      <point x="219" y="486"/>
      <point x="340" y="486" type="curve" smooth="yes"/>
      <point x="388" y="486"/>
      <point x="434" y="476"/>
      <point x="465" y="460" type="curve" smooth="yes"/>
      <point x="483" y="452"/>
      <point x="505" y="458"/>
      <point x="515" y="474" type="curve" smooth="yes"/>
      <point x="524" y="491"/>
      <point x="518" y="512"/>
      <point x="500" y="522" type="curve" smooth="yes"/>
      <point x="461" y="543"/>
      <point x="401" y="556"/>
      <point x="340" y="556" type="curve" smooth="yes"/>
      <point x="180" y="556"/>
      <point x="38" y="440"/>
      <point x="38" y="263" type="curve" smooth="yes"/>
      <point x="38" y="101"/>
      <point x="153" y="-22"/>
    </contour>
    <contour>
      <point x="328" y="556" type="move" name="top"/>
    </contour>
    <contour>
      <point x="316" y="-18" type="move" name="bottom"/>
    </contour>
  </outline>
</glyph>
<glyph name="D" format="1">
  <advance width="620"/>
  <unicode hex="0044"/>
  <outline>
    <contour>
      <point x="303" y="-12" type="line" smooth="yes"/>
      <point x="468" y="-12"/>
      <point x="581" y="109"/>
      <point x="581" y="267" type="curve" smooth="yes"/>
      <point x="581" y="435"/>
      <point x="447" y="546"/>
      <point x="303" y="546" type="curve" smooth="yes"/>
      <point x="118" y="546" type="line" smooth="yes"/>
      <point x="95" y="546"/>
      <point x="77" y="530"/>
      <point x="77" y="511" type="curve" smooth="yes"/>
      <point x="77" y="24" type="line" smooth="yes"/>
      <point x="77" y="4"/>
      <point x="95" y="-12"/>
      <point x="118" y="-12" type="curve" smooth="yes"/>
    </contour>
    <contour>
      <point x="158" y="511" type="line"/>
      <point x="118" y="476" type="line"/>
      <point x="303" y="476" type="line" smooth="yes"/>
      <point x="410" y="476"/>
      <point x="500" y="386"/>
      <point x="500" y="267" type="curve" smooth="yes"/>
      <point x="500" y="154"/>
      <point x="427" y="58"/>
      <point x="303" y="58" type="curve" smooth="yes"/>
      <point x="118" y="58" type="line"/>
      <point x="158" y="24" type="line"/>
    </contour>
    <contour>
      <point x="276" y="547" type="move" name="top"/>
    </contour>
  </outline>
</glyph>
<glyph name="F" format="1">
  <advance width="476"/>
  <unicode hex="0046"/>
  <outline>
    <contour>
      <point x="118" y="-12" type="curve" smooth="yes"/>
      <point x="138" y="-12"/>
      <point x="158" y="4"/>
      <point x="158" y="24" type="curve" smooth="yes"/>
      <point x="158" y="511" type="line" smooth="yes"/>
      <point x="158" y="530"/>
      <point x="138" y="546"/>
      <point x="118" y="546" type="curve" smooth="yes"/>
      <point x="97" y="546"/>
      <point x="77" y="530"/>
      <point x="77" y="511" type="curve" smooth="yes"/>
      <point x="77" y="24" type="line" smooth="yes"/>
      <point x="77" y="4"/>
      <point x="97" y="-12"/>
    </contour>
    <contour>
      <point x="364" y="232" type="line" smooth="yes"/>
      <point x="384" y="232"/>
      <point x="400" y="248"/>
      <point x="400" y="266" type="curve" smooth="yes"/>
      <point x="400" y="286"/>
      <point x="384" y="302"/>
      <point x="364" y="302" type="curve" smooth="yes"/>
      <point x="127" y="302" type="line" smooth="yes"/>
      <point x="106" y="302"/>
      <point x="90" y="286"/>
      <point x="90" y="266" type="curve" smooth="yes"/>
      <point x="90" y="248"/>
      <point x="106" y="232"/>
      <point x="127" y="232" type="curve" smooth="yes"/>
    </contour>
    <contour>
      <point x="417" y="476" type="line" smooth="yes"/>
      <point x="437" y="476"/>
      <point x="453" y="492"/>
      <point x="453" y="511" type="curve" smooth="yes"/>
      <point x="453" y="530"/>
      <point x="437" y="546"/>
      <point x="417" y="546" type="curve" smooth="yes"/>
      <point x="127" y="546" type="line" smooth="yes"/>
      <point x="106" y="546"/>
      <point x="90" y="530"/>
      <point x="90" y="511" type="curve" smooth="yes"/>
      <point x="90" y="492"/>
      <point x="106" y="476"/>
      <point x="127" y="476" type="curve" smooth="yes"/>
    </contour>
  </outline>
</glyph>
<glyph name="H" format="1">
  <advance width="640"/>
  <unicode hex="0048"/>
  <outline>
    <contour>
      <point x="522" y="-12" type="curve" smooth="yes"/>
      <point x="542" y="-12"/>
      <point x="562" y="4"/>
      <point x="562" y="24" type="curve" smooth="yes"/>
      <point x="562" y="511" type="line" smooth="yes"/>
      <point x="562" y="530"/>
      <point x="542" y="546"/>
      <point x="522" y="546" type="curve" smooth="yes"/>
      <point x="501" y="546"/>
      <point x="481" y="530"/>
      <point x="481" y="511" type="curve" smooth="yes"/>
      <point x="481" y="24" type="line" smooth="yes"/>
      <point x="481" y="4"/>
      <point x="501" y="-12"/>
    </contour>
    <contour>
      <point x="118" y="-12" type="curve" smooth="yes"/>
      <point x="138" y="-12"/>
      <point x="158" y="4"/>
      <point x="158" y="24" type="curve" smooth="yes"/>
      <point x="158" y="511" type="line" smooth="yes"/>
      <point x="158" y="530"/>
      <point x="138" y="546"/>
      <point x="118" y="546" type="curve" smooth="yes"/>
      <point x="97" y="546"/>
      <point x="77" y="530"/>
      <point x="77" y="511" type="curve" smooth="yes"/>
      <point x="77" y="24" type="line" smooth="yes"/>
      <point x="77" y="4"/>
      <point x="97" y="-12"/>
    </contour>
    <contour>
      <point x="521" y="250" type="line" smooth="yes"/>
      <point x="541" y="250"/>
      <point x="557" y="265"/>
      <point x="557" y="285" type="curve" smooth="yes"/>
      <point x="557" y="304"/>
      <point x="541" y="319"/>
      <point x="521" y="319" type="curve" smooth="yes"/>
      <point x="122" y="319" type="line" smooth="yes"/>
      <point x="101" y="319"/>
      <point x="85" y="304"/>
      <point x="85" y="285" type="curve" smooth="yes"/>
      <point x="85" y="265"/>
      <point x="101" y="250"/>
      <point x="122" y="250" type="curve" smooth="yes"/>
    </contour>
  </outline>
</glyph>
<glyph name="J" format="1">
  <advance width="385"/>
  <unicode hex="004A"/>
  <outline>
    <contour>
      <point x="157" y="-21" type="curve" smooth="yes"/>
      <point x="258" y="-21"/>
      <point x="321" y="34"/>
      <point x="321" y="166" type="curve" smooth="yes"/>
      <point x="321" y="511" type="line" smooth="yes"/>
      <point x="321" y="530"/>
      <point x="301" y="546"/>
      <point x="281" y="546" type="curve" smooth="yes"/>
      <point x="260" y="546"/>
      <point x="240" y="530"/>
      <point x="240" y="511" type="curve" smooth="yes"/>
      <point x="240" y="166" type="line" smooth="yes"/>
      <point x="240" y="97"/>
      <point x="219" y="50"/>
      <point x="157" y="50" type="curve" smooth="yes"/>
      <point x="131" y="50"/>
      <point x="104" y="54"/>
      <point x="79" y="65" type="curve" smooth="yes"/>
      <point x="61" y="74"/>
      <point x="38" y="65"/>
      <point x="30" y="49" type="curve" smooth="yes"/>
      <point x="22" y="31"/>
      <point x="30" y="9"/>
      <point x="48" y="3" type="curve" smooth="yes"/>
      <point x="83" y="-14"/>
      <point x="120" y="-21"/>
    </contour>
  </outline>
</glyph>
<glyph name="K" format="1">
  <advance width="562"/>
  <unicode hex="004B"/>
  <outline>
    <contour>
      <point x="142" y="166" type="curve" smooth="yes"/>
      <point x="194" y="210"/>
      <point x="392" y="381"/>
      <point x="498" y="486" type="curve" smooth="yes"/>
      <point x="511" y="500"/>
      <point x="511" y="523"/>
      <point x="496" y="536" type="curve" smooth="yes"/>
      <point x="481" y="549"/>
      <point x="457" y="549"/>
      <point x="443" y="535" type="curve" smooth="yes"/>
      <point x="339" y="431"/>
      <point x="143" y="262"/>
      <point x="93" y="218" type="curve" smooth="yes"/>
      <point x="78" y="206"/>
      <point x="77" y="183"/>
      <point x="90" y="168" type="curve" smooth="yes"/>
      <point x="103" y="155"/>
      <point x="127" y="153"/>
    </contour>
    <contour>
      <point x="118" y="-12" type="curve" smooth="yes"/>
      <point x="138" y="-12"/>
      <point x="158" y="4"/>
      <point x="158" y="24" type="curve" smooth="yes"/>
      <point x="158" y="511" type="line" smooth="yes"/>
      <point x="158" y="530"/>
      <point x="138" y="546"/>
      <point x="118" y="546" type="curve" smooth="yes"/>
      <point x="97" y="546"/>
      <point x="77" y="530"/>
      <point x="77" y="511" type="curve" smooth="yes"/>
      <point x="77" y="24" type="line" smooth="yes"/>
      <point x="77" y="4"/>
      <point x="97" y="-12"/>
    </contour>
    <contour>
      <point x="516" y="-3" type="curve" smooth="yes"/>
      <point x="531" y="9"/>
      <point x="533" y="32"/>
      <point x="520" y="47" type="curve" smooth="yes"/>
      <point x="462" y="110"/>
      <point x="337" y="256"/>
      <point x="277" y="326" type="curve" smooth="yes"/>
      <point x="264" y="341"/>
      <point x="239" y="342"/>
      <point x="224" y="330" type="curve" smooth="yes"/>
      <point x="209" y="318"/>
      <point x="206" y="295"/>
      <point x="219" y="280" type="curve" smooth="yes"/>
      <point x="279" y="210"/>
      <point x="405" y="63"/>
      <point x="463" y="0" type="curve" smooth="yes"/>
      <point x="477" y="-15"/>
      <point x="501" y="-16"/>
    </contour>
    <contour>
      <point x="280" y="24" type="move" name="bottom"/>
    </contour>
  </outline>
</glyph>
<glyph name="L" format="1">
  <advance width="459"/>
  <unicode hex="004C"/>
  <outline>
    <contour>
      <point x="118" y="-12" type="curve" smooth="yes"/>
      <point x="138" y="-12"/>
      <point x="158" y="4"/>
      <point x="158" y="24" type="curve" smooth="yes"/>
      <point x="158" y="511" type="line" smooth="yes"/>
      <point x="158" y="530"/>
      <point x="138" y="546"/>
      <point x="118" y="546" type="curve" smooth="yes"/>
      <point x="97" y="546"/>
      <point x="77" y="530"/>
      <point x="77" y="511" type="curve" smooth="yes"/>
      <point x="77" y="24" type="line" smooth="yes"/>
      <point x="77" y="4"/>
      <point x="97" y="-12"/>
    </contour>
    <contour>
      <point x="403" y="-12" type="line" smooth="yes"/>
      <point x="423" y="-12"/>
      <point x="439" y="4"/>
      <point x="439" y="24" type="curve" smooth="yes"/>
      <point x="439" y="42"/>
      <point x="423" y="58"/>
      <point x="403" y="58" type="curve" smooth="yes"/>
      <point x="127" y="58" type="line" smooth="yes"/>
      <point x="106" y="58"/>
      <point x="90" y="42"/>
      <point x="90" y="24" type="curve" smooth="yes"/>
      <point x="90" y="4"/>
      <point x="106" y="-12"/>
      <point x="127" y="-12" type="curve" smooth="yes"/>
    </contour>
    <contour>
      <point x="117" y="545" type="move" name="top"/>
    </contour>
    <contour>
      <point x="261" y="-10" type="move" name="bottom"/>
    </contour>
  </outline>
</glyph>
<glyph name="M" format="1">
  <advance width="838"/>
  <unicode hex="004D"/>
  <outline>
    <contour>
      <point x="433" y="8" type="curve" smooth="yes"/>
      <point x="450" y="17"/>
      <point x="461" y="39"/>
      <point x="451" y="57" type="curve" smooth="yes"/>
      <point x="381" y="197"/>
      <point x="282" y="395"/>
      <point x="217" y="523" type="curve" smooth="yes"/>
      <point x="209" y="540"/>
      <point x="184" y="547"/>
      <point x="167" y="539" type="curve" smooth="yes"/>
      <point x="148" y="530"/>
      <point x="139" y="508"/>
      <point x="148" y="492" type="curve" smooth="yes"/>
      <point x="213" y="363"/>
      <point x="312" y="165"/>
      <point x="382" y="25" type="curve" smooth="yes"/>
      <point x="390" y="7"/>
      <point x="414" y="1"/>
    </contour>
    <contour>
      <point x="94" y="-14" type="curve" smooth="yes"/>
      <point x="115" y="-16"/>
      <point x="136" y="-1"/>
      <point x="139" y="18" type="curve" smooth="yes"/>
      <point x="152" y="132"/>
      <point x="184" y="370"/>
      <point x="210" y="513" type="curve" smooth="yes"/>
      <point x="214" y="532"/>
      <point x="196" y="551"/>
      <point x="177" y="554" type="curve" smooth="yes"/>
      <point x="157" y="557"/>
      <point x="134" y="545"/>
      <point x="131" y="526" type="curve" smooth="yes"/>
      <point x="105" y="381"/>
      <point x="71" y="142"/>
      <point x="58" y="26" type="curve" smooth="yes"/>
      <point x="57" y="6"/>
      <point x="75" y="-11"/>
    </contour>
    <contour>
      <point x="406" y="20" type="curve" smooth="yes"/>
      <point x="424" y="12"/>
      <point x="449" y="20"/>
      <point x="456" y="37" type="curve" smooth="yes"/>
      <point x="519" y="173"/>
      <point x="602" y="351"/>
      <point x="679" y="496" type="curve" smooth="yes"/>
      <point x="689" y="513"/>
      <point x="679" y="536"/>
      <point x="661" y="544" type="curve" smooth="yes"/>
      <point x="644" y="553"/>
      <point x="619" y="547"/>
      <point x="610" y="530" type="curve" smooth="yes"/>
      <point x="533" y="382"/>
      <point x="448" y="205"/>
      <point x="385" y="67" type="curve" smooth="yes"/>
      <point x="377" y="50"/>
      <point x="388" y="28"/>
    </contour>
    <contour>
      <point x="744" y="-14" type="curve" smooth="yes"/>
      <point x="763" y="-10"/>
      <point x="781" y="7"/>
      <point x="778" y="27" type="curve" smooth="yes"/>
      <point x="759" y="160"/>
      <point x="724" y="371"/>
      <point x="692" y="528" type="curve" smooth="yes"/>
      <point x="688" y="547"/>
      <point x="665" y="559"/>
      <point x="646" y="555" type="curve" smooth="yes"/>
      <point x="626" y="552"/>
      <point x="610" y="532"/>
      <point x="613" y="513" type="curve" smooth="yes"/>
      <point x="645" y="358"/>
      <point x="680" y="150"/>
      <point x="699" y="16" type="curve" smooth="yes"/>
      <point x="702" y="-2"/>
      <point x="724" y="-16"/>
    </contour>
  </outline>
</glyph>
<glyph name="N" format="1">
  <advance width="644"/>
  <unicode hex="004E"/>
  <outline>
    <contour>
      <point x="541" y="-4" type="curve" smooth="yes"/>
      <point x="557" y="6"/>
      <point x="562" y="29"/>
      <point x="550" y="45" type="curve" smooth="yes"/>
      <point x="438" y="188"/>
      <point x="233" y="432"/>
      <point x="154" y="533" type="curve" smooth="yes"/>
      <point x="142" y="548"/>
      <point x="118" y="550"/>
      <point x="102" y="539" type="curve" smooth="yes"/>
      <point x="86" y="528"/>
      <point x="81" y="505"/>
      <point x="94" y="490" type="curve" smooth="yes"/>
      <point x="173" y="389"/>
      <point x="377" y="146"/>
      <point x="489" y="1" type="curve" smooth="yes"/>
      <point x="501" y="-14"/>
      <point x="525" y="-16"/>
    </contour>
    <contour>
      <point x="118" y="-12" type="curve" smooth="yes"/>
      <point x="138" y="-12"/>
      <point x="158" y="4"/>
      <point x="158" y="24" type="curve" smooth="yes"/>
      <point x="158" y="511" type="line" smooth="yes"/>
      <point x="158" y="530"/>
      <point x="138" y="546"/>
      <point x="118" y="546" type="curve" smooth="yes"/>
      <point x="97" y="546"/>
      <point x="77" y="530"/>
      <point x="77" y="511" type="curve" smooth="yes"/>
      <point x="77" y="24" type="line" smooth="yes"/>
      <point x="77" y="4"/>
      <point x="97" y="-12"/>
    </contour>
    <contour>
      <point x="527" y="-12" type="curve" smooth="yes"/>
      <point x="547" y="-12"/>
      <point x="567" y="4"/>
      <point x="567" y="24" type="curve" smooth="yes"/>
      <point x="567" y="511" type="line" smooth="yes"/>
      <point x="567" y="530"/>
      <point x="547" y="546"/>
      <point x="527" y="546" type="curve" smooth="yes"/>
      <point x="506" y="546"/>
      <point x="486" y="530"/>
      <point x="486" y="511" type="curve" smooth="yes"/>
      <point x="486" y="24" type="line" smooth="yes"/>
      <point x="486" y="4"/>
      <point x="506" y="-12"/>
    </contour>
    <contour>
      <point x="328" y="521" type="move" name="top"/>
    </contour>
    <contour>
      <point x="306" y="37" type="move" name="bottom"/>
    </contour>
  </outline>
</glyph>
<glyph name="Q" format="1">
  <advance width="649"/>
  <unicode hex="0051"/>
  <outline>
    <contour>
      <point x="327" y="-18" type="curve" smooth="yes"/>
      <point x="502" y="-18"/>
      <point x="611" y="104"/>
      <point x="611" y="269" type="curve" smooth="yes"/>
      <point x="611" y="443"/>
      <point x="482" y="559"/>
      <point x="327" y="559" type="curve" smooth="yes"/>
      <point x="158" y="559"/>
      <point x="38" y="443"/>
      <point x="38" y="266" type="curve" smooth="yes"/>
      <point x="38" y="105"/>
      <point x="160" y="-18"/>
    </contour>
    <contour>
      <point x="527" y="-153" type="curve" smooth="yes"/>
      <point x="547" y="-153"/>
      <point x="563" y="-137"/>
      <point x="563" y="-118" type="curve" smooth="yes"/>
      <point x="563" y="-99"/>
      <point x="547" y="-82"/>
      <point x="527" y="-82" type="curve" smooth="yes"/>
      <point x="436" y="-82"/>
      <point x="377" y="-36"/>
      <point x="361" y="25" type="curve" smooth="yes"/>
      <point x="356" y="42"/>
      <point x="332" y="53"/>
      <point x="313" y="49" type="curve" smooth="yes"/>
      <point x="294" y="44"/>
      <point x="279" y="24"/>
      <point x="284" y="5" type="curve" smooth="yes"/>
      <point x="308" y="-83"/>
      <point x="393" y="-153"/>
    </contour>
    <contour>
      <point x="327" y="53" type="curve" smooth="yes"/>
      <point x="201" y="53"/>
      <point x="119" y="151"/>
      <point x="119" y="266" type="curve" smooth="yes"/>
      <point x="119" y="395"/>
      <point x="199" y="489"/>
      <point x="327" y="489" type="curve" smooth="yes"/>
      <point x="443" y="489"/>
      <point x="530" y="395"/>
      <point x="530" y="269" type="curve" smooth="yes"/>
      <point x="530" y="152"/>
      <point x="459" y="53"/>
    </contour>
  </outline>
</glyph>
<glyph name="T" format="1">
  <advance width="550"/>
  <unicode hex="0054"/>
  <outline>
    <contour>
      <point x="274" y="-12" type="curve" smooth="yes"/>
      <point x="294" y="-12"/>
      <point x="314" y="4"/>
      <point x="314" y="24" type="curve" smooth="yes"/>
      <point x="314" y="511" type="line" smooth="yes"/>
      <point x="314" y="530"/>
      <point x="294" y="546"/>
      <point x="274" y="546" type="curve" smooth="yes"/>
      <point x="253" y="546"/>
      <point x="233" y="530"/>
      <point x="233" y="511" type="curve" smooth="yes"/>
      <point x="233" y="24" type="line" smooth="yes"/>
      <point x="233" y="4"/>
      <point x="253" y="-12"/>
    </contour>
    <contour>
      <point x="500" y="476" type="line" smooth="yes"/>
      <point x="520" y="476"/>
      <point x="536" y="492"/>
      <point x="536" y="511" type="curve" smooth="yes"/>
      <point x="536" y="530"/>
      <point x="520" y="546"/>
      <point x="500" y="546" type="curve" smooth="yes"/>
      <point x="51" y="546" type="line" smooth="yes"/>
      <point x="30" y="546"/>
      <point x="14" y="530"/>
      <point x="14" y="511" type="curve" smooth="yes"/>
      <point x="14" y="492"/>
      <point x="30" y="476"/>
      <point x="51" y="476" type="curve" smooth="yes"/>
    </contour>
    <contour>
      <point x="273" y="548" type="move" name="top"/>
    </contour>
    <contour>
      <point x="275" y="-9" type="move" name="bottom"/>
    </contour>
  </outline>
</glyph>
<glyph name="U" format="1">
  <advance width="624"/>
  <unicode hex="0055"/>
  <outline>
    <contour>
      <point x="310" y="-21" type="curve" smooth="yes"/>
      <point x="467" y="-21"/>
      <point x="559" y="61"/>
      <point x="559" y="217" type="curve" smooth="yes"/>
      <point x="559" y="511" type="line" smooth="yes"/>
      <point x="559" y="530"/>
      <point x="539" y="546"/>
      <point x="519" y="546" type="curve" smooth="yes"/>
      <point x="498" y="546"/>
      <point x="478" y="530"/>
      <point x="478" y="511" type="curve" smooth="yes"/>
      <point x="478" y="217" type="line" smooth="yes"/>
      <point x="478" y="111"/>
      <point x="420" y="50"/>
      <point x="310" y="50" type="curve" smooth="yes"/>
      <point x="211" y="50"/>
      <point x="146" y="111"/>
      <point x="146" y="214" type="curve" smooth="yes"/>
      <point x="146" y="511" type="line" smooth="yes"/>
      <point x="146" y="530"/>
      <point x="126" y="546"/>
      <point x="106" y="546" type="curve" smooth="yes"/>
      <point x="85" y="546"/>
      <point x="65" y="530"/>
      <point x="65" y="511" type="curve" smooth="yes"/>
      <point x="65" y="214" type="line" smooth="yes"/>
      <point x="65" y="61"/>
      <point x="168" y="-21"/>
    </contour>
    <contour>
      <point x="362" y="1" type="move" name="ogonek"/>
    </contour>
    <contour>
      <point x="308" y="524" type="move" name="top"/>
    </contour>
  </outline>
</glyph>
<glyph name="V" format="1">
  <advance width="591"/>
  <unicode hex="0056"/>
  <outline>
    <contour>
      <point x="280" y="-18" type="curve" smooth="yes"/>
      <point x="297" y="-27"/>
      <point x="321" y="-21"/>
      <point x="331" y="-3" type="curve" smooth="yes"/>
      <point x="377" y="81"/>
      <point x="509" y="353"/>
      <point x="562" y="498" type="curve" smooth="yes"/>
      <point x="568" y="517"/>
      <point x="556" y="538"/>
      <point x="536" y="545" type="curve" smooth="yes"/>
      <point x="518" y="550"/>
      <point x="494" y="541"/>
      <point x="487" y="524" type="curve" smooth="yes"/>
      <point x="436" y="381"/>
      <point x="308" y="115"/>
      <point x="262" y="30" type="curve" smooth="yes"/>
      <point x="253" y="14"/>
      <point x="262" y="-9"/>
    </contour>
    <contour>
      <point x="311" y="-12" type="curve" smooth="yes"/>
      <point x="329" y="-2"/>
      <point x="337" y="20"/>
      <point x="328" y="36" type="curve" smooth="yes"/>
      <point x="286" y="111"/>
      <point x="147" y="401"/>
      <point x="105" y="524" type="curve" smooth="yes"/>
      <point x="99" y="541"/>
      <point x="75" y="551"/>
      <point x="56" y="546" type="curve" smooth="yes"/>
      <point x="38" y="540"/>
      <point x="24" y="519"/>
      <point x="30" y="500" type="curve" smooth="yes"/>
      <point x="72" y="374"/>
      <point x="217" y="77"/>
      <point x="259" y="1" type="curve" smooth="yes"/>
      <point x="269" y="-15"/>
      <point x="294" y="-21"/>
    </contour>
  </outline>
</glyph>
<glyph name="backslash" format="1">
  <advance width="392"/>
  <unicode hex="005C"/>
  <outline>
    <contour>
      <point x="342" y="-92" type="curve" smooth="yes"/>
      <point x="361" y="-85"/>
      <point x="373" y="-64"/>
      <point x="367" y="-45" type="curve" smooth="yes"/>
      <point x="106" y="639" type="line" smooth="yes"/>
      <point x="99" y="657"/>
      <point x="74" y="665"/>
      <point x="56" y="659" type="curve" smooth="yes"/>
      <point x="38" y="652"/>
      <point x="25" y="631"/>
      <point x="31" y="613" type="curve" smooth="yes"/>
      <point x="292" y="-71" type="line" smooth="yes"/>
      <point x="299" y="-90"/>
      <point x="324" y="-97"/>
    </contour>
  </outline>
</glyph>
<glyph name="bracketright" format="1">
  <advance width="329"/>
  <unicode hex="005D"/>
  <outline>
    <contour>
      <point x="238" y="-104" type="line" smooth="yes"/>
      <point x="260" y="-104"/>
      <point x="278" y="-88"/>
      <point x="278" y="-69" type="curve" smooth="yes"/>
      <point x="278" y="615" type="line" smooth="yes"/>
      <point x="278" y="633"/>
      <point x="260" y="649"/>
      <point x="238" y="649" type="curve" smooth="yes"/>
      <point x="96" y="649" type="line" smooth="yes"/>
      <point x="75" y="649"/>
      <point x="59" y="633"/>
      <point x="59" y="615" type="curve" smooth="yes"/>
      <point x="59" y="595"/>
      <point x="75" y="579"/>
      <point x="96" y="579" type="curve" smooth="yes"/>
      <point x="238" y="579" type="line"/>
      <point x="197" y="615" type="line"/>
      <point x="197" y="-69" type="line"/>
      <point x="238" y="-34" type="line"/>
      <point x="96" y="-34" type="line" smooth="yes"/>
      <point x="75" y="-34"/>
      <point x="59" y="-50"/>
      <point x="59" y="-69" type="curve" smooth="yes"/>
      <point x="59" y="-88"/>
      <point x="75" y="-104"/>
      <point x="96" y="-104" type="curve" smooth="yes"/>
    </contour>
  </outline>
</glyph>
<glyph name="asciicircum" format="1">
  <advance width="492"/>
  <unicode hex="005E"/>
  <outline>
    <contour>
      <point x="415" y="214" type="curve" smooth="yes"/>
      <point x="433" y="223"/>
      <point x="442" y="246"/>
      <point x="433" y="262" type="curve" smooth="yes"/>
      <point x="389" y="343"/>
      <point x="338" y="439"/>
      <point x="286" y="531" type="curve" smooth="yes"/>
      <point x="276" y="548"/>
      <point x="252" y="554"/>
      <point x="234" y="545" type="curve" smooth="yes"/>
      <point x="216" y="536"/>
      <point x="208" y="513"/>
      <point x="217" y="497" type="curve" smooth="yes"/>
      <point x="269" y="404"/>
      <point x="320" y="308"/>
      <point x="364" y="227" type="curve" smooth="yes"/>
      <point x="374" y="210"/>
      <point x="398" y="204"/>
    </contour>
    <contour>
      <point x="78" y="214" type="curve" smooth="yes"/>
      <point x="96" y="204"/>
      <point x="120" y="211"/>
      <point x="129" y="228" type="curve" smooth="yes"/>
      <point x="172" y="309"/>
      <point x="226" y="404"/>
      <point x="276" y="497" type="curve" smooth="yes"/>
      <point x="285" y="514"/>
      <point x="276" y="536"/>
      <point x="258" y="545" type="curve" smooth="yes"/>
      <point x="241" y="554"/>
      <point x="216" y="548"/>
      <point x="207" y="531" type="curve" smooth="yes"/>
      <point x="157" y="438"/>
      <point x="103" y="342"/>
      <point x="60" y="261" type="curve" smooth="yes"/>
      <point x="51" y="245"/>
      <point x="60" y="223"/>
    </contour>
  </outline>
</glyph>
<glyph name="b" format="1">
  <advance width="517"/>
  <unicode hex="0062"/>
  <outline>
    <contour>
      <point x="270" y="-13" type="curve" smooth="yes"/>
      <point x="391" y="-13"/>
      <point x="483" y="66"/>
      <point x="483" y="194" type="curve" smooth="yes"/>
      <point x="483" y="323"/>
      <point x="390" y="402"/>
      <point x="284" y="402" type="curve" smooth="yes"/>
      <point x="208" y="402"/>
      <point x="129" y="354"/>
      <point x="73" y="270" type="curve" smooth="yes"/>
      <point x="62" y="253"/>
      <point x="69" y="231"/>
      <point x="86" y="221" type="curve" smooth="yes"/>
      <point x="103" y="210"/>
      <point x="128" y="215"/>
      <point x="138" y="231" type="curve" smooth="yes"/>
      <point x="176" y="290"/>
      <point x="229" y="332"/>
      <point x="284" y="332" type="curve" smooth="yes"/>
      <point x="353" y="332"/>
      <point x="402" y="271"/>
      <point x="402" y="194" type="curve" smooth="yes"/>
      <point x="402" y="114"/>
      <point x="350" y="57"/>
      <point x="270" y="57" type="curve" smooth="yes"/>
      <point x="214" y="57"/>
      <point x="167" y="69"/>
      <point x="122" y="92" type="curve" smooth="yes"/>
      <point x="105" y="101"/>
      <point x="82" y="95"/>
      <point x="72" y="79" type="curve" smooth="yes"/>
      <point x="63" y="62"/>
      <point x="69" y="39"/>
      <point x="87" y="31" type="curve" smooth="yes"/>
      <point x="142" y="3"/>
      <point x="201" y="-13"/>
    </contour>
    <contour>
      <point x="105" y="-12" type="curve" smooth="yes"/>
      <point x="125" y="-12"/>
      <point x="145" y="4"/>
      <point x="145" y="24" type="curve" smooth="yes"/>
      <point x="145" y="537" type="line" smooth="yes"/>
      <point x="145" y="556"/>
      <point x="125" y="572"/>
      <point x="105" y="572" type="curve" smooth="yes"/>
      <point x="84" y="572"/>
      <point x="64" y="556"/>
      <point x="64" y="537" type="curve" smooth="yes"/>
      <point x="64" y="24" type="line" smooth="yes"/>
      <point x="64" y="4"/>
      <point x="84" y="-12"/>
    </contour>
  </outline>
</glyph>
<glyph name="h" format="1">
  <advance width="499"/>
  <unicode hex="0068"/>
  <outline>
    <contour>
      <point x="406" y="-13" type="curve" smooth="yes"/>
      <point x="426" y="-13"/>
      <point x="446" y="3"/>
      <point x="446" y="23" type="curve" smooth="yes"/>
      <point x="446" y="224" type="line" smooth="yes"/>
      <point x="446" y="365"/>
      <point x="371" y="402"/>
      <point x="288" y="402" type="curve" smooth="yes"/>
      <point x="212" y="402"/>
      <point x="139" y="359"/>
      <point x="82" y="305" type="curve" smooth="yes"/>
      <point x="68" y="291"/>
      <point x="68" y="268"/>
      <point x="83" y="255" type="curve" smooth="yes"/>
      <point x="97" y="241"/>
      <point x="121" y="240"/>
      <point x="135" y="254" type="curve" smooth="yes"/>
      <point x="178" y="295"/>
      <point x="231" y="332"/>
      <point x="288" y="332" type="curve" smooth="yes"/>
      <point x="338" y="332"/>
      <point x="365" y="293"/>
      <point x="365" y="224" type="curve" smooth="yes"/>
      <point x="365" y="23" type="line" smooth="yes"/>
      <point x="365" y="3"/>
      <point x="385" y="-13"/>
    </contour>
    <contour>
      <point x="105" y="-13" type="curve" smooth="yes"/>
      <point x="125" y="-13"/>
      <point x="145" y="3"/>
      <point x="145" y="23" type="curve" smooth="yes"/>
      <point x="145" y="537" type="line" smooth="yes"/>
      <point x="145" y="556"/>
      <point x="125" y="572"/>
      <point x="105" y="572" type="curve" smooth="yes"/>
      <point x="84" y="572"/>
      <point x="64" y="556"/>
      <point x="64" y="537" type="curve" smooth="yes"/>
      <point x="64" y="23" type="line" smooth="yes"/>
      <point x="64" y="3"/>
      <point x="84" y="-13"/>
    </contour>
  </outline>
</glyph>
<glyph name="i" format="1">
  <advance width="221"/>
  <unicode hex="0069"/>
  <outline>
    <contour>
      <point x="111" y="-14" type="curve" smooth="yes"/>
      <point x="131" y="-14"/>
      <point x="151" y="1"/>
      <point x="151" y="22" type="curve" smooth="yes"/>
      <point x="151" y="365" type="line" smooth="yes"/>
      <point x="151" y="385"/>
      <point x="131" y="401"/>
      <point x="111" y="401" type="curve" smooth="yes"/>
      <point x="90" y="401"/>
      <point x="70" y="385"/>
      <point x="70" y="365" type="curve" smooth="yes"/>
      <point x="70" y="22" type="line" smooth="yes"/>
      <point x="70" y="1"/>
      <point x="90" y="-14"/>
    </contour>
    <contour>
      <point x="112" y="490" type="curve" smooth="yes"/>
      <point x="139" y="490"/>
      <point x="170" y="509"/>
      <point x="170" y="549" type="curve" smooth="yes"/>
      <point x="170" y="590"/>
      <point x="139" y="611"/>
      <point x="111" y="611" type="curve" smooth="yes"/>
      <point x="81" y="611"/>
      <point x="51" y="590"/>
      <point x="51" y="549" type="curve" smooth="yes"/>
      <point x="51" y="511"/>
      <point x="79" y="490"/>
    </contour>
    <contour>
      <point x="111" y="-12" type="move" name="bottom"/>
    </contour>
  </outline>
</glyph>
<glyph name="j" format="1">
  <advance width="221"/>
  <unicode hex="006A"/>
  <outline>
    <contour>
      <point x="8" y="-166" type="curve" smooth="yes"/>
      <point x="95" y="-134"/>
      <point x="151" y="-76"/>
      <point x="151" y="44" type="curve" smooth="yes"/>
      <point x="151" y="369" type="line" smooth="yes"/>
      <point x="151" y="388"/>
      <point x="131" y="405"/>
      <point x="111" y="405" type="curve" smooth="yes"/>
      <point x="90" y="405"/>
      <point x="70" y="388"/>
      <point x="70" y="369" type="curve" smooth="yes"/>
      <point x="70" y="44" type="line" smooth="yes"/>
      <point x="70" y="-35"/>
      <point x="42" y="-78"/>
      <point x="-19" y="-102" type="curve" smooth="yes"/>
      <point x="-37" y="-108"/>
      <point x="-47" y="-130"/>
      <point x="-40" y="-147" type="curve" smooth="yes"/>
      <point x="-32" y="-164"/>
      <point x="-11" y="-174"/>
    </contour>
    <contour>
      <point x="112" y="494" type="curve" smooth="yes"/>
      <point x="139" y="494"/>
      <point x="170" y="513"/>
      <point x="170" y="553" type="curve" smooth="yes"/>
      <point x="170" y="594"/>
      <point x="139" y="615"/>
      <point x="111" y="615" type="curve" smooth="yes"/>
      <point x="81" y="615"/>
      <point x="51" y="594"/>
      <point x="51" y="553" type="curve" smooth="yes"/>
      <point x="51" y="515"/>
      <point x="79" y="494"/>
    </contour>
  </outline>
</glyph>
<glyph name="k" format="1">
  <advance width="469"/>
  <unicode hex="006B"/>
  <outline>
    <contour>
      <point x="412" y="338" type="line" smooth="yes"/>
      <point x="428" y="351"/>
      <point x="430" y="373"/>
      <point x="419" y="387" type="curve" smooth="yes"/>
      <point x="406" y="403"/>
      <point x="382" y="406"/>
      <point x="367" y="394" type="curve" smooth="yes"/>
      <point x="84" y="182" type="line" smooth="yes"/>
      <point x="68" y="169"/>
      <point x="66" y="147"/>
      <point x="77" y="132" type="curve" smooth="yes"/>
      <point x="90" y="117"/>
      <point x="114" y="114"/>
      <point x="129" y="126" type="curve" smooth="yes"/>
    </contour>
    <contour>
      <point x="105" y="-13" type="curve" smooth="yes"/>
      <point x="125" y="-13"/>
      <point x="145" y="3"/>
      <point x="145" y="23" type="curve" smooth="yes"/>
      <point x="145" y="537" type="line" smooth="yes"/>
      <point x="145" y="556"/>
      <point x="125" y="572"/>
      <point x="105" y="572" type="curve" smooth="yes"/>
      <point x="84" y="572"/>
      <point x="64" y="556"/>
      <point x="64" y="537" type="curve" smooth="yes"/>
      <point x="64" y="23" type="line" smooth="yes"/>
      <point x="64" y="3"/>
      <point x="84" y="-13"/>
    </contour>
    <contour>
      <point x="425" y="-6" type="curve" smooth="yes"/>
      <point x="441" y="4"/>
      <point x="446" y="28"/>
      <point x="434" y="44" type="curve" smooth="yes"/>
      <point x="265" y="272" type="line" smooth="yes"/>
      <point x="254" y="286"/>
      <point x="229" y="290"/>
      <point x="213" y="279" type="curve" smooth="yes"/>
      <point x="197" y="268"/>
      <point x="192" y="245"/>
      <point x="204" y="229" type="curve" smooth="yes"/>
      <point x="373" y="1" type="line" smooth="yes"/>
      <point x="384" y="-14"/>
      <point x="409" y="-18"/>
    </contour>
    <contour>
      <point x="239" y="17" type="move" name="bottom"/>
    </contour>
  </outline>
</glyph>
<glyph name="l" format="1">
  <advance width="221"/>
  <unicode hex="006C"/>
  <outline>
    <contour>
      <point x="111" y="-13" type="curve" smooth="yes"/>
      <point x="131" y="-13"/>
      <point x="151" y="3"/>
      <point x="151" y="23" type="curve" smooth="yes"/>
      <point x="151" y="537" type="line" smooth="yes"/>
      <point x="151" y="556"/>
      <point x="131" y="572"/>
      <point x="111" y="572" type="curve" smooth="yes"/>
      <point x="90" y="572"/>
      <point x="70" y="556"/>
      <point x="70" y="537" type="curve" smooth="yes"/>
      <point x="70" y="23" type="line" smooth="yes"/>
      <point x="70" y="3"/>
      <point x="90" y="-13"/>
    </contour>
    <contour>
      <point x="110" y="571" type="move" name="top"/>
    </contour>
    <contour>
      <point x="109" y="-13" type="move" name="bottom"/>
    </contour>
  </outline>
</glyph>
<glyph name="o" format="1">
  <advance width="514"/>
  <unicode hex="006F"/>
  <outline>
    <contour>
      <point x="258" y="-13" type="curve" smooth="yes"/>
      <point x="393" y="-13"/>
      <point x="481" y="76"/>
      <point x="481" y="194" type="curve" smooth="yes"/>
      <point x="481" y="315"/>
      <point x="392" y="410"/>
      <point x="258" y="410" type="curve" smooth="yes"/>
      <point x="122" y="410"/>
      <point x="35" y="315"/>
      <point x="35" y="195" type="curve" smooth="yes"/>
      <point x="35" y="77"/>
      <point x="124" y="-13"/>
    </contour>
    <contour>
      <point x="258" y="57" type="curve" smooth="yes"/>
      <point x="169" y="57"/>
      <point x="116" y="120"/>
      <point x="116" y="195" type="curve" smooth="yes"/>
      <point x="116" y="272"/>
      <point x="167" y="340"/>
      <point x="258" y="340" type="curve" smooth="yes"/>
      <point x="349" y="340"/>
      <point x="400" y="272"/>
      <point x="400" y="194" type="curve" smooth="yes"/>
      <point x="400" y="119"/>
      <point x="346" y="57"/>
    </contour>
    <contour>
      <point x="257" y="411" type="move" name="top"/>
    </contour>
    <contour>
      <point x="259" y="-11" type="move" name="bottom"/>
    </contour>
  </outline>
</glyph>
<glyph name="r" format="1">
  <advance width="360"/>
  <unicode hex="0072"/>
  <outline>
    <contour>
      <point x="85" y="209" type="curve" smooth="yes"/>
      <point x="102" y="199"/>
      <point x="127" y="203"/>
      <point x="138" y="219" type="curve" smooth="yes"/>
      <point x="180" y="284"/>
      <point x="230" y="326"/>
      <point x="311" y="336" type="curve" smooth="yes"/>
      <point x="330" y="339"/>
      <point x="345" y="357"/>
      <point x="342" y="376" type="curve" smooth="yes"/>
      <point x="340" y="394"/>
      <point x="321" y="408"/>
      <point x="300" y="406" type="curve" smooth="yes"/>
      <point x="197" y="393"/>
      <point x="129" y="342"/>
      <point x="73" y="258" type="curve" smooth="yes"/>
      <point x="62" y="243"/>
      <point x="69" y="220"/>
    </contour>
    <contour>
      <point x="105" y="-9" type="curve" smooth="yes"/>
      <point x="125" y="-9"/>
      <point x="145" y="7"/>
      <point x="145" y="27" type="curve" smooth="yes"/>
      <point x="145" y="371" type="line" smooth="yes"/>
      <point x="145" y="390"/>
      <point x="125" y="406"/>
      <point x="105" y="406" type="curve" smooth="yes"/>
      <point x="84" y="406"/>
      <point x="64" y="390"/>
      <point x="64" y="371" type="curve" smooth="yes"/>
      <point x="64" y="27" type="line" smooth="yes"/>
      <point x="64" y="7"/>
      <point x="84" y="-9"/>
    </contour>
    <contour>
      <point x="201" y="413" type="move" name="top"/>
    </contour>
    <contour>
      <point x="105" y="-10" type="move" name="bottom"/>
    </contour>
  </outline>
</glyph>
<glyph name="u" format="1">
  <advance width="499"/>
  <unicode hex="0075"/>
  <outline>
    <contour>
      <point x="212" y="-9" type="curve" smooth="yes"/>
      <point x="287" y="-9"/>
      <point x="370" y="45"/>
      <point x="421" y="113" type="curve" smooth="yes"/>
      <point x="433" y="129"/>
      <point x="428" y="152"/>
      <point x="412" y="163" type="curve" smooth="yes"/>
      <point x="396" y="175"/>
      <point x="371" y="171"/>
      <point x="360" y="156" type="curve" smooth="yes"/>
      <point x="323" y="107"/>
      <point x="268" y="61"/>
      <point x="212" y="61" type="curve" smooth="yes"/>
      <point x="160" y="61"/>
      <point x="134" y="99"/>
      <point x="134" y="170" type="curve" smooth="yes"/>
      <point x="134" y="371" type="line" smooth="yes"/>
      <point x="134" y="390"/>
      <point x="114" y="406"/>
      <point x="94" y="406" type="curve" smooth="yes"/>
      <point x="73" y="406"/>
      <point x="53" y="390"/>
      <point x="53" y="371" type="curve" smooth="yes"/>
      <point x="53" y="170" type="line" smooth="yes"/>
      <point x="53" y="28"/>
      <point x="127" y="-9"/>
    </contour>
    <contour>
      <point x="395" y="-9" type="curve" smooth="yes"/>
      <point x="415" y="-9"/>
      <point x="435" y="7"/>
      <point x="435" y="27" type="curve" smooth="yes"/>
      <point x="435" y="371" type="line" smooth="yes"/>
      <point x="435" y="390"/>
      <point x="415" y="406"/>
      <point x="395" y="406" type="curve" smooth="yes"/>
      <point x="374" y="406"/>
      <point x="354" y="390"/>
      <point x="354" y="371" type="curve" smooth="yes"/>
      <point x="354" y="27" type="line" smooth="yes"/>
      <point x="354" y="7"/>
      <point x="374" y="-9"/>
    </contour>
    <contour>
      <point x="399" y="37" type="move" name="ogonek"/>
    </contour>
    <contour>
      <point x="239" y="401" type="move" name="top"/>
    </contour>
  </outline>
</glyph>
<glyph name="v" format="1">
  <advance width="451"/>
  <unicode hex="0076"/>
  <outline>
    <contour>
      <point x="233" y="-13" type="line" smooth="yes"/>
      <point x="245" y="-13"/>
      <point x="260" y="-5"/>
      <point x="266" y="3" type="curve" smooth="yes"/>
      <point x="321" y="93"/>
      <point x="391" y="245"/>
      <point x="434" y="359" type="curve" smooth="yes"/>
      <point x="440" y="376"/>
      <point x="428" y="397"/>
      <point x="409" y="404" type="curve" smooth="yes"/>
      <point x="391" y="410"/>
      <point x="366" y="402"/>
      <point x="359" y="384" type="curve" smooth="yes"/>
      <point x="318" y="275"/>
      <point x="252" y="126"/>
      <point x="199" y="41" type="curve"/>
      <point x="233" y="57" type="line"/>
      <point x="229" y="57" type="line"/>
      <point x="262" y="41" type="line"/>
      <point x="208" y="126"/>
      <point x="152" y="233"/>
      <point x="91" y="385" type="curve" smooth="yes"/>
      <point x="84" y="402"/>
      <point x="60" y="411"/>
      <point x="41" y="404" type="curve" smooth="yes"/>
      <point x="23" y="397"/>
      <point x="11" y="376"/>
      <point x="18" y="358" type="curve" smooth="yes"/>
      <point x="81" y="201"/>
      <point x="139" y="92"/>
      <point x="195" y="3" type="curve" smooth="yes"/>
      <point x="201" y="-5"/>
      <point x="216" y="-13"/>
      <point x="229" y="-13" type="curve" smooth="yes"/>
    </contour>
  </outline>
</glyph>
<glyph name="y" format="1">
  <advance width="450"/>
  <unicode hex="0079"/>
  <outline>
    <contour>
      <point x="73" y="-175" type="curve" smooth="yes"/>
      <point x="144" y="-136"/>
      <point x="210" y="-91"/>
      <point x="273" y="13" type="curve" smooth="yes"/>
      <point x="330" y="105"/>
      <point x="396" y="248"/>
      <point x="431" y="364" type="curve" smooth="yes"/>
      <point x="437" y="382"/>
      <point x="423" y="404"/>
      <point x="404" y="408" type="curve" smooth="yes"/>
      <point x="385" y="414"/>
      <point x="361" y="404"/>
      <point x="356" y="386" type="curve" smooth="yes"/>
      <point x="321" y="274"/>
      <point x="261" y="138"/>
      <point x="206" y="51" type="curve" smooth="yes"/>
      <point x="152" y="-39"/>
      <point x="97" y="-80"/>
      <point x="36" y="-114" type="curve" smooth="yes"/>
      <point x="19" y="-124"/>
      <point x="13" y="-145"/>
      <point x="23" y="-162" type="curve" smooth="yes"/>
      <point x="33" y="-179"/>
      <point x="56" y="-185"/>
    </contour>
    <contour>
      <point x="257" y="2" type="curve" smooth="yes"/>
      <point x="273" y="13"/>
      <point x="280" y="35"/>
      <point x="269" y="52" type="curve" smooth="yes"/>
      <point x="216" y="129"/>
      <point x="149" y="238"/>
      <point x="94" y="389" type="curve" smooth="yes"/>
      <point x="87" y="406"/>
      <point x="63" y="415"/>
      <point x="44" y="409" type="curve" smooth="yes"/>
      <point x="26" y="403"/>
      <point x="13" y="381"/>
      <point x="19" y="363" type="curve" smooth="yes"/>
      <point x="78" y="206"/>
      <point x="149" y="94"/>
      <point x="204" y="12" type="curve" smooth="yes"/>
      <point x="215" y="-4"/>
      <point x="240" y="-8"/>
    </contour>
    <contour>
      <point x="225" y="382" type="move" name="top"/>
    </contour>
  </outline>
</glyph>
<glyph name="z" format="1">
  <advance width="443"/>
  <unicode hex="007A"/>
  <outline>
    <contour>
      <point x="46" y="7" type="curve" smooth="yes"/>
      <point x="61" y="-4"/>
      <point x="85" y="-2"/>
      <point x="99" y="11" type="curve" smooth="yes"/>
      <point x="397" y="348" type="line" smooth="yes"/>
      <point x="409" y="362"/>
      <point x="407" y="386"/>
      <point x="391" y="398" type="curve" smooth="yes"/>
      <point x="376" y="410"/>
      <point x="352" y="408"/>
      <point x="339" y="394" type="curve" smooth="yes"/>
      <point x="41" y="58" type="line" smooth="yes"/>
      <point x="28" y="43"/>
      <point x="30" y="21"/>
    </contour>
    <contour>
      <point x="380" y="-9" type="line" smooth="yes"/>
      <point x="400" y="-9"/>
      <point x="416" y="7"/>
      <point x="416" y="27" type="curve" smooth="yes"/>
      <point x="416" y="45"/>
      <point x="400" y="61"/>
      <point x="380" y="61" type="curve" smooth="yes"/>
      <point x="64" y="61" type="line" smooth="yes"/>
      <point x="43" y="61"/>
      <point x="27" y="45"/>
      <point x="27" y="27" type="curve" smooth="yes"/>
      <point x="27" y="7"/>
      <point x="43" y="-9"/>
      <point x="64" y="-9" type="curve" smooth="yes"/>
    </contour>
    <contour>
      <point x="362" y="336" type="line" smooth="yes"/>
      <point x="382" y="336"/>
      <point x="398" y="353"/>
      <point x="398" y="371" type="curve" smooth="yes"/>
      <point x="398" y="390"/>
      <point x="382" y="406"/>
      <point x="362" y="406" type="curve" smooth="yes"/>
      <point x="79" y="406" type="line" smooth="yes"/>
      <point x="58" y="406"/>
      <point x="42" y="390"/>
      <point x="42" y="371" type="curve" smooth="yes"/>
      <point x="42" y="353"/>
      <point x="58" y="336"/>
      <point x="79" y="336" type="curve" smooth="yes"/>
    </contour>
    <contour>
      <point x="215" y="406" type="move" name="top"/>
    </contour>
  </outline>
</glyph>
<glyph name="braceleft" format="1">
  <advance width="410"/>
  <unicode hex="007B"/>
  <outline>
    <contour>
      <point x="315" y="-113" type="line" smooth="yes"/>
      <point x="335" y="-113"/>
      <point x="351" y="-97"/>
      <point x="351" y="-77" type="curve" smooth="yes"/>
      <point x="351" y="-59"/>
      <point x="335" y="-43"/>
      <point x="315" y="-43" type="curve" smooth="yes"/>
      <point x="294" y="-43" type="line" smooth="yes"/>
      <point x="224" y="-43"/>
      <point x="168" y="-12"/>
      <point x="168" y="30" type="curve" smooth="yes"/>
      <point x="168" y="96"/>
      <point x="238" y="131"/>
      <point x="238" y="190" type="curve" smooth="yes"/>
      <point x="238" y="239"/>
      <point x="202" y="281"/>
      <point x="96" y="296" type="curve"/>
      <point x="131" y="261" type="line"/>
      <point x="131" y="267" type="line"/>
      <point x="96" y="233" type="line"/>
      <point x="202" y="249"/>
      <point x="238" y="291"/>
      <point x="238" y="340" type="curve" smooth="yes"/>
      <point x="238" y="398"/>
      <point x="168" y="432"/>
      <point x="168" y="499" type="curve" smooth="yes"/>
      <point x="168" y="542"/>
      <point x="224" y="572"/>
      <point x="294" y="572" type="curve" smooth="yes"/>
      <point x="315" y="572" type="line" smooth="yes"/>
      <point x="335" y="572"/>
      <point x="351" y="588"/>
      <point x="351" y="607" type="curve" smooth="yes"/>
      <point x="351" y="626"/>
      <point x="335" y="642"/>
      <point x="315" y="642" type="curve" smooth="yes"/>
      <point x="294" y="642" type="line" smooth="yes"/>
      <point x="157" y="642"/>
      <point x="87" y="569"/>
      <point x="87" y="499" type="curve" smooth="yes"/>
      <point x="87" y="432"/>
      <point x="157" y="398"/>
      <point x="157" y="340" type="curve" smooth="yes"/>
      <point x="157" y="315"/>
      <point x="121" y="308"/>
      <point x="85" y="302" type="curve" smooth="yes"/>
      <point x="66" y="299"/>
      <point x="50" y="283"/>
      <point x="50" y="267" type="curve" smooth="yes"/>
      <point x="50" y="261" type="line" smooth="yes"/>
      <point x="50" y="246"/>
      <point x="66" y="230"/>
      <point x="85" y="227" type="curve" smooth="yes"/>
      <point x="121" y="222"/>
      <point x="157" y="214"/>
      <point x="157" y="190" type="curve" smooth="yes"/>
      <point x="157" y="131"/>
      <point x="87" y="96"/>
      <point x="87" y="30" type="curve" smooth="yes"/>
      <point x="87" y="-39"/>
      <point x="157" y="-113"/>
      <point x="294" y="-113" type="curve" smooth="yes"/>
    </contour>
  </outline>
</glyph>
<glyph name="bar" format="1">
  <advance width="292"/>
  <unicode hex="007C"/>
  <outline>
    <contour>
      <point x="147" y="-114" type="curve" smooth="yes"/>
      <point x="167" y="-114"/>
      <point x="187" y="-98"/>
      <point x="187" y="-78" type="curve" smooth="yes"/>
      <point x="187" y="608" type="line" smooth="yes"/>
      <point x="187" y="627"/>
      <point x="167" y="643"/>
      <point x="147" y="643" type="curve" smooth="yes"/>
      <point x="126" y="643"/>
      <point x="106" y="627"/>
      <point x="106" y="608" type="curve" smooth="yes"/>
      <point x="106" y="-78" type="line" smooth="yes"/>
      <point x="106" y="-98"/>
      <point x="126" y="-114"/>
    </contour>
  </outline>
</glyph>
<glyph name="exclamdown" format="1">
  <advance width="320"/>
  <unicode hex="00A1"/>
  <outline>
    <contour>
      <point x="166" y="-24" type="curve" smooth="yes"/>
      <point x="186" y="-23"/>
      <point x="207" y="-6"/>
      <point x="206" y="12" type="curve" smooth="yes"/>
      <point x="199" y="292" type="line" smooth="yes"/>
      <point x="198" y="312"/>
      <point x="178" y="327"/>
      <point x="158" y="326" type="curve" smooth="yes"/>
      <point x="138" y="326"/>
      <point x="118" y="310"/>
      <point x="118" y="291" type="curve" smooth="yes"/>
      <point x="125" y="11" type="line" smooth="yes"/>
      <point x="126" y="-8"/>
      <point x="146" y="-25"/>
    </contour>
    <contour>
      <point x="159" y="447" type="curve" smooth="yes"/>
      <point x="191" y="447"/>
      <point x="221" y="471"/>
      <point x="221" y="511" type="curve" smooth="yes"/>
      <point x="221" y="561"/>
      <point x="193" y="575"/>
      <point x="160" y="575" type="curve" smooth="yes"/>
      <point x="133" y="575"/>
      <point x="97" y="560"/>
      <point x="97" y="511" type="curve" smooth="yes"/>
      <point x="97" y="469"/>
      <point x="123" y="447"/>
    </contour>
  </outline>
</glyph>
<glyph name="cent" format="1">
  <advance width="432"/>
  <unicode hex="00A2"/>
  <outline>
    <contour>
      <point x="261" y="66" type="curve" smooth="yes"/>
      <point x="309" y="66"/>
      <point x="348" y="74"/>
      <point x="381" y="86" type="curve" smooth="yes"/>
      <point x="399" y="93"/>
      <point x="409" y="114"/>
      <point x="402" y="131" type="curve" smooth="yes"/>
      <point x="395" y="150"/>
      <point x="373" y="159"/>
      <point x="354" y="152" type="curve" smooth="yes"/>
      <point x="329" y="143"/>
      <point x="298" y="136"/>
      <point x="261" y="136" type="curve" smooth="yes"/>
      <point x="164" y="136"/>
      <point x="107" y="187"/>
      <point x="107" y="257" type="curve" smooth="yes"/>
      <point x="107" y="335"/>
      <point x="163" y="394"/>
      <point x="262" y="394" type="curve" smooth="yes"/>
      <point x="288" y="394"/>
      <point x="319" y="388"/>
      <point x="344" y="381" type="curve" smooth="yes"/>
      <point x="362" y="375"/>
      <point x="384" y="386"/>
      <point x="390" y="404" type="curve" smooth="yes"/>
      <point x="395" y="422"/>
      <point x="385" y="442"/>
      <point x="365" y="448" type="curve" smooth="yes"/>
      <point x="334" y="457"/>
      <point x="295" y="464"/>
      <point x="262" y="464" type="curve" smooth="yes"/>
      <point x="112" y="464"/>
      <point x="26" y="376"/>
      <point x="26" y="257" type="curve" smooth="yes"/>
      <point x="26" y="151"/>
      <point x="107" y="66"/>
    </contour>
    <contour>
      <point x="240" y="-12" type="curve" smooth="yes"/>
      <point x="260" y="-12"/>
      <point x="280" y="4"/>
      <point x="280" y="24" type="curve" smooth="yes"/>
      <point x="280" y="510" type="line" smooth="yes"/>
      <point x="280" y="529"/>
      <point x="260" y="545"/>
      <point x="240" y="545" type="curve" smooth="yes"/>
      <point x="219" y="545"/>
      <point x="199" y="529"/>
      <point x="199" y="510" type="curve" smooth="yes"/>
      <point x="199" y="24" type="line" smooth="yes"/>
      <point x="199" y="4"/>
      <point x="219" y="-12"/>
    </contour>
  </outline>
</glyph>
<glyph name="sterling" format="1">
  <advance width="456"/>
  <unicode hex="00A3"/>
  <outline>
    <contour>
      <point x="163" y="76" type="line" smooth="yes"/>
      <point x="204" y="109"/>
      <point x="232" y="154"/>
      <point x="232" y="191" type="curve" smooth="yes"/>
      <point x="232" y="224"/>
      <point x="211" y="266"/>
      <point x="179" y="302" type="curve" smooth="yes"/>
      <point x="146" y="339"/>
      <point x="126" y="366"/>
      <point x="126" y="407" type="curve" smooth="yes"/>
      <point x="126" y="447"/>
      <point x="156" y="485"/>
      <point x="214" y="485" type="curve" smooth="yes"/>
      <point x="254" y="485"/>
      <point x="291" y="473"/>
      <point x="323" y="454" type="curve" smooth="yes"/>
      <point x="340" y="445"/>
      <point x="363" y="450"/>
      <point x="374" y="466" type="curve" smooth="yes"/>
      <point x="384" y="482"/>
      <point x="379" y="504"/>
      <point x="362" y="515" type="curve" smooth="yes"/>
      <point x="320" y="540"/>
      <point x="269" y="555"/>
      <point x="214" y="555" type="curve" smooth="yes"/>
      <point x="105" y="555"/>
      <point x="45" y="482"/>
      <point x="45" y="407" type="curve" smooth="yes"/>
      <point x="45" y="349"/>
      <point x="75" y="309"/>
      <point x="122" y="255" type="curve" smooth="yes"/>
      <point x="140" y="234"/>
      <point x="151" y="210"/>
      <point x="151" y="191" type="curve" smooth="yes"/>
      <point x="151" y="171"/>
      <point x="135" y="148"/>
      <point x="114" y="129" type="curve" smooth="yes"/>
      <point x="33" y="57" type="line" smooth="yes"/>
      <point x="18" y="45"/>
      <point x="17" y="22"/>
      <point x="31" y="8" type="curve" smooth="yes"/>
      <point x="44" y="-5"/>
      <point x="68" y="-7"/>
      <point x="82" y="5" type="curve" smooth="yes"/>
    </contour>
    <contour>
      <point x="378" y="-12" type="line" smooth="yes"/>
      <point x="398" y="-12"/>
      <point x="414" y="4"/>
      <point x="414" y="24" type="curve" smooth="yes"/>
      <point x="414" y="42"/>
      <point x="398" y="58"/>
      <point x="378" y="58" type="curve" smooth="yes"/>
      <point x="48" y="58" type="line" smooth="yes"/>
      <point x="27" y="58"/>
      <point x="11" y="42"/>
      <point x="11" y="24" type="curve" smooth="yes"/>
      <point x="11" y="4"/>
      <point x="27" y="-12"/>
      <point x="48" y="-12" type="curve" smooth="yes"/>
    </contour>
    <contour>
      <point x="368" y="214" type="line" smooth="yes"/>
      <point x="388" y="214"/>
      <point x="404" y="230"/>
      <point x="404" y="250" type="curve" smooth="yes"/>
      <point x="404" y="269"/>
      <point x="388" y="285"/>
      <point x="368" y="285" type="curve" smooth="yes"/>
      <point x="54" y="285" type="line" smooth="yes"/>
      <point x="33" y="285"/>
      <point x="17" y="269"/>
      <point x="17" y="250" type="curve" smooth="yes"/>
      <point x="17" y="230"/>
      <point x="33" y="214"/>
      <point x="54" y="214" type="curve" smooth="yes"/>
    </contour>
  </outline>
</glyph>
<glyph name="yen" format="1">
  <advance width="565"/>
  <unicode hex="00A5"/>
  <outline>
    <contour>
      <point x="309" y="247" type="curve" smooth="yes"/>
      <point x="349" y="281"/>
      <point x="423" y="364"/>
      <point x="461" y="415" type="curve" smooth="yes"/>
      <point x="487" y="444"/>
      <point x="513" y="500"/>
      <point x="514" y="531" type="curve" smooth="yes"/>
      <point x="503" y="543"/>
      <point x="481" y="545"/>
      <point x="469" y="533" type="curve" smooth="yes"/>
      <point x="432" y="489"/>
      <point x="362" y="408"/>
      <point x="324" y="372" type="curve" smooth="yes"/>
      <point x="296" y="339"/>
      <point x="268" y="283"/>
      <point x="265" y="256" type="curve" smooth="yes"/>
      <point x="274" y="243"/>
      <point x="294" y="238"/>
    </contour>
    <contour>
      <point x="473" y="91" type="line" smooth="yes"/>
      <point x="493" y="91"/>
      <point x="509" y="106"/>
      <point x="509" y="126" type="curve" smooth="yes"/>
      <point x="509" y="145"/>
      <point x="493" y="160"/>
      <point x="473" y="160" type="curve" smooth="yes"/>
      <point x="108" y="160" type="line" smooth="yes"/>
      <point x="87" y="160"/>
      <point x="71" y="145"/>
      <point x="71" y="126" type="curve" smooth="yes"/>
      <point x="71" y="106"/>
      <point x="87" y="91"/>
      <point x="108" y="91" type="curve" smooth="yes"/>
    </contour>
    <contour>
      <point x="291" y="-12" type="curve" smooth="yes"/>
      <point x="311" y="-12"/>
      <point x="331" y="4"/>
      <point x="331" y="24" type="curve" smooth="yes"/>
      <point x="331" y="266" type="line" smooth="yes"/>
      <point x="331" y="286"/>
      <point x="311" y="302"/>
      <point x="291" y="302" type="curve" smooth="yes"/>
      <point x="270" y="302"/>
      <point x="250" y="286"/>
      <point x="250" y="266" type="curve" smooth="yes"/>
      <point x="250" y="24" type="line" smooth="yes"/>
      <point x="250" y="4"/>
      <point x="270" y="-12"/>
    </contour>
    <contour>
      <point x="473" y="234" type="line" smooth="yes"/>
      <point x="493" y="234"/>
      <point x="509" y="250"/>
      <point x="509" y="268" type="curve" smooth="yes"/>
      <point x="509" y="288"/>
      <point x="493" y="304"/>
      <point x="473" y="304" type="curve" smooth="yes"/>
      <point x="108" y="304" type="line" smooth="yes"/>
      <point x="87" y="304"/>
      <point x="71" y="288"/>
      <point x="71" y="268" type="curve" smooth="yes"/>
      <point x="71" y="250"/>
      <point x="87" y="234"/>
      <point x="108" y="234" type="curve" smooth="yes"/>
    </contour>
    <contour>
      <point x="262" y="258" type="curve" smooth="yes"/>
      <point x="276" y="244"/>
      <point x="300" y="245"/>
      <point x="314" y="258" type="curve" smooth="yes"/>
      <point x="328" y="272"/>
      <point x="328" y="295"/>
      <point x="313" y="309" type="curve" smooth="yes"/>
      <point x="274" y="345"/>
      <point x="168" y="463"/>
      <point x="118" y="532" type="curve" smooth="yes"/>
      <point x="106" y="548"/>
      <point x="81" y="551"/>
      <point x="66" y="540" type="curve" smooth="yes"/>
      <point x="49" y="529"/>
      <point x="44" y="506"/>
      <point x="55" y="491" type="curve" smooth="yes"/>
      <point x="108" y="419"/>
      <point x="221" y="296"/>
    </contour>
  </outline>
</glyph>
<glyph name="brokenbar" format="1">
  <advance width="292"/>
  <unicode hex="00A6"/>
  <outline>
    <contour>
      <point x="147" y="277" type="curve" smooth="yes"/>
      <point x="167" y="277"/>
      <point x="187" y="293"/>
      <point x="187" y="312" type="curve" smooth="yes"/>
      <point x="187" y="540" type="line" smooth="yes"/>
      <point x="187" y="559"/>
      <point x="167" y="575"/>
      <point x="147" y="575" type="curve" smooth="yes"/>
      <point x="126" y="575"/>
      <point x="106" y="559"/>
      <point x="106" y="540" type="curve" smooth="yes"/>
      <point x="106" y="312" type="line" smooth="yes"/>
      <point x="106" y="293"/>
      <point x="126" y="277"/>
    </contour>
    <contour>
      <point x="147" y="-112" type="curve" smooth="yes"/>
      <point x="167" y="-112"/>
      <point x="187" y="-96"/>
      <point x="187" y="-76" type="curve" smooth="yes"/>
      <point x="187" y="152" type="line" smooth="yes"/>
      <point x="187" y="171"/>
      <point x="167" y="187"/>
      <point x="147" y="187" type="curve" smooth="yes"/>
      <point x="126" y="187"/>
      <point x="106" y="171"/>
      <point x="106" y="152" type="curve" smooth="yes"/>
      <point x="106" y="-76" type="line" smooth="yes"/>
      <point x="106" y="-96"/>
      <point x="126" y="-112"/>
    </contour>
  </outline>
</glyph>
<glyph name="ordfeminine" format="1">
  <advance width="443"/>
  <unicode hex="00AA"/>
  <outline>
    <contour>
      <point x="354" y="251" type="curve" smooth="yes"/>
      <point x="368" y="263"/>
      <point x="370" y="285"/>
      <point x="356" y="299" type="curve" smooth="yes"/>
      <point x="345" y="312"/>
      <point x="341" y="328"/>
      <point x="341" y="353" type="curve" smooth="yes"/>
      <point x="341" y="413" type="line" smooth="yes"/>
      <point x="341" y="489"/>
      <point x="299" y="542"/>
      <point x="208" y="542" type="curve" smooth="yes"/>
      <point x="179" y="542"/>
      <point x="149" y="534"/>
      <point x="131" y="529" type="curve" smooth="yes"/>
      <point x="112" y="523"/>
      <point x="101" y="503"/>
      <point x="107" y="485" type="curve" smooth="yes"/>
      <point x="113" y="468"/>
      <point x="134" y="458"/>
      <point x="152" y="463" type="curve" smooth="yes"/>
      <point x="166" y="467"/>
      <point x="188" y="473"/>
      <point x="208" y="473" type="curve" smooth="yes"/>
      <point x="250" y="473"/>
      <point x="268" y="444"/>
      <point x="268" y="413" type="curve" smooth="yes"/>
      <point x="268" y="353" type="line" smooth="yes"/>
      <point x="268" y="305"/>
      <point x="281" y="277"/>
      <point x="303" y="254" type="curve" smooth="yes"/>
      <point x="315" y="239"/>
      <point x="339" y="238"/>
    </contour>
    <contour>
      <point x="363" y="127" type="line" smooth="yes"/>
      <point x="382" y="127"/>
      <point x="399" y="143"/>
      <point x="399" y="161" type="curve" smooth="yes"/>
      <point x="399" y="180"/>
      <point x="382" y="195"/>
      <point x="363" y="195" type="curve" smooth="yes"/>
      <point x="92" y="195" type="line" smooth="yes"/>
      <point x="72" y="195"/>
      <point x="55" y="180"/>
      <point x="55" y="161" type="curve" smooth="yes"/>
      <point x="55" y="143"/>
      <point x="72" y="127"/>
      <point x="92" y="127" type="curve" smooth="yes"/>
    </contour>
    <contour>
      <point x="177" y="242" type="curve" smooth="yes"/>
      <point x="242" y="242"/>
      <point x="290" y="267"/>
      <point x="332" y="322" type="curve" smooth="yes"/>
      <point x="344" y="336"/>
      <point x="342" y="357"/>
      <point x="326" y="368" type="curve" smooth="yes"/>
      <point x="310" y="379"/>
      <point x="289" y="376"/>
      <point x="278" y="361" type="curve" smooth="yes"/>
      <point x="251" y="326"/>
      <point x="218" y="310"/>
      <point x="177" y="310" type="curve" smooth="yes"/>
      <point x="155" y="310"/>
      <point x="145" y="322"/>
      <point x="145" y="333" type="curve" smooth="yes"/>
      <point x="145" y="342"/>
      <point x="147" y="348"/>
      <point x="155" y="355" type="curve" smooth="yes"/>
      <point x="170" y="368"/>
      <point x="195" y="377"/>
      <point x="237" y="377" type="curve" smooth="yes"/>
      <point x="257" y="377"/>
      <point x="278" y="375"/>
      <point x="301" y="374" type="curve" smooth="yes"/>
      <point x="320" y="373"/>
      <point x="338" y="386"/>
      <point x="339" y="405" type="curve" smooth="yes"/>
      <point x="339" y="423"/>
      <point x="324" y="436"/>
      <point x="304" y="437" type="curve" smooth="yes"/>
      <point x="280" y="438"/>
      <point x="258" y="440"/>
      <point x="237" y="440" type="curve" smooth="yes"/>
      <point x="172" y="440"/>
      <point x="132" y="425"/>
      <point x="104" y="401" type="curve" smooth="yes"/>
      <point x="79" y="378"/>
      <point x="72" y="358"/>
      <point x="72" y="331" type="curve" smooth="yes"/>
      <point x="72" y="294"/>
      <point x="97" y="242"/>
    </contour>
  </outline>
</glyph>
<glyph name="guillemotleft" format="1">
  <advance width="437"/>
  <unicode hex="00AB"/>
  <outline>
    <contour>
      <point x="380" y="14" type="curve" smooth="yes"/>
      <point x="396" y="26"/>
      <point x="401" y="49"/>
      <point x="389" y="63" type="curve" smooth="yes"/>
      <point x="272" y="216" type="line" smooth="yes"/>
      <point x="261" y="230"/>
      <point x="236" y="234"/>
      <point x="220" y="221" type="curve" smooth="yes"/>
      <point x="204" y="211"/>
      <point x="199" y="188"/>
      <point x="211" y="172" type="curve" smooth="yes"/>
      <point x="328" y="21" type="line" smooth="yes"/>
      <point x="339" y="5"/>
      <point x="364" y="3"/>
    </contour>
    <contour>
      <point x="201" y="14" type="curve" smooth="yes"/>
      <point x="217" y="26"/>
      <point x="222" y="49"/>
      <point x="210" y="63" type="curve" smooth="yes"/>
      <point x="94" y="216" type="line" smooth="yes"/>
      <point x="83" y="230"/>
      <point x="58" y="234"/>
      <point x="42" y="221" type="curve" smooth="yes"/>
      <point x="26" y="211"/>
      <point x="21" y="188"/>
      <point x="33" y="172" type="curve" smooth="yes"/>
      <point x="149" y="21" type="line" smooth="yes"/>
      <point x="160" y="5"/>
      <point x="185" y="3"/>
    </contour>
    <contour>
      <point x="42" y="170" type="curve" smooth="yes"/>
      <point x="58" y="159"/>
      <point x="83" y="163"/>
      <point x="94" y="177" type="curve" smooth="yes"/>
      <point x="210" y="329" type="line" smooth="yes"/>
      <point x="222" y="344"/>
      <point x="217" y="367"/>
      <point x="201" y="378" type="curve" smooth="yes"/>
      <point x="185" y="390"/>
      <point x="160" y="386"/>
      <point x="149" y="372" type="curve" smooth="yes"/>
      <point x="33" y="220" type="line" smooth="yes"/>
      <point x="21" y="205"/>
      <point x="26" y="182"/>
    </contour>
    <contour>
      <point x="220" y="170" type="curve" smooth="yes"/>
      <point x="236" y="159"/>
      <point x="261" y="163"/>
      <point x="272" y="177" type="curve" smooth="yes"/>
      <point x="389" y="329" type="line" smooth="yes"/>
      <point x="401" y="344"/>
      <point x="396" y="367"/>
      <point x="380" y="378" type="curve" smooth="yes"/>
      <point x="364" y="390"/>
      <point x="339" y="386"/>
      <point x="328" y="372" type="curve" smooth="yes"/>
      <point x="211" y="220" type="line" smooth="yes"/>
      <point x="199" y="205"/>
      <point x="204" y="182"/>
    </contour>
  </outline>
</glyph>
<glyph name="registered" format="1">
  <advance width="565"/>
  <unicode hex="00AE"/>
  <outline>
    <contour>
      <point x="287" y="166" type="curve" smooth="yes"/>
      <point x="426" y="166"/>
      <point x="530" y="265"/>
      <point x="530" y="399" type="curve" smooth="yes"/>
      <point x="530" y="531"/>
      <point x="429" y="630"/>
      <point x="280" y="630" type="curve" smooth="yes"/>
      <point x="138" y="630"/>
      <point x="41" y="537"/>
      <point x="41" y="402" type="curve" smooth="yes"/>
      <point x="41" y="275"/>
      <point x="138" y="166"/>
    </contour>
    <contour>
      <point x="386" y="287" type="curve" smooth="yes"/>
      <point x="401" y="298"/>
      <point x="403" y="321"/>
      <point x="389" y="334" type="curve" smooth="yes"/>
      <point x="339" y="388" type="line" smooth="yes"/>
      <point x="327" y="403"/>
      <point x="303" y="404"/>
      <point x="289" y="392" type="curve" smooth="yes"/>
      <point x="274" y="380"/>
      <point x="272" y="358"/>
      <point x="286" y="344" type="curve" smooth="yes"/>
      <point x="336" y="289" type="line" smooth="yes"/>
      <point x="348" y="275"/>
      <point x="372" y="273"/>
    </contour>
    <contour>
      <point x="287" y="235" type="curve" smooth="yes"/>
      <point x="181" y="235"/>
      <point x="114" y="312"/>
      <point x="114" y="402" type="curve" smooth="yes"/>
      <point x="114" y="496"/>
      <point x="181" y="562"/>
      <point x="280" y="562" type="curve" smooth="yes"/>
      <point x="384" y="562"/>
      <point x="457" y="493"/>
      <point x="457" y="399" type="curve" smooth="yes"/>
      <point x="457" y="305"/>
      <point x="385" y="235"/>
    </contour>
    <contour>
      <point x="225" y="277" type="curve" smooth="yes"/>
      <point x="244" y="277"/>
      <point x="261" y="293"/>
      <point x="261" y="312" type="curve" smooth="yes"/>
      <point x="261" y="488" type="line"/>
      <point x="225" y="454" type="line"/>
      <point x="285" y="454" type="line" smooth="yes"/>
      <point x="299" y="454"/>
      <point x="314" y="448"/>
      <point x="314" y="432" type="curve" smooth="yes"/>
      <point x="314" y="418"/>
      <point x="303" y="407"/>
      <point x="285" y="407" type="curve" smooth="yes"/>
      <point x="236" y="407" type="line" smooth="yes"/>
      <point x="216" y="407"/>
      <point x="199" y="391"/>
      <point x="199" y="373" type="curve" smooth="yes"/>
      <point x="199" y="355"/>
      <point x="216" y="339"/>
      <point x="236" y="339" type="curve" smooth="yes"/>
      <point x="285" y="339" type="line" smooth="yes"/>
      <point x="356" y="339"/>
      <point x="387" y="383"/>
      <point x="387" y="432" type="curve" smooth="yes"/>
      <point x="387" y="486"/>
      <point x="350" y="522"/>
      <point x="285" y="522" type="curve" smooth="yes"/>
      <point x="225" y="522" type="line" smooth="yes"/>
      <point x="204" y="522"/>
      <point x="188" y="507"/>
      <point x="188" y="488" type="curve" smooth="yes"/>
      <point x="188" y="312" type="line" smooth="yes"/>
      <point x="188" y="293"/>
      <point x="205" y="277"/>
    </contour>
  </outline>
</glyph>
<glyph name="degree" format="1">
  <advance width="439"/>
  <unicode hex="00B0"/>
  <outline>
    <contour>
      <point x="220" y="200" type="curve" smooth="yes"/>
      <point x="328" y="200"/>
      <point x="407" y="274"/>
      <point x="407" y="370" type="curve" smooth="yes"/>
      <point x="407" y="471"/>
      <point x="327" y="546"/>
      <point x="219" y="546" type="curve" smooth="yes"/>
      <point x="109" y="546"/>
      <point x="32" y="468"/>
      <point x="32" y="370" type="curve" smooth="yes"/>
      <point x="32" y="275"/>
      <point x="110" y="200"/>
    </contour>
    <contour>
      <point x="220" y="270" type="curve" smooth="yes"/>
      <point x="155" y="270"/>
      <point x="113" y="316"/>
      <point x="113" y="370" type="curve" smooth="yes"/>
      <point x="113" y="426"/>
      <point x="152" y="476"/>
      <point x="219" y="476" type="curve" smooth="yes"/>
      <point x="284" y="476"/>
      <point x="326" y="429"/>
      <point x="326" y="370" type="curve" smooth="yes"/>
      <point x="326" y="315"/>
      <point x="283" y="270"/>
    </contour>
  </outline>
</glyph>
<glyph name="plusminus" format="1">
  <advance width="534"/>
  <unicode hex="00B1"/>
  <outline>
    <contour>
      <point x="444" y="295" type="line" smooth="yes"/>
      <point x="464" y="295"/>
      <point x="480" y="311"/>
      <point x="480" y="330" type="curve" smooth="yes"/>
      <point x="480" y="349"/>
      <point x="464" y="365"/>
      <point x="444" y="365" type="curve" smooth="yes"/>
      <point x="90" y="365" type="line" smooth="yes"/>
      <point x="69" y="365"/>
      <point x="53" y="349"/>
      <point x="53" y="330" type="curve" smooth="yes"/>
      <point x="53" y="311"/>
      <point x="69" y="295"/>
      <point x="90" y="295" type="curve" smooth="yes"/>
    </contour>
    <contour>
      <point x="444" y="47" type="line" smooth="yes"/>
      <point x="464" y="47"/>
      <point x="480" y="64"/>
      <point x="480" y="83" type="curve" smooth="yes"/>
      <point x="480" y="102"/>
      <point x="464" y="118"/>
      <point x="444" y="118" type="curve" smooth="yes"/>
      <point x="90" y="118" type="line" smooth="yes"/>
      <point x="69" y="118"/>
      <point x="53" y="102"/>
      <point x="53" y="83" type="curve" smooth="yes"/>
      <point x="53" y="64"/>
      <point x="69" y="47"/>
      <point x="90" y="47" type="curve" smooth="yes"/>
    </contour>
    <contour>
      <point x="267" y="175" type="curve" smooth="yes"/>
      <point x="287" y="175"/>
      <point x="307" y="192"/>
      <point x="307" y="210" type="curve" smooth="yes"/>
      <point x="307" y="450" type="line" smooth="yes"/>
      <point x="307" y="469"/>
      <point x="287" y="484"/>
      <point x="267" y="484" type="curve" smooth="yes"/>
      <point x="246" y="484"/>
      <point x="226" y="469"/>
      <point x="226" y="450" type="curve" smooth="yes"/>
      <point x="226" y="210" type="line" smooth="yes"/>
      <point x="226" y="192"/>
      <point x="246" y="175"/>
    </contour>
  </outline>
</glyph>
<glyph name="twosuperior" format="1">
  <advance width="350"/>
  <unicode hex="00B2"/>
  <outline>
    <contour>
      <point x="202" y="318" type="line" smooth="yes"/>
      <point x="277" y="386"/>
      <point x="294" y="413"/>
      <point x="294" y="452" type="curve" smooth="yes"/>
      <point x="294" y="496"/>
      <point x="264" y="546"/>
      <point x="179" y="546" type="curve" smooth="yes"/>
      <point x="141" y="546"/>
      <point x="110" y="536"/>
      <point x="77" y="516" type="curve" smooth="yes"/>
      <point x="61" y="505"/>
      <point x="56" y="484"/>
      <point x="67" y="468" type="curve" smooth="yes"/>
      <point x="78" y="453"/>
      <point x="101" y="448"/>
      <point x="118" y="458" type="curve" smooth="yes"/>
      <point x="137" y="471"/>
      <point x="156" y="477"/>
      <point x="179" y="477" type="curve" smooth="yes"/>
      <point x="202" y="477"/>
      <point x="221" y="469"/>
      <point x="221" y="452" type="curve" smooth="yes"/>
      <point x="221" y="425"/>
      <point x="200" y="410"/>
      <point x="153" y="367" type="curve" smooth="yes"/>
      <point x="60" y="284" type="line" smooth="yes"/>
      <point x="46" y="272"/>
      <point x="45" y="250"/>
      <point x="58" y="235" type="curve" smooth="yes"/>
      <point x="71" y="222"/>
      <point x="95" y="222"/>
      <point x="109" y="234" type="curve" smooth="yes"/>
    </contour>
    <contour>
      <point x="278" y="220" type="line" smooth="yes"/>
      <point x="297" y="220"/>
      <point x="314" y="235"/>
      <point x="314" y="254" type="curve" smooth="yes"/>
      <point x="314" y="273"/>
      <point x="297" y="288"/>
      <point x="278" y="288" type="curve" smooth="yes"/>
      <point x="79" y="288" type="line" smooth="yes"/>
      <point x="59" y="288"/>
      <point x="42" y="273"/>
      <point x="42" y="254" type="curve" smooth="yes"/>
      <point x="42" y="235"/>
      <point x="59" y="220"/>
      <point x="79" y="220" type="curve" smooth="yes"/>
    </contour>
  </outline>
</glyph>
<glyph name="periodcentered" format="1">
  <advance width="213"/>
  <unicode hex="00B7"/>
  <outline>
    <contour>
      <point x="109" y="158" type="curve" smooth="yes"/>
      <point x="140" y="158"/>
      <point x="170" y="171"/>
      <point x="170" y="222" type="curve" smooth="yes"/>
      <point x="170" y="262"/>
      <point x="139" y="286"/>
      <point x="108" y="286" type="curve" smooth="yes"/>
      <point x="72" y="286"/>
      <point x="46" y="263"/>
      <point x="46" y="222" type="curve" smooth="yes"/>
      <point x="46" y="173"/>
      <point x="80" y="158"/>
    </contour>
  </outline>
</glyph>
<glyph name="onesuperior" format="1">
  <advance width="221"/>
  <unicode hex="00B9"/>
  <outline>
    <contour>
      <point x="135" y="218" type="curve" smooth="yes"/>
      <point x="154" y="218"/>
      <point x="171" y="233"/>
      <point x="171" y="253" type="curve" smooth="yes"/>
      <point x="171" y="512" type="line" smooth="yes"/>
      <point x="171" y="531"/>
      <point x="154" y="547"/>
      <point x="135" y="547" type="curve" smooth="yes"/>
      <point x="115" y="547"/>
      <point x="98" y="531"/>
      <point x="98" y="512" type="curve" smooth="yes"/>
      <point x="98" y="253" type="line" smooth="yes"/>
      <point x="98" y="233"/>
      <point x="115" y="218"/>
    </contour>
    <contour>
      <point x="152" y="485" type="line" smooth="yes"/>
      <point x="169" y="495"/>
      <point x="176" y="516"/>
      <point x="167" y="533" type="curve" smooth="yes"/>
      <point x="157" y="549"/>
      <point x="135" y="555"/>
      <point x="117" y="547" type="curve" smooth="yes"/>
      <point x="31" y="502" type="line" smooth="yes"/>
      <point x="14" y="492"/>
      <point x="7" y="471"/>
      <point x="17" y="454" type="curve" smooth="yes"/>
      <point x="26" y="438"/>
      <point x="49" y="432"/>
      <point x="66" y="440" type="curve" smooth="yes"/>
    </contour>
  </outline>
</glyph>
<glyph name="ordmasculine" format="1">
  <advance width="437"/>
  <unicode hex="00BA"/>
  <outline>
    <contour>
      <point x="219" y="243" type="curve" smooth="yes"/>
      <point x="312" y="243"/>
      <point x="374" y="307"/>
      <point x="374" y="391" type="curve" smooth="yes"/>
      <point x="374" y="472"/>
      <point x="312" y="542"/>
      <point x="219" y="542" type="curve" smooth="yes"/>
      <point x="122" y="542"/>
      <point x="62" y="472"/>
      <point x="62" y="391" type="curve" smooth="yes"/>
      <point x="62" y="307"/>
      <point x="125" y="243"/>
    </contour>
    <contour>
      <point x="353" y="127" type="line" smooth="yes"/>
      <point x="372" y="127"/>
      <point x="389" y="143"/>
      <point x="389" y="161" type="curve" smooth="yes"/>
      <point x="389" y="180"/>
      <point x="372" y="195"/>
      <point x="353" y="195" type="curve" smooth="yes"/>
      <point x="92" y="195" type="line" smooth="yes"/>
      <point x="72" y="195"/>
      <point x="55" y="180"/>
      <point x="55" y="161" type="curve" smooth="yes"/>
      <point x="55" y="143"/>
      <point x="72" y="127"/>
      <point x="92" y="127" type="curve" smooth="yes"/>
    </contour>
    <contour>
      <point x="219" y="311" type="curve" smooth="yes"/>
      <point x="168" y="311"/>
      <point x="135" y="345"/>
      <point x="135" y="391" type="curve" smooth="yes"/>
      <point x="135" y="434"/>
      <point x="165" y="473"/>
      <point x="219" y="473" type="curve" smooth="yes"/>
      <point x="269" y="473"/>
      <point x="301" y="434"/>
      <point x="301" y="391" type="curve" smooth="yes"/>
      <point x="301" y="345"/>
      <point x="269" y="311"/>
    </contour>
  </outline>
</glyph>
<glyph name="guillemotright" format="1">
  <advance width="437"/>
  <unicode hex="00BB"/>
  <outline>
    <contour>
      <point x="57" y="14" type="curve" smooth="yes"/>
      <point x="73" y="3"/>
      <point x="98" y="5"/>
      <point x="109" y="21" type="curve" smooth="yes"/>
      <point x="226" y="172" type="line" smooth="yes"/>
      <point x="238" y="188"/>
      <point x="233" y="211"/>
      <point x="217" y="221" type="curve" smooth="yes"/>
      <point x="201" y="234"/>
      <point x="176" y="230"/>
      <point x="165" y="216" type="curve" smooth="yes"/>
      <point x="48" y="63" type="line" smooth="yes"/>
      <point x="36" y="49"/>
      <point x="41" y="26"/>
    </contour>
    <contour>
      <point x="217" y="170" type="curve" smooth="yes"/>
      <point x="233" y="182"/>
      <point x="238" y="205"/>
      <point x="226" y="220" type="curve" smooth="yes"/>
      <point x="109" y="372" type="line" smooth="yes"/>
      <point x="98" y="386"/>
      <point x="73" y="390"/>
      <point x="57" y="378" type="curve" smooth="yes"/>
      <point x="41" y="367"/>
      <point x="36" y="344"/>
      <point x="48" y="329" type="curve" smooth="yes"/>
      <point x="165" y="177" type="line" smooth="yes"/>
      <point x="176" y="163"/>
      <point x="201" y="159"/>
    </contour>
    <contour>
      <point x="236" y="14" type="curve" smooth="yes"/>
      <point x="252" y="3"/>
      <point x="277" y="5"/>
      <point x="288" y="21" type="curve" smooth="yes"/>
      <point x="404" y="172" type="line" smooth="yes"/>
      <point x="416" y="188"/>
      <point x="411" y="211"/>
      <point x="395" y="221" type="curve" smooth="yes"/>
      <point x="379" y="234"/>
      <point x="354" y="230"/>
      <point x="343" y="216" type="curve" smooth="yes"/>
      <point x="227" y="63" type="line" smooth="yes"/>
      <point x="215" y="49"/>
      <point x="220" y="26"/>
    </contour>
    <contour>
      <point x="395" y="170" type="curve" smooth="yes"/>
      <point x="411" y="182"/>
      <point x="416" y="205"/>
      <point x="404" y="220" type="curve" smooth="yes"/>
      <point x="288" y="372" type="line" smooth="yes"/>
      <point x="277" y="386"/>
      <point x="252" y="390"/>
      <point x="236" y="378" type="curve" smooth="yes"/>
      <point x="220" y="367"/>
      <point x="215" y="344"/>
      <point x="227" y="329" type="curve" smooth="yes"/>
      <point x="343" y="177" type="line" smooth="yes"/>
      <point x="354" y="163"/>
      <point x="379" y="159"/>
    </contour>
  </outline>
</glyph>
<glyph name="AE" format="1">
  <advance width="770"/>
  <unicode hex="00C6"/>
  <outline>
    <contour>
      <point x="13" y="-6" type="curve" smooth="yes"/>
      <point x="30" y="-17"/>
      <point x="55" y="-13"/>
      <point x="66" y="3" type="curve" smooth="yes"/>
      <point x="152" y="130"/>
      <point x="285" y="322"/>
      <point x="393" y="493" type="curve" smooth="yes"/>
      <point x="404" y="509"/>
      <point x="397" y="531"/>
      <point x="380" y="541" type="curve" smooth="yes"/>
      <point x="363" y="551"/>
      <point x="338" y="546"/>
      <point x="328" y="530" type="curve" smooth="yes"/>
      <point x="220" y="360"/>
      <point x="87" y="169"/>
      <point x="1" y="43" type="curve" smooth="yes"/>
      <point x="-10" y="28"/>
      <point x="-3" y="4"/>
    </contour>
    <contour>
      <point x="401" y="134" type="line" smooth="yes"/>
      <point x="421" y="134"/>
      <point x="437" y="150"/>
      <point x="437" y="169" type="curve" smooth="yes"/>
      <point x="437" y="188"/>
      <point x="421" y="204"/>
      <point x="401" y="204" type="curve" smooth="yes"/>
      <point x="139" y="204" type="line" smooth="yes"/>
      <point x="118" y="204"/>
      <point x="102" y="188"/>
      <point x="102" y="169" type="curve" smooth="yes"/>
      <point x="102" y="150"/>
      <point x="118" y="134"/>
      <point x="139" y="134" type="curve" smooth="yes"/>
    </contour>
    <contour>
      <point x="695" y="-12" type="line" smooth="yes"/>
      <point x="715" y="-12"/>
      <point x="731" y="4"/>
      <point x="731" y="24" type="curve" smooth="yes"/>
      <point x="731" y="42"/>
      <point x="715" y="58"/>
      <point x="695" y="58" type="curve" smooth="yes"/>
      <point x="411" y="58" type="line" smooth="yes"/>
      <point x="390" y="58"/>
      <point x="374" y="42"/>
      <point x="374" y="24" type="curve" smooth="yes"/>
      <point x="374" y="4"/>
      <point x="390" y="-12"/>
      <point x="411" y="-12" type="curve" smooth="yes"/>
    </contour>
    <contour>
      <point x="402" y="-12" type="curve" smooth="yes"/>
      <point x="422" y="-12"/>
      <point x="442" y="4"/>
      <point x="442" y="24" type="curve" smooth="yes"/>
      <point x="442" y="511" type="line" smooth="yes"/>
      <point x="442" y="530"/>
      <point x="422" y="546"/>
      <point x="402" y="546" type="curve" smooth="yes"/>
      <point x="381" y="546"/>
      <point x="361" y="530"/>
      <point x="361" y="511" type="curve" smooth="yes"/>
      <point x="361" y="24" type="line" smooth="yes"/>
      <point x="361" y="4"/>
      <point x="381" y="-12"/>
    </contour>
    <contour>
      <point x="648" y="251" type="line" smooth="yes"/>
      <point x="668" y="251"/>
      <point x="684" y="266"/>
      <point x="684" y="286" type="curve" smooth="yes"/>
      <point x="684" y="305"/>
      <point x="668" y="320"/>
      <point x="648" y="320" type="curve" smooth="yes"/>
      <point x="411" y="320" type="line" smooth="yes"/>
      <point x="390" y="320"/>
      <point x="374" y="305"/>
      <point x="374" y="286" type="curve" smooth="yes"/>
      <point x="374" y="266"/>
      <point x="390" y="251"/>
      <point x="411" y="251" type="curve" smooth="yes"/>
    </contour>
    <contour>
      <point x="420" y="476" type="line" smooth="yes"/>
      <point x="440" y="476"/>
      <point x="456" y="492"/>
      <point x="456" y="511" type="curve" smooth="yes"/>
      <point x="456" y="530"/>
      <point x="440" y="546"/>
      <point x="420" y="546" type="curve" smooth="yes"/>
      <point x="366" y="546" type="line" smooth="yes"/>
      <point x="345" y="546"/>
      <point x="329" y="530"/>
      <point x="329" y="511" type="curve" smooth="yes"/>
      <point x="329" y="492"/>
      <point x="345" y="476"/>
      <point x="366" y="476" type="curve" smooth="yes"/>
    </contour>
    <contour>
      <point x="693" y="476" type="line" smooth="yes"/>
      <point x="713" y="476"/>
      <point x="729" y="492"/>
      <point x="729" y="511" type="curve" smooth="yes"/>
      <point x="729" y="530"/>
      <point x="713" y="546"/>
      <point x="693" y="546" type="curve" smooth="yes"/>
      <point x="411" y="546" type="line" smooth="yes"/>
      <point x="390" y="546"/>
      <point x="374" y="530"/>
      <point x="374" y="511" type="curve" smooth="yes"/>
      <point x="374" y="492"/>
      <point x="390" y="476"/>
      <point x="411" y="476" type="curve" smooth="yes"/>
    </contour>
  </outline>
</glyph>
<glyph name="Eth" format="1">
  <advance width="635"/>
  <unicode hex="00D0"/>
  <outline>
    <contour>
      <point x="319" y="-12" type="line" smooth="yes"/>
      <point x="485" y="-12"/>
      <point x="598" y="109"/>
      <point x="598" y="267" type="curve" smooth="yes"/>
      <point x="598" y="435"/>
      <point x="464" y="546"/>
      <point x="319" y="546" type="curve" smooth="yes"/>
      <point x="134" y="546" type="line" smooth="yes"/>
      <point x="112" y="546"/>
      <point x="94" y="530"/>
      <point x="94" y="511" type="curve" smooth="yes"/>
      <point x="94" y="24" type="line" smooth="yes"/>
      <point x="94" y="4"/>
      <point x="112" y="-12"/>
      <point x="134" y="-12" type="curve" smooth="yes"/>
    </contour>
    <contour>
      <point x="315" y="236" type="line" smooth="yes"/>
      <point x="335" y="236"/>
      <point x="351" y="253"/>
      <point x="351" y="271" type="curve" smooth="yes"/>
      <point x="351" y="290"/>
      <point x="335" y="307"/>
      <point x="315" y="307" type="curve" smooth="yes"/>
      <point x="56" y="307" type="line" smooth="yes"/>
      <point x="35" y="307"/>
      <point x="19" y="290"/>
      <point x="19" y="271" type="curve" smooth="yes"/>
      <point x="19" y="253"/>
      <point x="35" y="236"/>
      <point x="56" y="236" type="curve" smooth="yes"/>
    </contour>
    <contour>
      <point x="175" y="511" type="line"/>
      <point x="134" y="476" type="line"/>
      <point x="319" y="476" type="line" smooth="yes"/>
      <point x="427" y="476"/>
      <point x="517" y="386"/>
      <point x="517" y="267" type="curve" smooth="yes"/>
      <point x="517" y="154"/>
      <point x="443" y="58"/>
      <point x="319" y="58" type="curve" smooth="yes"/>
      <point x="134" y="58" type="line"/>
      <point x="175" y="24" type="line"/>
    </contour>
  </outline>
</glyph>
<glyph name="multiply" format="1">
  <advance width="534"/>
  <unicode hex="00D7"/>
  <outline>
    <contour>
      <point x="78" y="98" type="curve" smooth="yes"/>
      <point x="92" y="85"/>
      <point x="116" y="84"/>
      <point x="130" y="98" type="curve" smooth="yes"/>
      <point x="430" y="375" type="line" smooth="yes"/>
      <point x="445" y="387"/>
      <point x="445" y="410"/>
      <point x="431" y="424" type="curve" smooth="yes"/>
      <point x="417" y="438"/>
      <point x="393" y="439"/>
      <point x="379" y="425" type="curve" smooth="yes"/>
      <point x="79" y="149" type="line" smooth="yes"/>
      <point x="64" y="135"/>
      <point x="64" y="113"/>
    </contour>
    <contour>
      <point x="383" y="98" type="line" smooth="yes"/>
      <point x="397" y="84"/>
      <point x="421" y="85"/>
      <point x="435" y="99" type="curve" smooth="yes"/>
      <point x="449" y="113"/>
      <point x="449" y="135"/>
      <point x="434" y="149" type="curve" smooth="yes"/>
      <point x="134" y="424" type="line" smooth="yes"/>
      <point x="120" y="438"/>
      <point x="96" y="437"/>
      <point x="82" y="423" type="curve" smooth="yes"/>
      <point x="68" y="410"/>
      <point x="68" y="386"/>
      <point x="83" y="374" type="curve" smooth="yes"/>
    </contour>
  </outline>
</glyph>
<glyph name="germandbls" format="1">
  <advance width="511"/>
  <unicode hex="00DF"/>
  <outline>
    <contour>
      <point x="111" y="-13" type="curve" smooth="yes"/>
      <point x="131" y="-13"/>
      <point x="151" y="3"/>
      <point x="151" y="23" type="curve" smooth="yes"/>
      <point x="151" y="435" type="line" smooth="yes"/>
      <point x="151" y="485"/>
      <point x="176" y="527"/>
      <point x="238" y="528" type="curve" smooth="yes"/>
      <point x="302" y="529"/>
      <point x="330" y="488"/>
      <point x="330" y="446" type="curve" smooth="yes"/>
      <point x="330" y="399"/>
      <point x="315" y="372"/>
      <point x="241" y="324" type="curve" smooth="yes"/>
      <point x="225" y="313"/>
      <point x="220" y="291"/>
      <point x="231" y="275" type="curve" smooth="yes"/>
      <point x="242" y="260"/>
      <point x="266" y="255"/>
      <point x="282" y="265" type="curve" smooth="yes"/>
      <point x="392" y="336"/>
      <point x="411" y="380"/>
      <point x="411" y="446" type="curve" smooth="yes"/>
      <point x="411" y="523"/>
      <point x="355" y="599"/>
      <point x="238" y="598" type="curve" smooth="yes"/>
      <point x="127" y="596"/>
      <point x="70" y="529"/>
      <point x="70" y="435" type="curve" smooth="yes"/>
      <point x="70" y="23" type="line" smooth="yes"/>
      <point x="70" y="3"/>
      <point x="90" y="-13"/>
    </contour>
    <contour>
      <point x="327" y="-18" type="curve" smooth="yes"/>
      <point x="432" y="-18"/>
      <point x="489" y="41"/>
      <point x="489" y="123" type="curve" smooth="yes"/>
      <point x="489" y="185"/>
      <point x="451" y="241"/>
      <point x="365" y="282" type="curve" smooth="yes"/>
      <point x="278" y="322" type="line" smooth="yes"/>
      <point x="260" y="331"/>
      <point x="237" y="323"/>
      <point x="228" y="306" type="curve" smooth="yes"/>
      <point x="220" y="289"/>
      <point x="227" y="267"/>
      <point x="246" y="259" type="curve" smooth="yes"/>
      <point x="333" y="219" type="line" smooth="yes"/>
      <point x="384" y="195"/>
      <point x="408" y="161"/>
      <point x="408" y="123" type="curve" smooth="yes"/>
      <point x="408" y="82"/>
      <point x="379" y="53"/>
      <point x="327" y="53" type="curve" smooth="yes"/>
      <point x="304" y="53"/>
      <point x="282" y="57"/>
      <point x="269" y="61" type="curve" smooth="yes"/>
      <point x="251" y="69"/>
      <point x="229" y="59"/>
      <point x="222" y="41" type="curve" smooth="yes"/>
      <point x="215" y="24"/>
      <point x="225" y="2"/>
      <point x="244" y="-3" type="curve" smooth="yes"/>
      <point x="263" y="-11"/>
      <point x="293" y="-18"/>
    </contour>
  </outline>
</glyph>
<glyph name="eth" format="1">
  <advance width="505"/>
  <unicode hex="00F0"/>
  <outline>
    <contour>
      <point x="242" y="-17" type="curve" smooth="yes"/>
      <point x="374" y="-17"/>
      <point x="462" y="63"/>
      <point x="462" y="213" type="curve" smooth="yes"/>
      <point x="462" y="324"/>
      <point x="409" y="435"/>
      <point x="241" y="568" type="curve" smooth="yes"/>
      <point x="226" y="581"/>
      <point x="202" y="579"/>
      <point x="189" y="564" type="curve" smooth="yes"/>
      <point x="177" y="550"/>
      <point x="178" y="527"/>
      <point x="194" y="515" type="curve" smooth="yes"/>
      <point x="336" y="401"/>
      <point x="381" y="307"/>
      <point x="381" y="213" type="curve" smooth="yes"/>
      <point x="381" y="117"/>
      <point x="333" y="54"/>
      <point x="242" y="54" type="curve" smooth="yes"/>
      <point x="161" y="54"/>
      <point x="114" y="107"/>
      <point x="114" y="171" type="curve" smooth="yes"/>
      <point x="114" y="243"/>
      <point x="167" y="293"/>
      <point x="243" y="293" type="curve" smooth="yes"/>
      <point x="301" y="293"/>
      <point x="358" y="267"/>
      <point x="385" y="242" type="curve" smooth="yes"/>
      <point x="400" y="230"/>
      <point x="424" y="231"/>
      <point x="437" y="245" type="curve" smooth="yes"/>
      <point x="451" y="258"/>
      <point x="451" y="282"/>
      <point x="436" y="295" type="curve" smooth="yes"/>
      <point x="399" y="327"/>
      <point x="322" y="363"/>
      <point x="243" y="363" type="curve" smooth="yes"/>
      <point x="124" y="363"/>
      <point x="33" y="288"/>
      <point x="33" y="171" type="curve" smooth="yes"/>
      <point x="33" y="67"/>
      <point x="112" y="-17"/>
    </contour>
    <contour>
      <point x="383" y="504" type="line" smooth="yes"/>
      <point x="400" y="514"/>
      <point x="406" y="535"/>
      <point x="396" y="552" type="curve" smooth="yes"/>
      <point x="386" y="567"/>
      <point x="364" y="572"/>
      <point x="347" y="563" type="curve" smooth="yes"/>
      <point x="175" y="463" type="line" smooth="yes"/>
      <point x="158" y="454"/>
      <point x="151" y="432"/>
      <point x="161" y="416" type="curve" smooth="yes"/>
      <point x="171" y="399"/>
      <point x="194" y="395"/>
      <point x="211" y="405" type="curve" smooth="yes"/>
    </contour>
  </outline>
</glyph>
<glyph name="divide" format="1">
  <advance width="534"/>
  <unicode hex="00F7"/>
  <outline>
    <contour>
      <point x="444" y="234" type="line" smooth="yes"/>
      <point x="464" y="234"/>
      <point x="480" y="250"/>
      <point x="480" y="268" type="curve" smooth="yes"/>
      <point x="480" y="288"/>
      <point x="464" y="304"/>
      <point x="444" y="304" type="curve" smooth="yes"/>
      <point x="90" y="304" type="line" smooth="yes"/>
      <point x="69" y="304"/>
      <point x="53" y="288"/>
      <point x="53" y="268" type="curve" smooth="yes"/>
      <point x="53" y="250"/>
      <point x="69" y="234"/>
      <point x="90" y="234" type="curve" smooth="yes"/>
    </contour>
    <contour>
      <point x="270" y="56" type="curve" smooth="yes"/>
      <point x="302" y="56"/>
      <point x="327" y="70"/>
      <point x="327" y="115" type="curve" smooth="yes"/>
      <point x="327" y="155"/>
      <point x="300" y="175"/>
      <point x="269" y="175" type="curve" smooth="yes"/>
      <point x="237" y="175"/>
      <point x="211" y="156"/>
      <point x="211" y="115" type="curve" smooth="yes"/>
      <point x="211" y="71"/>
      <point x="243" y="56"/>
    </contour>
    <contour>
      <point x="270" y="359" type="curve" smooth="yes"/>
      <point x="301" y="359"/>
      <point x="327" y="371"/>
      <point x="327" y="419" type="curve" smooth="yes"/>
      <point x="327" y="456"/>
      <point x="301" y="478"/>
      <point x="269" y="478" type="curve" smooth="yes"/>
      <point x="236" y="478"/>
      <point x="211" y="458"/>
      <point x="211" y="419" type="curve" smooth="yes"/>
      <point x="211" y="372"/>
      <point x="243" y="359"/>
    </contour>
  </outline>
</glyph>
<glyph name="thorn" format="1">
  <advance width="515"/>
  <unicode hex="00FE"/>
  <outline>
    <contour>
      <point x="267" y="-8" type="curve" smooth="yes"/>
      <point x="390" y="-8"/>
      <point x="481" y="79"/>
      <point x="481" y="199" type="curve" smooth="yes"/>
      <point x="481" y="338"/>
      <point x="382" y="406"/>
      <point x="280" y="406" type="curve" smooth="yes"/>
      <point x="201" y="406"/>
      <point x="130" y="360"/>
      <point x="74" y="284" type="curve" smooth="yes"/>
      <point x="63" y="269"/>
      <point x="68" y="246"/>
      <point x="85" y="235" type="curve" smooth="yes"/>
      <point x="100" y="224"/>
      <point x="125" y="228"/>
      <point x="137" y="243" type="curve" smooth="yes"/>
      <point x="175" y="296"/>
      <point x="222" y="336"/>
      <point x="280" y="336" type="curve" smooth="yes"/>
      <point x="347" y="336"/>
      <point x="400" y="284"/>
      <point x="400" y="199" type="curve" smooth="yes"/>
      <point x="400" y="124"/>
      <point x="349" y="62"/>
      <point x="267" y="62" type="curve" smooth="yes"/>
      <point x="218" y="62"/>
      <point x="169" y="86"/>
      <point x="129" y="119" type="curve" smooth="yes"/>
      <point x="113" y="130"/>
      <point x="89" y="128"/>
      <point x="76" y="114" type="curve" smooth="yes"/>
      <point x="64" y="99"/>
      <point x="65" y="76"/>
      <point x="80" y="65" type="curve" smooth="yes"/>
      <point x="136" y="20"/>
      <point x="203" y="-8"/>
    </contour>
    <contour>
      <point x="105" y="-200" type="curve" smooth="yes"/>
      <point x="125" y="-200"/>
      <point x="145" y="-185"/>
      <point x="145" y="-166" type="curve" smooth="yes"/>
      <point x="145" y="541" type="line" smooth="yes"/>
      <point x="145" y="560"/>
      <point x="125" y="576"/>
      <point x="105" y="576" type="curve" smooth="yes"/>
      <point x="84" y="576"/>
      <point x="64" y="560"/>
      <point x="64" y="541" type="curve" smooth="yes"/>
      <point x="64" y="-166" type="line" smooth="yes"/>
      <point x="64" y="-185"/>
      <point x="84" y="-200"/>
    </contour>
  </outline>
</glyph>
<glyph name="hbar" format="1">
  <advance width="499"/>
  <unicode hex="0127"/>
  <outline>
    <contour>
      <point x="406" y="-13" type="curve" smooth="yes"/>
      <point x="426" y="-13"/>
      <point x="446" y="3"/>
      <point x="446" y="23" type="curve" smooth="yes"/>
      <point x="446" y="224" type="line" smooth="yes"/>
      <point x="446" y="365"/>
      <point x="371" y="402"/>
      <point x="288" y="402" type="curve" smooth="yes"/>
      <point x="212" y="402"/>
      <point x="139" y="359"/>
      <point x="82" y="305" type="curve" smooth="yes"/>
      <point x="68" y="291"/>
      <point x="68" y="268"/>
      <point x="83" y="255" type="curve" smooth="yes"/>
      <point x="97" y="241"/>
      <point x="121" y="240"/>
      <point x="135" y="254" type="curve" smooth="yes"/>
      <point x="178" y="295"/>
      <point x="231" y="332"/>
      <point x="288" y="332" type="curve" smooth="yes"/>
      <point x="338" y="332"/>
      <point x="365" y="293"/>
      <point x="365" y="224" type="curve" smooth="yes"/>
      <point x="365" y="23" type="line" smooth="yes"/>
      <point x="365" y="3"/>
      <point x="385" y="-13"/>
    </contour>
    <contour>
      <point x="105" y="-13" type="curve" smooth="yes"/>
      <point x="125" y="-13"/>
      <point x="145" y="3"/>
      <point x="145" y="23" type="curve" smooth="yes"/>
      <point x="145" y="537" type="line" smooth="yes"/>
      <point x="145" y="556"/>
      <point x="125" y="572"/>
      <point x="105" y="572" type="curve" smooth="yes"/>
      <point x="84" y="572"/>
      <point x="64" y="556"/>
      <point x="64" y="537" type="curve" smooth="yes"/>
      <point x="64" y="23" type="line" smooth="yes"/>
      <point x="64" y="3"/>
      <point x="84" y="-13"/>
    </contour>
    <contour>
      <point x="259" y="435" type="line" smooth="yes"/>
      <point x="279" y="435"/>
      <point x="296" y="450"/>
      <point x="296" y="470" type="curve" smooth="yes"/>
      <point x="296" y="489"/>
      <point x="279" y="504"/>
      <point x="259" y="504" type="curve" smooth="yes"/>
      <point x="25" y="504" type="line" smooth="yes"/>
      <point x="5" y="504"/>
      <point x="-12" y="489"/>
      <point x="-12" y="470" type="curve" smooth="yes"/>
      <point x="-12" y="450"/>
      <point x="5" y="435"/>
      <point x="25" y="435" type="curve" smooth="yes"/>
    </contour>
  </outline>
</glyph>
<glyph name="Iogonek" format="1">
  <advance width="246"/>
  <unicode hex="012E"/>
  <outline>
    <contour>
      <point x="163" y="-224" type="curve" smooth="yes"/>
      <point x="183" y="-224"/>
      <point x="199" y="-209"/>
      <point x="199" y="-191" type="curve" smooth="yes"/>
      <point x="199" y="-172"/>
      <point x="183" y="-158"/>
      <point x="163" y="-158" type="curve" smooth="yes"/>
      <point x="105" y="-158"/>
      <point x="80" y="-144"/>
      <point x="80" y="-123" type="curve" smooth="yes"/>
      <point x="80" y="-104"/>
      <point x="94" y="-82"/>
      <point x="150" y="-29" type="curve" smooth="yes"/>
      <point x="156" y="-22"/>
      <point x="163" y="-13"/>
      <point x="163" y="-3" type="curve" smooth="yes"/>
      <point x="163" y="38" type="line" smooth="yes"/>
      <point x="163" y="58"/>
      <point x="146" y="73"/>
      <point x="127" y="73" type="curve" smooth="yes"/>
      <point x="107" y="73"/>
      <point x="82" y="58"/>
      <point x="82" y="38" type="curve" smooth="yes"/>
      <point x="82" y="-3" type="line"/>
      <point x="104" y="23" type="line"/>
      <point x="15" y="-59"/>
      <point x="3" y="-98"/>
      <point x="3" y="-130" type="curve" smooth="yes"/>
      <point x="3" y="-182"/>
      <point x="48" y="-224"/>
    </contour>
    <contour>
      <point x="123" y="-12" type="curve" smooth="yes"/>
      <point x="143" y="-12"/>
      <point x="163" y="4"/>
      <point x="163" y="24" type="curve" smooth="yes"/>
      <point x="163" y="511" type="line" smooth="yes"/>
      <point x="163" y="530"/>
      <point x="143" y="546"/>
      <point x="123" y="546" type="curve" smooth="yes"/>
      <point x="102" y="546"/>
      <point x="82" y="530"/>
      <point x="82" y="511" type="curve" smooth="yes"/>
      <point x="82" y="24" type="line" smooth="yes"/>
      <point x="82" y="4"/>
      <point x="102" y="-12"/>
    </contour>
    <contour>
      <point x="127" y="49" type="move" name="_ogonek"/>
    </contour>
  </outline>
</glyph>
<glyph name="iogonek" format="1">
  <advance width="194"/>
  <unicode hex="012F"/>
  <outline>
    <contour>
      <point x="135" y="-230" type="curve" smooth="yes"/>
      <point x="155" y="-230"/>
      <point x="171" y="-214"/>
      <point x="171" y="-196" type="curve" smooth="yes"/>
      <point x="171" y="-178"/>
      <point x="155" y="-163"/>
      <point x="135" y="-163" type="curve" smooth="yes"/>
      <point x="77" y="-163"/>
      <point x="52" y="-150"/>
      <point x="52" y="-129" type="curve" smooth="yes"/>
      <point x="52" y="-109"/>
      <point x="66" y="-88"/>
      <point x="124" y="-34" type="curve" smooth="yes"/>
      <point x="131" y="-28"/>
      <point x="137" y="-18"/>
      <point x="137" y="-8" type="curve" smooth="yes"/>
      <point x="137" y="33" type="line" smooth="yes"/>
      <point x="137" y="52"/>
      <point x="120" y="67"/>
      <point x="101" y="67" type="curve" smooth="yes"/>
      <point x="81" y="67"/>
      <point x="56" y="59"/>
      <point x="56" y="40" type="curve" smooth="yes"/>
      <point x="56" y="-8" type="line"/>
      <point x="78" y="18" type="line"/>
      <point x="-14" y="-64"/>
      <point x="-26" y="-103"/>
      <point x="-26" y="-136" type="curve" smooth="yes"/>
      <point x="-26" y="-187"/>
      <point x="20" y="-230"/>
    </contour>
    <contour>
      <point x="97" y="-9" type="curve" smooth="yes"/>
      <point x="117" y="-9"/>
      <point x="137" y="7"/>
      <point x="137" y="27" type="curve" smooth="yes"/>
      <point x="137" y="371" type="line" smooth="yes"/>
      <point x="137" y="390"/>
      <point x="117" y="406"/>
      <point x="97" y="406" type="curve" smooth="yes"/>
      <point x="76" y="406"/>
      <point x="56" y="390"/>
      <point x="56" y="371" type="curve" smooth="yes"/>
      <point x="56" y="27" type="line" smooth="yes"/>
      <point x="56" y="7"/>
      <point x="76" y="-9"/>
    </contour>
    <contour>
      <point x="96" y="503" type="curve" smooth="yes"/>
      <point x="123" y="503"/>
      <point x="154" y="519"/>
      <point x="154" y="562" type="curve" smooth="yes"/>
      <point x="154" y="605"/>
      <point x="122" y="622"/>
      <point x="96" y="622" type="curve" smooth="yes"/>
      <point x="65" y="622"/>
      <point x="36" y="602"/>
      <point x="36" y="562" type="curve" smooth="yes"/>
      <point x="36" y="522"/>
      <point x="64" y="503"/>
    </contour>
    <contour>
      <point x="101" y="44" type="move" name="_ogonek"/>
    </contour>
  </outline>
</glyph>
<glyph name="dotlessi" format="1">
  <advance width="194"/>
  <unicode hex="0131"/>
  <outline>
    <contour>
      <point x="97" y="-9" type="curve" smooth="yes"/>
      <point x="117" y="-9"/>
      <point x="137" y="7"/>
      <point x="137" y="27" type="curve" smooth="yes"/>
      <point x="137" y="371" type="line" smooth="yes"/>
      <point x="137" y="390"/>
      <point x="117" y="406"/>
      <point x="97" y="406" type="curve" smooth="yes"/>
      <point x="76" y="406"/>
      <point x="56" y="390"/>
      <point x="56" y="371" type="curve" smooth="yes"/>
      <point x="56" y="27" type="line" smooth="yes"/>
      <point x="56" y="7"/>
      <point x="76" y="-9"/>
    </contour>
    <contour>
      <point x="101" y="44" type="move" name="ogonek"/>
    </contour>
    <contour>
      <point x="97" y="-10" type="move" name="bottom"/>
    </contour>
    <contour>
      <point x="96" y="406" type="move" name="top"/>
    </contour>
  </outline>
</glyph>
<glyph name="lcaron" format="1">
  <advance width="346"/>
  <unicode hex="013E"/>
  <outline>
    <contour>
      <point x="111" y="-13" type="curve" smooth="yes"/>
      <point x="131" y="-13"/>
      <point x="151" y="3"/>
      <point x="151" y="23" type="curve" smooth="yes"/>
      <point x="151" y="536" type="line" smooth="yes"/>
      <point x="151" y="555"/>
      <point x="131" y="571"/>
      <point x="111" y="571" type="curve" smooth="yes"/>
      <point x="90" y="571"/>
      <point x="70" y="555"/>
      <point x="70" y="536" type="curve" smooth="yes"/>
      <point x="70" y="23" type="line" smooth="yes"/>
      <point x="70" y="3"/>
      <point x="90" y="-13"/>
    </contour>
    <contour>
      <point x="283" y="389" type="curve" smooth="yes"/>
      <point x="303" y="387"/>
      <point x="325" y="399"/>
      <point x="328" y="418" type="curve" smooth="yes"/>
      <point x="349" y="558" type="line" smooth="yes"/>
      <point x="352" y="576"/>
      <point x="335" y="595"/>
      <point x="315" y="598" type="curve" smooth="yes"/>
      <point x="295" y="600"/>
      <point x="273" y="587"/>
      <point x="270" y="569" type="curve" smooth="yes"/>
      <point x="249" y="429" type="line" smooth="yes"/>
      <point x="246" y="411"/>
      <point x="263" y="392"/>
    </contour>
  </outline>
</glyph>
<glyph name="lslash" format="1">
  <advance width="233"/>
  <unicode hex="0142"/>
  <outline>
    <contour>
      <point x="117" y="-13" type="curve" smooth="yes"/>
      <point x="137" y="-13"/>
      <point x="157" y="3"/>
      <point x="157" y="23" type="curve" smooth="yes"/>
      <point x="157" y="537" type="line" smooth="yes"/>
      <point x="157" y="556"/>
      <point x="137" y="572"/>
      <point x="117" y="572" type="curve" smooth="yes"/>
      <point x="96" y="572"/>
      <point x="76" y="556"/>
      <point x="76" y="537" type="curve" smooth="yes"/>
      <point x="76" y="23" type="line" smooth="yes"/>
      <point x="76" y="3"/>
      <point x="96" y="-13"/>
    </contour>
    <contour>
      <point x="221" y="327" type="line" smooth="yes"/>
      <point x="237" y="338"/>
      <point x="241" y="360"/>
      <point x="230" y="376" type="curve" smooth="yes"/>
      <point x="218" y="391"/>
      <point x="194" y="396"/>
      <point x="178" y="385" type="curve" smooth="yes"/>
      <point x="14" y="271" type="line" smooth="yes"/>
      <point x="-2" y="260"/>
      <point x="-6" y="238"/>
      <point x="6" y="222" type="curve" smooth="yes"/>
      <point x="17" y="207"/>
      <point x="41" y="202"/>
      <point x="57" y="214" type="curve" smooth="yes"/>
    </contour>
  </outline>
</glyph>
<glyph name="tbar" format="1">
  <advance width="349"/>
  <unicode hex="0167"/>
  <outline>
    <contour>
      <point x="281" y="-12" type="curve" smooth="yes"/>
      <point x="301" y="-12"/>
      <point x="318" y="3"/>
      <point x="318" y="23" type="curve" smooth="yes"/>
      <point x="318" y="41"/>
      <point x="302" y="58"/>
      <point x="282" y="58" type="curve" smooth="yes"/>
      <point x="208" y="59"/>
      <point x="170" y="86"/>
      <point x="170" y="141" type="curve" smooth="yes"/>
      <point x="170" y="495" type="line" smooth="yes"/>
      <point x="170" y="514"/>
      <point x="150" y="530"/>
      <point x="130" y="530" type="curve" smooth="yes"/>
      <point x="109" y="530"/>
      <point x="89" y="514"/>
      <point x="89" y="495" type="curve" smooth="yes"/>
      <point x="89" y="141" type="line" smooth="yes"/>
      <point x="89" y="47"/>
      <point x="143" y="-9"/>
    </contour>
    <contour>
      <point x="296" y="199" type="line" smooth="yes"/>
      <point x="316" y="199"/>
      <point x="333" y="215"/>
      <point x="333" y="234" type="curve" smooth="yes"/>
      <point x="333" y="253"/>
      <point x="316" y="269"/>
      <point x="296" y="269" type="curve" smooth="yes"/>
      <point x="41" y="269" type="line" smooth="yes"/>
      <point x="21" y="269"/>
      <point x="4" y="253"/>
      <point x="4" y="234" type="curve" smooth="yes"/>
      <point x="4" y="215"/>
      <point x="21" y="199"/>
      <point x="41" y="199" type="curve" smooth="yes"/>
    </contour>
    <contour>
      <point x="296" y="333" type="line" smooth="yes"/>
      <point x="316" y="333"/>
      <point x="332" y="349"/>
      <point x="332" y="367" type="curve" smooth="yes"/>
      <point x="332" y="387"/>
      <point x="316" y="403"/>
      <point x="296" y="403" type="curve" smooth="yes"/>
      <point x="37" y="403" type="line" smooth="yes"/>
      <point x="16" y="403"/>
      <point x="0" y="387"/>
      <point x="0" y="367" type="curve" smooth="yes"/>
      <point x="0" y="349"/>
      <point x="16" y="333"/>
      <point x="37" y="333" type="curve" smooth="yes"/>
    </contour>
  </outline>
</glyph>
<glyph name="florin" format="1">
  <advance width="326"/>
  <unicode hex="0192"/>
  <outline>
    <contour>
      <point x="113" y="-165" type="curve" smooth="yes"/>
      <point x="133" y="-167"/>
      <point x="154" y="-153"/>
      <point x="157" y="-134" type="curve" smooth="yes"/>
      <point x="215" y="439" type="line" smooth="yes"/>
      <point x="219" y="490"/>
      <point x="246" y="527"/>
      <point x="320" y="530" type="curve" smooth="yes"/>
      <point x="339" y="532"/>
      <point x="355" y="549"/>
      <point x="354" y="568" type="curve" smooth="yes"/>
      <point x="353" y="586"/>
      <point x="335" y="602"/>
      <point x="315" y="601" type="curve" smooth="yes"/>
      <point x="191" y="594"/>
      <point x="144" y="534"/>
      <point x="134" y="447" type="curve" smooth="yes"/>
      <point x="76" y="-127" type="line" smooth="yes"/>
      <point x="75" y="-145"/>
      <point x="93" y="-163"/>
    </contour>
    <contour>
      <point x="299" y="335" type="line" smooth="yes"/>
      <point x="319" y="335"/>
      <point x="335" y="352"/>
      <point x="335" y="370" type="curve" smooth="yes"/>
      <point x="335" y="389"/>
      <point x="319" y="405"/>
      <point x="299" y="405" type="curve" smooth="yes"/>
      <point x="61" y="405" type="line" smooth="yes"/>
      <point x="40" y="405"/>
      <point x="24" y="389"/>
      <point x="24" y="370" type="curve" smooth="yes"/>
      <point x="24" y="352"/>
      <point x="40" y="335"/>
      <point x="61" y="335" type="curve" smooth="yes"/>
    </contour>
  </outline>
</glyph>
<glyph name="gravecomb" format="1">
  <advance width="0"/>
  <unicode hex="0300"/>
  <outline>
    <contour>
      <point x="11" y="476" type="curve" smooth="yes"/>
      <point x="28" y="486"/>
      <point x="34" y="509"/>
      <point x="23" y="525" type="curve" smooth="yes"/>
      <point x="-4" y="565"/>
      <point x="-22" y="587"/>
      <point x="-51" y="622" type="curve" smooth="yes"/>
      <point x="-64" y="637"/>
      <point x="-89" y="640"/>
      <point x="-104" y="628" type="curve" smooth="yes"/>
      <point x="-120" y="615"/>
      <point x="-123" y="593"/>
      <point x="-111" y="578" type="curve" smooth="yes"/>
      <point x="-84" y="544"/>
      <point x="-67" y="524"/>
      <point x="-41" y="485" type="curve" smooth="yes"/>
      <point x="-31" y="469"/>
      <point x="-6" y="466"/>
    </contour>
    <contour>
      <point x="0" y="394" type="move" name="_top"/>
    </contour>
  </outline>
</glyph>
<glyph name="acutecomb" format="1">
  <advance width="0"/>
  <unicode hex="0301"/>
  <outline>
    <contour>
      <point x="-29" y="480" type="curve" smooth="yes"/>
      <point x="-14" y="468"/>
      <point x="10" y="469"/>
      <point x="24" y="483" type="curve" smooth="yes"/>
      <point x="52" y="514"/>
      <point x="79" y="547"/>
      <point x="108" y="577" type="curve" smooth="yes"/>
      <point x="121" y="591"/>
      <point x="119" y="615"/>
      <point x="105" y="627" type="curve" smooth="yes"/>
      <point x="90" y="641"/>
      <point x="67" y="639"/>
      <point x="53" y="625" type="curve" smooth="yes"/>
      <point x="23" y="594"/>
      <point x="-5" y="561"/>
      <point x="-33" y="531" type="curve" smooth="yes"/>
      <point x="-46" y="517"/>
      <point x="-44" y="493"/>
    </contour>
    <contour>
      <point x="0" y="394" type="move" name="_top"/>
    </contour>
  </outline>
</glyph>
<glyph name="tildecomb" format="1">
  <advance width="0"/>
  <unicode hex="0303"/>
  <outline>
    <contour>
      <point x="55" y="478" type="curve" smooth="yes"/>
      <point x="87" y="478"/>
      <point x="116" y="495"/>
      <point x="147" y="541" type="curve" smooth="yes"/>
      <point x="158" y="557"/>
      <point x="152" y="580"/>
      <point x="136" y="590" type="curve" smooth="yes"/>
      <point x="120" y="601"/>
      <point x="100" y="597"/>
      <point x="85" y="582" type="curve" smooth="yes"/>
      <point x="71" y="565"/>
      <point x="61" y="553"/>
      <point x="51" y="553" type="curve" smooth="yes"/>
      <point x="41" y="553"/>
      <point x="34" y="557"/>
      <point x="22" y="566" type="curve" smooth="yes"/>
      <point x="-11" y="590"/>
      <point x="-29" y="600"/>
      <point x="-55" y="600" type="curve" smooth="yes"/>
      <point x="-84" y="600"/>
      <point x="-120" y="580"/>
      <point x="-148" y="538" type="curve" smooth="yes"/>
      <point x="-159" y="522"/>
      <point x="-153" y="500"/>
      <point x="-137" y="489" type="curve" smooth="yes"/>
      <point x="-121" y="477"/>
      <point x="-100" y="481"/>
      <point x="-85" y="497" type="curve" smooth="yes"/>
      <point x="-72" y="512"/>
      <point x="-61" y="525"/>
      <point x="-50" y="525" type="curve" smooth="yes"/>
      <point x="-41" y="525"/>
      <point x="-35" y="521"/>
      <point x="-20" y="510" type="curve" smooth="yes"/>
      <point x="8" y="489"/>
      <point x="31" y="478"/>
    </contour>
    <contour>
      <point x="0" y="394" type="move" name="_top"/>
    </contour>
  </outline>
</glyph>
<glyph name="macroncomb" format="1">
  <advance width="0"/>
  <unicode hex="0304"/>
  <outline>
    <contour>
      <point x="105" y="507" type="line" smooth="yes"/>
      <point x="125" y="507"/>
      <point x="141" y="523"/>
      <point x="141" y="541" type="curve" smooth="yes"/>
      <point x="141" y="561"/>
      <point x="125" y="577"/>
      <point x="105" y="577" type="curve" smooth="yes"/>
      <point x="-106" y="577" type="line" smooth="yes"/>
      <point x="-127" y="577"/>
      <point x="-143" y="561"/>
      <point x="-143" y="541" type="curve" smooth="yes"/>
      <point x="-143" y="523"/>
      <point x="-127" y="507"/>
      <point x="-106" y="507" type="curve" smooth="yes"/>
    </contour>
    <contour>
      <point x="0" y="394" type="move" name="_top"/>
    </contour>
  </outline>
</glyph>
<glyph name="dotaccentcomb" format="1">
  <advance width="0"/>
  <unicode hex="0307"/>
  <outline>
    <contour>
      <point x="0" y="491" type="curve" smooth="yes"/>
      <point x="27" y="491"/>
      <point x="59" y="507"/>
      <point x="59" y="550" type="curve" smooth="yes"/>
      <point x="59" y="594"/>
      <point x="26" y="611"/>
      <point x="0" y="611" type="curve" smooth="yes"/>
      <point x="-30" y="611"/>
      <point x="-60" y="590"/>
      <point x="-60" y="550" type="curve" smooth="yes"/>
      <point x="-60" y="510"/>
      <point x="-32" y="491"/>
    </contour>
    <contour>
      <point x="0" y="394" type="move" name="_top"/>
    </contour>
  </outline>
</glyph>
<glyph name="dieresiscomb" format="1">
  <advance width="0"/>
  <unicode hex="0308"/>
  <outline>
    <contour>
      <point x="97" y="486" type="curve" smooth="yes"/>
      <point x="124" y="486"/>
      <point x="154" y="501"/>
      <point x="154" y="545" type="curve" smooth="yes"/>
      <point x="154" y="590"/>
      <point x="123" y="606"/>
      <point x="97" y="606" type="curve" smooth="yes"/>
      <point x="71" y="606"/>
      <point x="40" y="590"/>
      <point x="40" y="545" type="curve" smooth="yes"/>
      <point x="40" y="501"/>
      <point x="70" y="486"/>
    </contour>
    <contour>
      <point x="-96" y="486" type="curve" smooth="yes"/>
      <point x="-71" y="486"/>
      <point x="-40" y="498"/>
      <point x="-40" y="545" type="curve" smooth="yes"/>
      <point x="-40" y="593"/>
      <point x="-73" y="606"/>
      <point x="-96" y="606" type="curve" smooth="yes"/>
      <point x="-125" y="606"/>
      <point x="-154" y="589"/>
      <point x="-154" y="545" type="curve"/>
      <point x="-154" y="502"/>
      <point x="-126" y="486"/>
    </contour>
    <contour>
      <point x="0" y="394" type="move" name="_top"/>
    </contour>
  </outline>
</glyph>
<glyph name="ringcomb" format="1">
  <advance width="0"/>
  <unicode hex="030A"/>
  <outline>
    <contour>
      <point x="0" y="451" type="curve" smooth="yes"/>
      <point x="77" y="451"/>
      <point x="120" y="504"/>
      <point x="120" y="559" type="curve" smooth="yes"/>
      <point x="120" y="613"/>
      <point x="77" y="667"/>
      <point x="0" y="667" type="curve" smooth="yes"/>
      <point x="-75" y="667"/>
      <point x="-118" y="611"/>
      <point x="-118" y="559" type="curve" smooth="yes"/>
      <point x="-118" y="505"/>
      <point x="-75" y="451"/>
    </contour>
    <contour>
      <point x="0" y="516" type="curve" smooth="yes"/>
      <point x="-31" y="516"/>
      <point x="-49" y="535"/>
      <point x="-49" y="559" type="curve" smooth="yes"/>
      <point x="-49" y="580"/>
      <point x="-30" y="602"/>
      <point x="0" y="602" type="curve" smooth="yes"/>
      <point x="33" y="602"/>
      <point x="51" y="582"/>
      <point x="51" y="559" type="curve" smooth="yes"/>
      <point x="51" y="536"/>
      <point x="32" y="516"/>
    </contour>
    <contour>
      <point x="0" y="394" type="move" name="_top"/>
    </contour>
  </outline>
</glyph>
<glyph name="commaaccentcomb" format="1">
  <advance width="0"/>
  <unicode hex="0326"/>
  <outline>
    <contour>
      <point x="-56" y="-283" type="curve" smooth="yes"/>
      <point x="12" y="-254"/>
      <point x="49" y="-207"/>
      <point x="49" y="-159" type="curve" smooth="yes"/>
      <point x="49" y="-136"/>
      <point x="44" y="-117"/>
      <point x="34" y="-103" type="curve" smooth="yes"/>
      <point x="20" y="-85"/>
      <point x="-3" y="-82"/>
      <point x="-20" y="-92" type="curve" smooth="yes"/>
      <point x="-37" y="-102"/>
      <point x="-44" y="-124"/>
      <point x="-33" y="-140" type="curve" smooth="yes"/>
      <point x="-30" y="-146"/>
      <point x="-28" y="-153"/>
      <point x="-28" y="-161" type="curve" smooth="yes"/>
      <point x="-28" y="-186"/>
      <point x="-54" y="-208"/>
      <point x="-87" y="-221" type="curve" smooth="yes"/>
      <point x="-105" y="-230"/>
      <point x="-114" y="-251"/>
      <point x="-105" y="-268" type="curve" smooth="yes"/>
      <point x="-97" y="-285"/>
      <point x="-73" y="-290"/>
    </contour>
    <contour>
      <point x="-1" y="0" type="move" name="_bottom"/>
    </contour>
  </outline>
</glyph>
<glyph name="cedillacomb" format="1">
  <advance width="0"/>
  <unicode hex="0327"/>
  <outline>
    <contour>
      <point x="-132" y="-257" type="curve" smooth="yes"/>
      <point x="-118" y="-269"/>
      <point x="-94" y="-269"/>
      <point x="-80" y="-256" type="curve" smooth="yes"/>
      <point x="-56" y="-232"/>
      <point x="-4" y="-183"/>
      <point x="24" y="-157" type="curve" smooth="yes"/>
      <point x="39" y="-144"/>
      <point x="39" y="-120"/>
      <point x="26" y="-107" type="curve" smooth="yes"/>
      <point x="12" y="-93"/>
      <point x="-11" y="-92"/>
      <point x="-26" y="-105" type="curve" smooth="yes"/>
      <point x="-56" y="-131"/>
      <point x="-109" y="-183"/>
      <point x="-133" y="-207" type="curve" smooth="yes"/>
      <point x="-148" y="-220"/>
      <point x="-147" y="-243"/>
    </contour>
    <contour>
      <point x="0" y="0" type="move" name="_bottom"/>
    </contour>
  </outline>
</glyph>
<glyph name="strokeshortcomb" format="1">
  <advance width="0"/>
  <unicode hex="0335"/>
  <outline>
    <contour>
      <point x="304" y="212" type="line" smooth="yes"/>
      <point x="324" y="212"/>
      <point x="341" y="227"/>
      <point x="341" y="247" type="curve" smooth="yes"/>
      <point x="341" y="266"/>
      <point x="324" y="281"/>
      <point x="304" y="281" type="curve" smooth="yes"/>
      <point x="6" y="281" type="line" smooth="yes"/>
      <point x="-14" y="281"/>
      <point x="-30" y="266"/>
      <point x="-30" y="247" type="curve" smooth="yes"/>
      <point x="-30" y="227"/>
      <point x="-14" y="212"/>
      <point x="6" y="212" type="curve" smooth="yes"/>
    </contour>
  </outline>
</glyph>
<glyph name="slashlongcomb" format="1">
  <advance width="0"/>
  <unicode hex="0338"/>
  <outline>
    <contour>
      <point x="82" y="-24" type="curve" smooth="yes"/>
      <point x="98" y="-35"/>
      <point x="123" y="-34"/>
      <point x="135" y="-19" type="curve" smooth="yes"/>
      <point x="565" y="488" type="line" smooth="yes"/>
      <point x="577" y="503"/>
      <point x="574" y="527"/>
      <point x="559" y="538" type="curve" smooth="yes"/>
      <point x="543" y="550"/>
      <point x="519" y="549"/>
      <point x="506" y="534" type="curve" smooth="yes"/>
      <point x="76" y="26" type="line" smooth="yes"/>
      <point x="63" y="12"/>
      <point x="66" y="-13"/>
    </contour>
  </outline>
</glyph>
<glyph name="pi" format="1">
  <advance width="642"/>
  <unicode hex="03C0"/>
  <outline>
    <contour>
      <point x="509" y="-5" type="curve" smooth="yes"/>
      <point x="526" y="-15"/>
      <point x="549" y="-9"/>
      <point x="560" y="7" type="curve" smooth="yes"/>
      <point x="570" y="23"/>
      <point x="565" y="45"/>
      <point x="548" y="55" type="curve" smooth="yes"/>
      <point x="500" y="84"/>
      <point x="485" y="128"/>
      <point x="485" y="223" type="curve" smooth="yes"/>
      <point x="485" y="403" type="line" smooth="yes"/>
      <point x="485" y="422"/>
      <point x="465" y="438"/>
      <point x="445" y="438" type="curve" smooth="yes"/>
      <point x="417" y="438"/>
      <point x="404" y="428"/>
      <point x="404" y="403" type="curve"/>
      <point x="404" y="223" type="line" smooth="yes"/>
      <point x="404" y="85"/>
      <point x="443" y="34"/>
    </contour>
    <contour>
      <point x="193" y="-10" type="curve" smooth="yes"/>
      <point x="213" y="-10"/>
      <point x="233" y="6"/>
      <point x="233" y="26" type="curve" smooth="yes"/>
      <point x="233" y="403" type="line" smooth="yes"/>
      <point x="233" y="422"/>
      <point x="213" y="438"/>
      <point x="193" y="438" type="curve" smooth="yes"/>
      <point x="165" y="438"/>
      <point x="152" y="428"/>
      <point x="152" y="403" type="curve"/>
      <point x="152" y="26" type="line" smooth="yes"/>
      <point x="152" y="6"/>
      <point x="172" y="-10"/>
    </contour>
    <contour>
      <point x="557" y="373" type="line" smooth="yes"/>
      <point x="577" y="373"/>
      <point x="593" y="389"/>
      <point x="593" y="409" type="curve" smooth="yes"/>
      <point x="593" y="434"/>
      <point x="584" y="444"/>
      <point x="557" y="444" type="curve"/>
      <point x="85" y="444" type="line" smooth="yes"/>
      <point x="64" y="444"/>
      <point x="48" y="428"/>
      <point x="48" y="409" type="curve" smooth="yes"/>
      <point x="48" y="389"/>
      <point x="64" y="373"/>
      <point x="85" y="373" type="curve" smooth="yes"/>
    </contour>
  </outline>
</glyph>
<glyph name="Danda" format="1">
  <advance width="322"/>
  <unicode hex="0964"/>
  <outline>
    <contour>
      <point x="211" y="-12" type="curve" smooth="yes"/>
      <point x="234" y="-12"/>
      <point x="251" y="8"/>
      <point x="251" y="35" type="curve" smooth="yes"/>
      <point x="251" y="602" type="line" smooth="yes"/>
      <point x="251" y="629"/>
      <point x="233" y="649"/>
      <point x="211" y="649" type="curve" smooth="yes"/>
      <point x="189" y="649"/>
      <point x="172" y="629"/>
      <point x="172" y="602" type="curve" smooth="yes"/>
      <point x="172" y="35" type="line" smooth="yes"/>
      <point x="172" y="8"/>
      <point x="189" y="-12"/>
    </contour>
  </outline>
</glyph>
<glyph name="bCandrabindu" format="1">
  <advance width="0"/>
  <unicode hex="0981"/>
  <outline>
    <contour>
      <point x="-120" y="605" type="curve" smooth="yes"/>
      <point x="-47" y="605"/>
      <point x="14" y="655"/>
      <point x="14" y="705" type="curve" smooth="yes"/>
      <point x="14" y="728"/>
      <point x="-1" y="733"/>
      <point x="-9" y="733" type="curve" smooth="yes"/>
      <point x="-41" y="733"/>
      <point x="-47" y="672"/>
      <point x="-120" y="672" type="curve" smooth="yes"/>
      <point x="-194" y="672"/>
      <point x="-205" y="735"/>
      <point x="-235" y="735" type="curve" smooth="yes"/>
      <point x="-244" y="735"/>
      <point x="-258" y="729"/>
      <point x="-258" y="705" type="curve" smooth="yes"/>
      <point x="-258" y="655"/>
      <point x="-193" y="605"/>
    </contour>
    <contour>
      <point x="-122" y="701" type="curve" smooth="yes"/>
      <point x="-88" y="701"/>
      <point x="-57" y="726"/>
      <point x="-57" y="764" type="curve" smooth="yes"/>
      <point x="-57" y="802"/>
      <point x="-88" y="831"/>
      <point x="-124" y="831" type="curve" smooth="yes"/>
      <point x="-158" y="831"/>
      <point x="-188" y="803"/>
      <point x="-188" y="766" type="curve" smooth="yes"/>
      <point x="-188" y="729"/>
      <point x="-158" y="701"/>
    </contour>
    <contour>
      <point x="-122" y="746" type="curve" smooth="yes"/>
      <point x="-132" y="746"/>
      <point x="-142" y="754"/>
      <point x="-142" y="767" type="curve" smooth="yes"/>
      <point x="-142" y="779"/>
      <point x="-133" y="788"/>
      <point x="-122" y="788" type="curve" smooth="yes"/>
      <point x="-111" y="788"/>
      <point x="-102" y="778"/>
      <point x="-102" y="767" type="curve" smooth="yes"/>
      <point x="-102" y="753"/>
      <point x="-112" y="746"/>
    </contour>
  </outline>
</glyph>
<glyph name="bI" format="1">
  <advance width="488"/>
  <unicode hex="0987"/>
  <outline>
    <contour>
      <point x="409" y="567" type="line"/>
      <point x="409" y="688"/>
      <point x="361" y="735"/>
      <point x="278" y="735" type="curve" smooth="yes"/>
      <point x="221" y="735"/>
      <point x="170" y="712"/>
      <point x="123" y="712" type="curve" smooth="yes"/>
      <point x="63" y="712"/>
      <point x="47" y="746"/>
      <point x="47" y="785" type="curve" smooth="yes"/>
      <point x="47" y="810"/>
      <point x="34" y="825"/>
      <point x="16" y="825" type="curve" smooth="yes"/>
      <point x="-5" y="825"/>
      <point x="-16" y="810"/>
      <point x="-16" y="781" type="curve" smooth="yes"/>
      <point x="-16" y="705"/>
      <point x="33" y="640"/>
      <point x="130" y="640" type="curve" smooth="yes"/>
      <point x="185" y="640"/>
      <point x="238" y="660"/>
      <point x="277" y="660" type="curve" smooth="yes"/>
      <point x="335" y="660"/>
      <point x="339" y="632"/>
      <point x="339" y="567" type="curve"/>
    </contour>
    <contour>
      <point x="417" y="-32" type="curve" smooth="yes"/>
      <point x="447" y="-32"/>
      <point x="463" y="-18"/>
      <point x="463" y="3" type="curve" smooth="yes"/>
      <point x="463" y="23"/>
      <point x="445" y="34"/>
      <point x="410" y="44" type="curve" smooth="yes"/>
      <point x="351" y="62"/>
      <point x="323" y="105"/>
      <point x="289" y="149" type="curve" smooth="yes"/>
      <point x="246" y="206"/>
      <point x="209" y="245"/>
      <point x="149" y="245" type="curve" smooth="yes"/>
      <point x="98" y="245"/>
      <point x="65" y="209"/>
      <point x="65" y="169" type="curve" smooth="yes"/>
      <point x="65" y="120"/>
      <point x="108" y="82"/>
      <point x="177" y="82" type="curve" smooth="yes"/>
      <point x="297" y="82"/>
      <point x="414" y="182"/>
      <point x="414" y="298" type="curve" smooth="yes"/>
      <point x="414" y="411"/>
      <point x="331" y="486"/>
      <point x="223" y="486" type="curve" smooth="yes"/>
      <point x="149" y="486"/>
      <point x="70" y="451"/>
      <point x="70" y="372" type="curve" smooth="yes"/>
      <point x="70" y="325"/>
      <point x="106" y="284"/>
      <point x="164" y="284" type="curve" smooth="yes"/>
      <point x="218" y="284"/>
      <point x="250" y="325"/>
      <point x="250" y="369" type="curve" smooth="yes"/>
      <point x="250" y="418"/>
      <point x="209" y="442"/>
      <point x="181" y="442" type="curve" smooth="yes"/>
      <point x="159" y="442"/>
      <point x="138" y="434"/>
      <point x="126" y="415" type="curve"/>
      <point x="160" y="414" type="line"/>
      <point x="179" y="425"/>
      <point x="203" y="431"/>
      <point x="223" y="431" type="curve" smooth="yes"/>
      <point x="281" y="431"/>
      <point x="335" y="380"/>
      <point x="335" y="315" type="curve" smooth="yes"/>
      <point x="335" y="221"/>
      <point x="255" y="154"/>
      <point x="166" y="154" type="curve" smooth="yes"/>
      <point x="143" y="154"/>
      <point x="130" y="163"/>
      <point x="130" y="170" type="curve" smooth="yes"/>
      <point x="130" y="174"/>
      <point x="136" y="178"/>
      <point x="146" y="178" type="curve" smooth="yes"/>
      <point x="173" y="178"/>
      <point x="205" y="126"/>
      <point x="227" y="100" type="curve" smooth="yes"/>
      <point x="272" y="46"/>
      <point x="335" y="-32"/>
    </contour>
    <contour>
      <point x="166" y="347" type="curve" smooth="yes"/>
      <point x="150" y="347"/>
      <point x="137" y="360"/>
      <point x="137" y="376" type="curve" smooth="yes"/>
      <point x="137" y="392"/>
      <point x="150" y="405"/>
      <point x="166" y="405" type="curve" smooth="yes"/>
      <point x="181" y="405"/>
      <point x="195" y="392"/>
      <point x="195" y="376" type="curve" smooth="yes"/>
      <point x="195" y="360"/>
      <point x="181" y="347"/>
    </contour>
    <contour>
      <point x="487" y="518" type="line" smooth="yes"/>
      <point x="509" y="518"/>
      <point x="526" y="533"/>
      <point x="526" y="553" type="curve" smooth="yes"/>
      <point x="526" y="572"/>
      <point x="509" y="587"/>
      <point x="487" y="587" type="curve" smooth="yes"/>
      <point x="0" y="587" type="line" smooth="yes"/>
      <point x="-22" y="587"/>
      <point x="-38" y="572"/>
      <point x="-38" y="553" type="curve" smooth="yes"/>
      <point x="-38" y="533"/>
      <point x="-22" y="518"/>
      <point x="0" y="518" type="curve" smooth="yes"/>
    </contour>
  </outline>
</glyph>
<glyph name="bUu" format="1">
  <advance width="643"/>
  <unicode hex="098A"/>
  <outline>
    <contour>
      <point x="394" y="17" type="curve" smooth="yes"/>
      <point x="525" y="17"/>
      <point x="616" y="104"/>
      <point x="616" y="234" type="curve" smooth="yes"/>
      <point x="616" y="331"/>
      <point x="568" y="402"/>
      <point x="522" y="402" type="curve" smooth="yes"/>
      <point x="498" y="402"/>
      <point x="495" y="384"/>
      <point x="491" y="359" type="curve" smooth="yes"/>
      <point x="485" y="312"/>
      <point x="455" y="290"/>
      <point x="424" y="290" type="curve" smooth="yes"/>
      <point x="383" y="290"/>
      <point x="349" y="327"/>
      <point x="349" y="396" type="curve" smooth="yes"/>
      <point x="349" y="460"/>
      <point x="374" y="518"/>
      <point x="438" y="518" type="curve" smooth="yes"/>
      <point x="643" y="518" type="line" smooth="yes"/>
      <point x="665" y="518"/>
      <point x="681" y="533"/>
      <point x="681" y="553" type="curve" smooth="yes"/>
      <point x="681" y="572"/>
      <point x="665" y="587"/>
      <point x="643" y="587" type="curve" smooth="yes"/>
      <point x="417" y="587" type="line" smooth="yes"/>
      <point x="360" y="587"/>
      <point x="304" y="543"/>
      <point x="306" y="517" type="curve"/>
      <point x="329" y="515" type="line"/>
      <point x="328" y="554"/>
      <point x="283" y="587"/>
      <point x="230" y="587" type="curve" smooth="yes"/>
      <point x="0" y="587" type="line" smooth="yes"/>
      <point x="-22" y="587"/>
      <point x="-38" y="572"/>
      <point x="-38" y="553" type="curve" smooth="yes"/>
      <point x="-38" y="533"/>
      <point x="-22" y="518"/>
      <point x="0" y="518" type="curve" smooth="yes"/>
      <point x="222" y="518" type="line" smooth="yes"/>
      <point x="263" y="518"/>
      <point x="284" y="504"/>
      <point x="284" y="481" type="curve" smooth="yes"/>
      <point x="284" y="463"/>
      <point x="271" y="425"/>
      <point x="271" y="375" type="curve" smooth="yes"/>
      <point x="271" y="283"/>
      <point x="329" y="210"/>
      <point x="415" y="210" type="curve" smooth="yes"/>
      <point x="504" y="210"/>
      <point x="538" y="297"/>
      <point x="538" y="326" type="curve"/>
      <point x="509" y="328" type="line"/>
      <point x="533" y="304"/>
      <point x="543" y="272"/>
      <point x="543" y="238" type="curve" smooth="yes"/>
      <point x="543" y="172"/>
      <point x="490" y="108"/>
      <point x="404" y="108" type="curve" smooth="yes"/>
      <point x="234" y="108"/>
      <point x="201" y="295"/>
      <point x="196" y="433" type="curve" smooth="yes"/>
      <point x="195" y="452"/>
      <point x="192" y="479"/>
      <point x="163" y="479" type="curve" smooth="yes"/>
      <point x="138" y="479"/>
      <point x="130" y="459"/>
      <point x="130" y="415" type="curve" smooth="yes"/>
      <point x="130" y="356"/>
      <point x="143" y="264"/>
      <point x="180" y="199" type="curve"/>
      <point x="182" y="205" type="line"/>
      <point x="130" y="274"/>
      <point x="106" y="333"/>
      <point x="95" y="429" type="curve" smooth="yes"/>
      <point x="92" y="450"/>
      <point x="82" y="467"/>
      <point x="60" y="467" type="curve" smooth="yes"/>
      <point x="32" y="467"/>
      <point x="27" y="442"/>
      <point x="27" y="421" type="curve" smooth="yes"/>
      <point x="27" y="280"/>
      <point x="154" y="17"/>
    </contour>
    <contour>
      <point x="575" y="568" type="line"/>
      <point x="577" y="707"/>
      <point x="511" y="746"/>
      <point x="422" y="746" type="curve" smooth="yes"/>
      <point x="337" y="746"/>
      <point x="253" y="708"/>
      <point x="183" y="708" type="curve" smooth="yes"/>
      <point x="114" y="708"/>
      <point x="101" y="739"/>
      <point x="93" y="786" type="curve" smooth="yes"/>
      <point x="91" y="803"/>
      <point x="86" y="825"/>
      <point x="61" y="825" type="curve" smooth="yes"/>
      <point x="43" y="825"/>
      <point x="27" y="814"/>
      <point x="27" y="779" type="curve" smooth="yes"/>
      <point x="27" y="706"/>
      <point x="86" y="634"/>
      <point x="190" y="634" type="curve" smooth="yes"/>
      <point x="262" y="634"/>
      <point x="355" y="668"/>
      <point x="418" y="668" type="curve" smooth="yes"/>
      <point x="496" y="668"/>
      <point x="500" y="633"/>
      <point x="500" y="568" type="curve"/>
    </contour>
  </outline>
</glyph>
<glyph name="bVocalicR" format="1">
  <advance width="665"/>
  <unicode hex="098B"/>
  <outline>
    <contour>
      <point x="423" y="85" type="line"/>
      <point x="414" y="179"/>
      <point x="255" y="276"/>
      <point x="133" y="282" type="curve"/>
      <point x="137" y="264" type="line"/>
      <point x="344" y="328"/>
      <point x="402" y="393"/>
      <point x="402" y="461" type="curve" smooth="yes"/>
      <point x="402" y="527"/>
      <point x="351" y="588"/>
      <point x="296" y="588" type="curve" smooth="yes"/>
      <point x="207" y="588"/>
      <point x="228" y="462"/>
      <point x="156" y="462" type="curve" smooth="yes"/>
      <point x="141" y="462"/>
      <point x="126" y="467"/>
      <point x="118" y="470" type="curve"/>
      <point x="115" y="449" type="line"/>
      <point x="157" y="449"/>
      <point x="178" y="477"/>
      <point x="178" y="511" type="curve" smooth="yes"/>
      <point x="178" y="546"/>
      <point x="155" y="590"/>
      <point x="98" y="590" type="curve" smooth="yes"/>
      <point x="41" y="590"/>
      <point x="11" y="546"/>
      <point x="11" y="503" type="curve" smooth="yes"/>
      <point x="11" y="457"/>
      <point x="56" y="400"/>
      <point x="135" y="400" type="curve" smooth="yes"/>
      <point x="258" y="400"/>
      <point x="271" y="513"/>
      <point x="313" y="513" type="curve" smooth="yes"/>
      <point x="328" y="513"/>
      <point x="347" y="500"/>
      <point x="347" y="481" type="curve" smooth="yes"/>
      <point x="347" y="431"/>
      <point x="276" y="397"/>
      <point x="91" y="327" type="curve" smooth="yes"/>
      <point x="58" y="315"/>
      <point x="49" y="298"/>
      <point x="49" y="279" type="curve" smooth="yes"/>
      <point x="49" y="249"/>
      <point x="73" y="231"/>
      <point x="106" y="222" type="curve" smooth="yes"/>
      <point x="160" y="207"/>
      <point x="370" y="146"/>
      <point x="370" y="54" type="curve"/>
    </contour>
    <contour>
      <point x="98" y="475" type="curve" smooth="yes"/>
      <point x="83" y="475"/>
      <point x="70" y="488"/>
      <point x="70" y="503" type="curve" smooth="yes"/>
      <point x="70" y="519"/>
      <point x="83" y="532"/>
      <point x="98" y="532" type="curve" smooth="yes"/>
      <point x="114" y="532"/>
      <point x="127" y="519"/>
      <point x="127" y="503" type="curve" smooth="yes"/>
      <point x="127" y="488"/>
      <point x="114" y="475"/>
    </contour>
    <contour>
      <point x="546" y="104" type="line"/>
      <point x="546" y="222"/>
      <point x="449" y="208"/>
      <point x="449" y="324" type="curve"/>
      <point x="421" y="244" type="line"/>
      <point x="421" y="177"/>
      <point x="511" y="169"/>
      <point x="511" y="84" type="curve"/>
    </contour>
    <contour>
      <point x="410" y="-12" type="curve" smooth="yes"/>
      <point x="432" y="-12"/>
      <point x="449" y="8"/>
      <point x="449" y="35" type="curve" smooth="yes"/>
      <point x="449" y="562" type="line" smooth="yes"/>
      <point x="449" y="589"/>
      <point x="432" y="609"/>
      <point x="410" y="609" type="curve" smooth="yes"/>
      <point x="388" y="609"/>
      <point x="370" y="589"/>
      <point x="370" y="562" type="curve" smooth="yes"/>
      <point x="370" y="35" type="line" smooth="yes"/>
      <point x="370" y="8"/>
      <point x="388" y="-12"/>
    </contour>
    <contour>
      <point x="550" y="29" type="curve" smooth="yes"/>
      <point x="572" y="29"/>
      <point x="589" y="49"/>
      <point x="589" y="76" type="curve" smooth="yes"/>
      <point x="589" y="446" type="line" smooth="yes"/>
      <point x="589" y="507"/>
      <point x="591" y="518"/>
      <point x="625" y="518" type="curve" smooth="yes"/>
      <point x="665" y="518" type="line" smooth="yes"/>
      <point x="687" y="518"/>
      <point x="704" y="532"/>
      <point x="704" y="553" type="curve" smooth="yes"/>
      <point x="704" y="572"/>
      <point x="687" y="587"/>
      <point x="665" y="587" type="curve" smooth="yes"/>
      <point x="599" y="587" type="line" smooth="yes"/>
      <point x="547" y="587"/>
      <point x="511" y="548"/>
      <point x="511" y="479" type="curve" smooth="yes"/>
      <point x="511" y="76" type="line" smooth="yes"/>
      <point x="511" y="49"/>
      <point x="527" y="29"/>
    </contour>
  </outline>
</glyph>
<glyph name="bAu" format="1">
  <advance width="660"/>
  <unicode hex="0994"/>
  <outline>
    <contour>
      <point x="455" y="280" type="line"/>
      <point x="550" y="280"/>
      <point x="646" y="366"/>
      <point x="646" y="483" type="curve" smooth="yes"/>
      <point x="646" y="627"/>
      <point x="537" y="684"/>
      <point x="426" y="731" type="curve"/>
      <point x="338" y="767"/>
      <point x="280" y="791"/>
      <point x="267" y="848" type="curve"/>
      <point x="262" y="871"/>
      <point x="260" y="905"/>
      <point x="231" y="905" type="curve" smooth="yes"/>
      <point x="210" y="905"/>
      <point x="197" y="887"/>
      <point x="197" y="855" type="curve" smooth="yes"/>
      <point x="197" y="769"/>
      <point x="272" y="712"/>
      <point x="371" y="671" type="curve" smooth="yes"/>
      <point x="487" y="623"/>
      <point x="577" y="591"/>
      <point x="577" y="486" type="curve" smooth="yes"/>
      <point x="577" y="416"/>
      <point x="513" y="363"/>
      <point x="450" y="363" type="curve"/>
    </contour>
    <contour>
      <point x="339" y="36" type="curve" smooth="yes"/>
      <point x="456" y="36"/>
      <point x="548" y="110"/>
      <point x="548" y="220" type="curve" smooth="yes"/>
      <point x="548" y="308"/>
      <point x="486" y="394"/>
      <point x="389" y="394" type="curve" smooth="yes"/>
      <point x="321" y="394"/>
      <point x="290" y="351"/>
      <point x="290" y="310" type="curve" smooth="yes"/>
      <point x="290" y="266"/>
      <point x="327" y="232"/>
      <point x="378" y="232" type="curve" smooth="yes"/>
      <point x="464" y="232"/>
      <point x="521" y="332"/>
      <point x="521" y="425" type="curve" smooth="yes"/>
      <point x="521" y="532"/>
      <point x="446" y="604"/>
      <point x="333" y="604" type="curve" smooth="yes"/>
      <point x="207" y="604"/>
      <point x="122" y="514"/>
      <point x="122" y="430" type="curve" smooth="yes"/>
      <point x="122" y="373"/>
      <point x="162" y="328"/>
      <point x="218" y="328" type="curve" smooth="yes"/>
      <point x="275" y="328"/>
      <point x="307" y="373"/>
      <point x="307" y="414" type="curve" smooth="yes"/>
      <point x="307" y="455"/>
      <point x="276" y="501"/>
      <point x="228" y="501" type="curve" smooth="yes"/>
      <point x="211" y="501"/>
      <point x="188" y="495"/>
      <point x="173" y="481" type="curve"/>
      <point x="222" y="470" type="line"/>
      <point x="245" y="504"/>
      <point x="295" y="527"/>
      <point x="341" y="527" type="curve" smooth="yes"/>
      <point x="398" y="527"/>
      <point x="450" y="492"/>
      <point x="450" y="419" type="curve" smooth="yes"/>
      <point x="450" y="364"/>
      <point x="421" y="296"/>
      <point x="376" y="296" type="curve" smooth="yes"/>
      <point x="361" y="296"/>
      <point x="350" y="302"/>
      <point x="350" y="312" type="curve" smooth="yes"/>
      <point x="350" y="321"/>
      <point x="360" y="331"/>
      <point x="382" y="331" type="curve" smooth="yes"/>
      <point x="420" y="331"/>
      <point x="471" y="295"/>
      <point x="471" y="238" type="curve" smooth="yes"/>
      <point x="471" y="175"/>
      <point x="415" y="126"/>
      <point x="331" y="126" type="curve" smooth="yes"/>
      <point x="153" y="126"/>
      <point x="90" y="356"/>
      <point x="73" y="443" type="curve" smooth="yes"/>
      <point x="68" y="467"/>
      <point x="60" y="485"/>
      <point x="39" y="485" type="curve" smooth="yes"/>
      <point x="21" y="485"/>
      <point x="5" y="475"/>
      <point x="5" y="432" type="curve" smooth="yes"/>
      <point x="5" y="331"/>
      <point x="107" y="36"/>
    </contour>
    <contour>
      <point x="219" y="398" type="curve" smooth="yes"/>
      <point x="204" y="398"/>
      <point x="189" y="411"/>
      <point x="189" y="428" type="curve" smooth="yes"/>
      <point x="189" y="445"/>
      <point x="204" y="458"/>
      <point x="219" y="458" type="curve" smooth="yes"/>
      <point x="235" y="458"/>
      <point x="249" y="445"/>
      <point x="249" y="428" type="curve" smooth="yes"/>
      <point x="249" y="411"/>
      <point x="235" y="398"/>
    </contour>
  </outline>
</glyph>
<glyph name="bKa" format="1">
  <advance width="660"/>
  <unicode hex="0995"/>
  <outline>
    <contour>
      <point x="337" y="-11" type="curve" smooth="yes"/>
      <point x="360" y="-11"/>
      <point x="377" y="9"/>
      <point x="377" y="35" type="curve" smooth="yes"/>
      <point x="377" y="461" type="line" smooth="yes"/>
      <point x="377" y="510"/>
      <point x="378" y="518"/>
      <point x="413" y="518" type="curve" smooth="yes"/>
      <point x="660" y="518" type="line" smooth="yes"/>
      <point x="682" y="518"/>
      <point x="698" y="532"/>
      <point x="698" y="553" type="curve" smooth="yes"/>
      <point x="698" y="572"/>
      <point x="682" y="587"/>
      <point x="660" y="587" type="curve" smooth="yes"/>
      <point x="393" y="587" type="line" smooth="yes"/>
      <point x="337" y="587"/>
      <point x="299" y="558"/>
      <point x="299" y="466" type="curve" smooth="yes"/>
      <point x="299" y="35" type="line" smooth="yes"/>
      <point x="299" y="9"/>
      <point x="315" y="-11"/>
    </contour>
    <contour>
      <point x="357" y="57" type="line"/>
      <point x="357" y="180"/>
      <point x="185" y="313"/>
      <point x="63" y="322" type="curve"/>
      <point x="84" y="293" type="line"/>
      <point x="291" y="370"/>
      <point x="344" y="413"/>
      <point x="344" y="485" type="curve" smooth="yes"/>
      <point x="344" y="549"/>
      <point x="303" y="587"/>
      <point x="235" y="587" type="curve" smooth="yes"/>
      <point x="0" y="587" type="line" smooth="yes"/>
      <point x="-20" y="587"/>
      <point x="-37" y="573"/>
      <point x="-37" y="553" type="curve" smooth="yes"/>
      <point x="-37" y="533"/>
      <point x="-21" y="518"/>
      <point x="0" y="518" type="curve" smooth="yes"/>
      <point x="238" y="518" type="line" smooth="yes"/>
      <point x="270" y="518"/>
      <point x="298" y="513"/>
      <point x="298" y="495" type="curve"/>
      <point x="299" y="468"/>
      <point x="207" y="434"/>
      <point x="44" y="361" type="curve" smooth="yes"/>
      <point x="17" y="348"/>
      <point x="7" y="330"/>
      <point x="7" y="312" type="curve" smooth="yes"/>
      <point x="7" y="289"/>
      <point x="23" y="268"/>
      <point x="52" y="259" type="curve" smooth="yes"/>
      <point x="112" y="241"/>
      <point x="299" y="157"/>
      <point x="299" y="49" type="curve"/>
    </contour>
    <contour>
      <point x="526" y="196" type="curve" smooth="yes"/>
      <point x="511" y="196"/>
      <point x="498" y="209"/>
      <point x="498" y="225" type="curve" smooth="yes"/>
      <point x="498" y="241"/>
      <point x="511" y="254"/>
      <point x="526" y="254" type="curve" smooth="yes"/>
      <point x="542" y="254"/>
      <point x="555" y="241"/>
      <point x="555" y="225" type="curve" smooth="yes"/>
      <point x="555" y="209"/>
      <point x="542" y="196"/>
    </contour>
    <contour>
      <point x="524" y="138" type="curve" smooth="yes"/>
      <point x="582" y="138"/>
      <point x="640" y="194"/>
      <point x="640" y="273" type="curve" smooth="yes"/>
      <point x="640" y="308"/>
      <point x="635" y="380"/>
      <point x="532" y="416" type="curve" smooth="yes"/>
      <point x="482" y="434"/>
      <point x="378" y="442"/>
      <point x="378" y="486" type="curve"/>
      <point x="341" y="437" type="line"/>
      <point x="372" y="373"/>
      <point x="431" y="361"/>
      <point x="494" y="350" type="curve" smooth="yes"/>
      <point x="572" y="337"/>
      <point x="580" y="298"/>
      <point x="580" y="274" type="curve" smooth="yes"/>
      <point x="580" y="256"/>
      <point x="573" y="238"/>
      <point x="560" y="223" type="curve"/>
      <point x="563" y="166" type="line"/>
      <point x="583" y="181"/>
      <point x="594" y="207"/>
      <point x="594" y="229" type="curve" smooth="yes"/>
      <point x="594" y="270"/>
      <point x="565" y="309"/>
      <point x="514" y="309" type="curve" smooth="yes"/>
      <point x="465" y="309"/>
      <point x="425" y="274"/>
      <point x="425" y="223" type="curve" smooth="yes"/>
      <point x="425" y="167"/>
      <point x="475" y="138"/>
    </contour>
  </outline>
</glyph>
<glyph name="bNga" format="1">
  <advance width="555"/>
  <unicode hex="0999"/>
  <outline>
    <contour>
      <point x="330" y="17" type="curve" smooth="yes"/>
      <point x="448" y="17"/>
      <point x="536" y="94"/>
      <point x="536" y="212" type="curve" smooth="yes"/>
      <point x="536" y="309"/>
      <point x="476" y="378"/>
      <point x="437" y="378" type="curve" smooth="yes"/>
      <point x="412" y="378"/>
      <point x="404" y="362"/>
      <point x="404" y="339" type="curve" smooth="yes"/>
      <point x="404" y="307"/>
      <point x="381" y="274"/>
      <point x="345" y="274" type="curve" smooth="yes"/>
      <point x="297" y="274"/>
      <point x="276" y="329"/>
      <point x="276" y="378" type="curve" smooth="yes"/>
      <point x="276" y="453"/>
      <point x="316" y="530"/>
      <point x="372" y="530" type="curve" smooth="yes"/>
      <point x="387" y="530"/>
      <point x="399" y="524"/>
      <point x="399" y="507" type="curve" smooth="yes"/>
      <point x="399" y="481"/>
      <point x="369" y="471"/>
      <point x="334" y="471" type="curve" smooth="yes"/>
      <point x="231" y="471"/>
      <point x="193" y="570"/>
      <point x="80" y="579" type="curve" smooth="yes"/>
      <point x="59" y="583"/>
      <point x="36" y="587"/>
      <point x="0" y="587" type="curve" smooth="yes"/>
      <point x="-22" y="587"/>
      <point x="-39" y="572"/>
      <point x="-39" y="553" type="curve" smooth="yes"/>
      <point x="-39" y="533"/>
      <point x="-22" y="518"/>
      <point x="-1" y="518" type="curve" smooth="yes"/>
      <point x="33" y="518"/>
      <point x="55" y="514"/>
      <point x="78" y="509" type="curve" smooth="yes"/>
      <point x="165" y="498"/>
      <point x="210" y="397"/>
      <point x="335" y="397" type="curve" smooth="yes"/>
      <point x="415" y="397"/>
      <point x="471" y="440"/>
      <point x="471" y="504" type="curve" smooth="yes"/>
      <point x="471" y="562"/>
      <point x="422" y="596"/>
      <point x="367" y="596" type="curve" smooth="yes"/>
      <point x="276" y="596"/>
      <point x="189" y="498"/>
      <point x="189" y="375" type="curve" smooth="yes"/>
      <point x="189" y="271"/>
      <point x="253" y="195"/>
      <point x="337" y="195" type="curve" smooth="yes"/>
      <point x="407" y="195"/>
      <point x="446" y="253"/>
      <point x="446" y="297" type="curve" smooth="yes"/>
      <point x="446" y="314"/>
      <point x="443" y="326"/>
      <point x="437" y="336" type="curve"/>
      <point x="430" y="307" type="line"/>
      <point x="448" y="288"/>
      <point x="461" y="255"/>
      <point x="461" y="222" type="curve" smooth="yes"/>
      <point x="461" y="158"/>
      <point x="409" y="104"/>
      <point x="325" y="104" type="curve" smooth="yes"/>
      <point x="185" y="104"/>
      <point x="107" y="255"/>
      <point x="92" y="403" type="curve" smooth="yes"/>
      <point x="89" y="428"/>
      <point x="80" y="456"/>
      <point x="53" y="456" type="curve" smooth="yes"/>
      <point x="30" y="456"/>
      <point x="20" y="437"/>
      <point x="20" y="405" type="curve" smooth="yes"/>
      <point x="20" y="275"/>
      <point x="121" y="17"/>
    </contour>
  </outline>
</glyph>
<glyph name="bCa" format="1">
  <advance width="465"/>
  <unicode hex="099A"/>
  <outline>
    <contour>
      <point x="191" y="-12" type="curve" smooth="yes"/>
      <point x="306" y="-12"/>
      <point x="443" y="191"/>
      <point x="443" y="277" type="curve" smooth="yes"/>
      <point x="443" y="342"/>
      <point x="401" y="355"/>
      <point x="310" y="372" type="curve" smooth="yes"/>
      <point x="228" y="388"/>
      <point x="174" y="415"/>
      <point x="174" y="469" type="curve" smooth="yes"/>
      <point x="174" y="507"/>
      <point x="197" y="518"/>
      <point x="239" y="518" type="curve" smooth="yes"/>
      <point x="465" y="518" type="line" smooth="yes"/>
      <point x="487" y="518"/>
      <point x="503" y="533"/>
      <point x="503" y="553" type="curve" smooth="yes"/>
      <point x="503" y="572"/>
      <point x="487" y="587"/>
      <point x="465" y="587" type="curve" smooth="yes"/>
      <point x="187" y="587" type="line" smooth="yes"/>
      <point x="136" y="587"/>
      <point x="107" y="551"/>
      <point x="107" y="519" type="curve"/>
      <point x="119" y="524" type="line"/>
      <point x="117" y="550"/>
      <point x="82" y="587"/>
      <point x="36" y="587" type="curve" smooth="yes"/>
      <point x="0" y="587" type="line" smooth="yes"/>
      <point x="-22" y="587"/>
      <point x="-38" y="572"/>
      <point x="-38" y="553" type="curve" smooth="yes"/>
      <point x="-38" y="533"/>
      <point x="-22" y="518"/>
      <point x="0" y="518" type="curve" smooth="yes"/>
      <point x="34" y="518" type="line" smooth="yes"/>
      <point x="86" y="518"/>
      <point x="94" y="486"/>
      <point x="94" y="422" type="curve" smooth="yes"/>
      <point x="93" y="133" type="line" smooth="yes"/>
      <point x="93" y="45"/>
      <point x="110" y="-12"/>
    </contour>
    <contour>
      <point x="205" y="82" type="curve" smooth="yes"/>
      <point x="174" y="82"/>
      <point x="172" y="115"/>
      <point x="172" y="147" type="curve" smooth="yes"/>
      <point x="172" y="388" type="line"/>
      <point x="150" y="379" type="line"/>
      <point x="174" y="332"/>
      <point x="243" y="315"/>
      <point x="298" y="306" type="curve" smooth="yes"/>
      <point x="341" y="302"/>
      <point x="353" y="281"/>
      <point x="353" y="260" type="curve" smooth="yes"/>
      <point x="353" y="213"/>
      <point x="257" y="82"/>
    </contour>
  </outline>
</glyph>
<glyph name="bCha" format="1">
  <advance width="500"/>
  <unicode hex="099B"/>
  <outline>
    <contour>
      <point x="489" y="-82" type="curve" smooth="yes"/>
      <point x="513" y="-82"/>
      <point x="528" y="-69"/>
      <point x="528" y="-48" type="curve" smooth="yes"/>
      <point x="528" y="-30"/>
      <point x="514" y="-17"/>
      <point x="486" y="-12" type="curve" smooth="yes"/>
      <point x="451" y="-6"/>
      <point x="409" y="39"/>
      <point x="362" y="82" type="curve" smooth="yes"/>
      <point x="307" y="135"/>
      <point x="256" y="163"/>
      <point x="213" y="163" type="curve" smooth="yes"/>
      <point x="153" y="163"/>
      <point x="123" y="127"/>
      <point x="123" y="87" type="curve" smooth="yes"/>
      <point x="123" y="41"/>
      <point x="168" y="11"/>
      <point x="220" y="11" type="curve" smooth="yes"/>
      <point x="343" y="11"/>
      <point x="472" y="120"/>
      <point x="472" y="253" type="curve" smooth="yes"/>
      <point x="472" y="353"/>
      <point x="411" y="443"/>
      <point x="288" y="443" type="curve" smooth="yes"/>
      <point x="227" y="443"/>
      <point x="180" y="451"/>
      <point x="180" y="489" type="curve" smooth="yes"/>
      <point x="180" y="513"/>
      <point x="193" y="518"/>
      <point x="221" y="518" type="curve" smooth="yes"/>
      <point x="500" y="518" type="line" smooth="yes"/>
      <point x="522" y="518"/>
      <point x="538" y="533"/>
      <point x="538" y="553" type="curve" smooth="yes"/>
      <point x="538" y="572"/>
      <point x="522" y="587"/>
      <point x="500" y="587" type="curve" smooth="yes"/>
      <point x="191" y="587" type="line" smooth="yes"/>
      <point x="137" y="587"/>
      <point x="113" y="554"/>
      <point x="113" y="518" type="curve"/>
      <point x="134" y="522" type="line"/>
      <point x="129" y="559"/>
      <point x="91" y="587"/>
      <point x="45" y="587" type="curve" smooth="yes"/>
      <point x="0" y="587" type="line" smooth="yes"/>
      <point x="-22" y="587"/>
      <point x="-38" y="572"/>
      <point x="-38" y="553" type="curve" smooth="yes"/>
      <point x="-38" y="533"/>
      <point x="-22" y="518"/>
      <point x="0" y="518" type="curve" smooth="yes"/>
      <point x="36" y="518" type="line" smooth="yes"/>
      <point x="94" y="518"/>
      <point x="101" y="497"/>
      <point x="101" y="462" type="curve" smooth="yes"/>
      <point x="100" y="280" type="line" smooth="yes"/>
      <point x="100" y="222"/>
      <point x="124" y="184"/>
      <point x="193" y="184" type="curve" smooth="yes"/>
      <point x="292" y="184"/>
      <point x="370" y="288"/>
      <point x="370" y="353" type="curve" smooth="yes"/>
      <point x="370" y="380"/>
      <point x="351" y="396"/>
      <point x="337" y="396" type="curve"/>
      <point x="336" y="376" type="line"/>
      <point x="368" y="367"/>
      <point x="401" y="327"/>
      <point x="401" y="267" type="curve" smooth="yes"/>
      <point x="401" y="174"/>
      <point x="298" y="80"/>
      <point x="218" y="80" type="curve" smooth="yes"/>
      <point x="197" y="80"/>
      <point x="187" y="88"/>
      <point x="187" y="94" type="curve" smooth="yes"/>
      <point x="187" y="99"/>
      <point x="192" y="102"/>
      <point x="201" y="102" type="curve" smooth="yes"/>
      <point x="222" y="102"/>
      <point x="262" y="77"/>
      <point x="293" y="46" type="curve" smooth="yes"/>
      <point x="353" y="-13"/>
      <point x="428" y="-82"/>
    </contour>
    <contour>
      <point x="206" y="253" type="curve" smooth="yes"/>
      <point x="180" y="253"/>
      <point x="179" y="276"/>
      <point x="179" y="310" type="curve" smooth="yes"/>
      <point x="179" y="446" type="line"/>
      <point x="164" y="439" type="line"/>
      <point x="169" y="407"/>
      <point x="206" y="387"/>
      <point x="250" y="387" type="curve" smooth="yes"/>
      <point x="284" y="387"/>
      <point x="301" y="375"/>
      <point x="301" y="347" type="curve" smooth="yes"/>
      <point x="301" y="308"/>
      <point x="249" y="253"/>
    </contour>
  </outline>
</glyph>
